<?xml version="1.0" encoding="utf-8"?>
<!-- Generator: Adobe Illustrator 18.0.0, SVG Export Plug-In . SVG Version: 6.00 Build 0)  -->
<!DOCTYPE svg PUBLIC "-//W3C//DTD SVG 1.1//EN" "http://www.w3.org/Graphics/SVG/1.1/DTD/svg11.dtd">
<svg version="1.1" xmlns="http://www.w3.org/2000/svg" xmlns:xlink="http://www.w3.org/1999/xlink" x="0px" y="0px"
	 viewBox="0 0 375 382.5" style="enable-background:new 0 0 375 382.5;" xml:space="preserve">
<style type="text/css">
	.st0{fill:#C03224;}
	.st1{fill:#F36557;}
	.st2{fill-rule:evenodd;clip-rule:evenodd;fill:#FFFFFF;}
	.st3{fill:#FF988A;}
	.st4{fill:#FFE4D6;}
	.st5{fill-rule:evenodd;clip-rule:evenodd;fill:#C03224;}
</style>
<g id="frame_3_">
	<g id="frameShadow">
		<g>
			<path class="st0" d="M187.5,22.5c46.076,0,89.395,17.943,121.976,50.524S360,148.924,360,195s-17.943,89.395-50.524,121.976
				S233.576,367.5,187.5,367.5s-89.395-17.943-121.976-50.524S15,241.076,15,195s17.943-89.395,50.524-121.976
				S141.424,22.5,187.5,22.5 M187.5,7.5C83.947,7.5,0,91.447,0,195s83.947,187.5,187.5,187.5S375,298.553,375,195
				S291.053,7.5,187.5,7.5L187.5,7.5z"/>
		</g>
	</g>
	<g id="frame">
		<g>
			<path class="st1" d="M187.5,15c46.076,0,89.395,17.943,121.976,50.524S360,141.424,360,187.5s-17.943,89.395-50.524,121.976
				S233.576,360,187.5,360s-89.395-17.943-121.976-50.524S15,233.576,15,187.5S32.943,98.105,65.524,65.524S141.424,15,187.5,15
				 M187.5,0C83.947,0,0,83.947,0,187.5S83.947,375,187.5,375S375,291.053,375,187.5S291.053,0,187.5,0L187.5,0z"/>
		</g>
	</g>
</g>
<g id="icon_1_">
	<g id="frame_2_">
		<g>
			<rect x="67" y="86.125" class="st2" width="241" height="203.5"/>
		</g>
		<g>
			<path class="st3" d="M305.5,88.625v198.5h-236v-198.5H305.5 M310.5,83.625h-246v208.5h246V83.625L310.5,83.625z"/>
		</g>
	</g>
	<g id="grid">
		<g>
			<path class="st4" d="M305.25,135v-4.5h-38.753v-42h-4.471v42h-32.791v-42h-4.472v42h-32.791v-42H187.5v42h-32.791v-42h-4.472v42
				h-34.282v-42h-4.471v42H69.75v4.5h41.734v33H69.75v4.5h41.734V204H69.75v4.5h41.734V243H69.75v4.5h41.734v39.75h4.471V247.5
				h34.282v39.75h4.472V247.5H187.5v39.75h4.471V247.5h32.791v39.75h4.472V247.5h32.791v39.75h4.471V247.5h38.753V243h-38.753v-34.5
				h38.753V204h-38.753v-31.5h38.753V168h-38.753v-33H305.25z M224.763,135v33h-32.791v-33H224.763z M191.971,172.5h32.791V204
				h-32.791V172.5z M187.5,204h-32.791v-31.5H187.5V204z M187.5,135v33h-32.791v-33H187.5z M115.956,135h34.282v33h-34.282V135z
				 M115.956,172.5h34.282V204h-34.282V172.5z M115.956,243v-34.5h34.282V243H115.956z M154.709,243v-34.5H187.5V243H154.709z
				 M191.971,243v-34.5h32.791V243H191.971z M262.025,243h-32.791v-34.5h32.791V243z M262.025,204h-32.791v-31.5h32.791V204z
				 M262.025,168h-32.791v-33h32.791V168z"/>
		</g>
	</g>
	<g id="lineChart">
		<g>
			<polygon class="st5" points="286.38,98.188 241.96,175.125 198,175.125 198,175.619 197.816,175.436 155.896,217.356 
				113.836,206.087 113.719,206.523 113.505,206.399 76.005,271.351 88.995,278.851 120.941,223.52 160.664,234.163 
				160.797,233.668 204.34,190.125 250.5,190.125 250.5,190.056 250.62,190.125 299.37,105.688 			"/>
		</g>
	</g>
</g>
</svg>
