<?xml version="1.0" encoding="utf-8"?>
<!-- Generator: Adobe Illustrator 18.0.0, SVG Export Plug-In . SVG Version: 6.00 Build 0)  -->
<!DOCTYPE svg PUBLIC "-//W3C//DTD SVG 1.1//EN" "http://www.w3.org/Graphics/SVG/1.1/DTD/svg11.dtd">
<svg version="1.1" xmlns="http://www.w3.org/2000/svg" xmlns:xlink="http://www.w3.org/1999/xlink" x="0px" y="0px"
	 viewBox="0 0 375 382.5" style="enable-background:new 0 0 375 382.5;" xml:space="preserve">
<style type="text/css">
	.st0{fill:#C03224;}
	.st1{fill:#F36557;}
	.st2{fill-rule:evenodd;clip-rule:evenodd;fill:#C03224;}
	.st3{fill-rule:evenodd;clip-rule:evenodd;fill:#DA4C3E;}
	.st4{fill-rule:evenodd;clip-rule:evenodd;fill:#F36557;}
</style>
<g id="frame_2_">
	<g id="frameShadow">
		<g>
			<path class="st0" d="M187.5,22.5c46.076,0,89.395,17.943,121.976,50.524S360,148.924,360,195s-17.943,89.395-50.524,121.976
				S233.576,367.5,187.5,367.5s-89.395-17.943-121.976-50.524S15,241.076,15,195s17.943-89.395,50.524-121.976
				S141.424,22.5,187.5,22.5 M187.5,7.5C83.947,7.5,0,91.447,0,195s83.947,187.5,187.5,187.5S375,298.553,375,195
				S291.053,7.5,187.5,7.5L187.5,7.5z"/>
		</g>
	</g>
	<g id="frame">
		<g>
			<path class="st1" d="M187.5,15c46.076,0,89.395,17.943,121.976,50.524S360,141.424,360,187.5s-17.943,89.395-50.524,121.976
				S233.576,360,187.5,360s-89.395-17.943-121.976-50.524S15,233.576,15,187.5S32.943,98.105,65.524,65.524S141.424,15,187.5,15
				 M187.5,0C83.947,0,0,83.947,0,187.5S83.947,375,187.5,375S375,291.053,375,187.5S291.053,0,187.5,0L187.5,0z"/>
		</g>
	</g>
</g>
<g id="icon_1_">
	<g id="hand3">
		<g>
			<path class="st2" d="M312.463,229.717c-2.809-1.801-5.222,4.076-8.496,9.073c-3.643,5.56-4.248,5.444-4.248,5.444
				c0.529-1.586,5.808-17.926,8.799-26.613c1.478-4.292-3.738-3.122-5.461-1.512c-3.336,3.116-2.764,5.504-6.068,12.097
				c-3.055,6.096-6.068,14.819-6.068,14.819s6.748-33.25,6.979-30.545c-0.229-2.687-2.14-3.674-3.944-3.327
				c-5.406,1.041-6.716,9.113-8.192,16.331c-1.931,9.448-4.855,16.028-4.855,16.028s-1.514-17.287-2.124-26.008
				c-0.381-5.451-2.755-6.703-5.461-3.327c-2.645,3.301-1.196,4.528-1.517,20.867c-0.551,28.01-4.98,26.351-8.799,27.521
				c-3.23,0.989-5.167,0.528-13.35-5.746c-3.757-2.881-7.764-1.937-9.709-1.21c-2.549,0.953-1.214,4.234-1.214,4.234l20.329,13.609
				c0,0,5.16,5.219,9.406,9.073c9.169,8.323,7.317,2.161,6.372,14.516c-0.442,5.772-7.09,45.46-7.09,45.46s8.17-4.518,15-9
				c4.807-3.155,9-6,9-6l0.688-38.625c0,0,3.285-2.971,6.675-12.097c3.475-9.354,2.434-7.681,3.944-17.238
				c0.909-5.754,6.491-15.527,8.799-22.379C313.582,230.037,313.928,230.656,312.463,229.717z"/>
		</g>
	</g>
	<g id="hand2">
		<g>
			<path class="st3" d="M171.12,193.564c-4.214-2.69-7.832,6.087-12.743,13.551c-5.465,8.305-6.372,8.131-6.372,8.131
				c0.793-2.369,8.712-26.774,13.198-39.749c2.216-6.41-5.607-4.663-8.192-2.258c-5.004,4.654-4.145,8.221-9.102,18.068
				c-4.583,9.104-9.102,22.133-9.102,22.133s10.122-49.662,10.468-45.621c-0.343-4.013-3.21-5.488-5.917-4.969
				c-8.109,1.555-10.075,13.611-12.288,24.392c-2.897,14.111-7.282,23.94-7.282,23.94s-2.272-25.82-3.186-38.846
				c-0.571-8.141-4.133-10.012-8.192-4.969c-3.968,4.93-1.794,6.762-2.276,31.167c-0.826,41.835-7.47,39.357-13.198,41.104
				c-4.845,1.478-7.751,0.789-20.025-8.582c-5.636-4.303-11.647-2.893-14.564-1.807c-3.824,1.423-1.82,6.324-1.82,6.324
				l30.493,20.326c0,0,7.74,7.795,14.109,13.551c13.753,12.431,10.975,3.228,9.557,21.681c-0.662,8.621-7.435,50.119-7.435,50.119
				s8.387,4.334,16.5,7.5c7.208,2.813,13.5,4.5,13.5,4.5l3.832-74.315c0,0,4.927-4.438,10.013-18.068
				c5.213-13.971,3.652-11.472,5.917-25.747c1.364-8.595,9.737-23.19,13.198-33.426C172.798,194.042,173.318,194.967,171.12,193.564
				z"/>
		</g>
	</g>
	<g id="hand1">
		<g>
			<path class="st4" d="M278.25,122.25c-6.944-4.467-12.907,10.107-21,22.5c-9.005,13.789-10.5,13.5-10.5,13.5
				c1.307-3.933,14.357-44.456,21.75-66c3.652-10.644-9.24-7.742-13.5-3.75c-8.246,7.728-6.831,13.65-15,30
				c-7.553,15.117-15,36.75-15,36.75s16.681-82.459,17.25-75.75c-0.566-6.664-5.289-9.112-9.75-8.25
				c-13.364,2.582-16.602,22.599-20.25,40.5c-4.774,23.429-12,39.75-12,39.75S196.507,108.628,195,87
				c-0.942-13.517-6.811-16.624-13.5-8.25c-6.538,8.186-2.956,11.228-3.75,51.75c-1.361,69.463-12.31,65.349-21.75,68.25
				c-7.984,2.454-12.773,1.31-33-14.25c-9.287-7.144-19.193-4.803-24-3c-6.302,2.363-3,10.5-3,10.5l50.25,33.75
				c0,0,12.755,12.942,23.25,22.5c22.663,20.64,18.087,5.36,15.75,36c-1.092,14.314-14.25,75-14.25,75s11.415,3.161,30,1.5
				c12.829-1.147,27-5.25,27-5.25l0.75-91.5c0,0,8.119-7.369,16.5-30c8.591-23.198,6.018-19.049,9.75-42.75
				c2.247-14.271,16.046-38.506,21.75-55.5C281.015,123.044,281.871,124.579,278.25,122.25z"/>
		</g>
	</g>
</g>
</svg>
