<?xml version="1.0" encoding="utf-8"?>
<!-- Generator: Adobe Illustrator 18.0.0, SVG Export Plug-In . SVG Version: 6.00 Build 0)  -->
<!DOCTYPE svg PUBLIC "-//W3C//DTD SVG 1.1//EN" "http://www.w3.org/Graphics/SVG/1.1/DTD/svg11.dtd">
<svg version="1.1" xmlns="http://www.w3.org/2000/svg" xmlns:xlink="http://www.w3.org/1999/xlink" x="0px" y="0px"
	 viewBox="0 0 375 382.5" style="enable-background:new 0 0 375 382.5;" xml:space="preserve">
<style type="text/css">
	.st0{fill:#C03224;}
	.st1{fill:#F36557;}
	.st2{fill:#DA4C3E;}
	.st3{fill-rule:evenodd;clip-rule:evenodd;fill:#F36557;}
	.st4{fill-rule:evenodd;clip-rule:evenodd;fill:#FFFFFF;}
	.st5{fill:#FF7F71;}
	.st6{fill-rule:evenodd;clip-rule:evenodd;fill:#C03224;}
	.st7{fill-rule:evenodd;clip-rule:evenodd;fill:#FF7F71;}
</style>
<g id="frame_3_">
	<g id="frameShadow">
		<g>
			<path class="st0" d="M187.5,22.5c46.076,0,89.395,17.943,121.976,50.524S360,148.924,360,195s-17.943,89.395-50.524,121.976
				S233.576,367.5,187.5,367.5s-89.395-17.943-121.976-50.524S15,241.076,15,195s17.943-89.395,50.524-121.976
				S141.424,22.5,187.5,22.5 M187.5,7.5C83.947,7.5,0,91.447,0,195s83.947,187.5,187.5,187.5S375,298.553,375,195
				S291.053,7.5,187.5,7.5L187.5,7.5z"/>
		</g>
	</g>
	<g id="frame">
		<g>
			<path class="st1" d="M187.5,15c46.076,0,89.395,17.943,121.976,50.524S360,141.424,360,187.5s-17.943,89.395-50.524,121.976
				S233.576,360,187.5,360s-89.395-17.943-121.976-50.524S15,233.576,15,187.5S32.943,98.105,65.524,65.524S141.424,15,187.5,15
				 M187.5,0C83.947,0,0,83.947,0,187.5S83.947,375,187.5,375S375,291.053,375,187.5S291.053,0,187.5,0L187.5,0z"/>
		</g>
	</g>
</g>
<g id="icon_1_">
	<g id="ring">
		<g>
			<path class="st2" d="M184.942,31.25c24.053,0,43.622,19.626,43.622,43.75c0,24.124-19.569,43.75-43.622,43.75
				S141.32,99.124,141.32,75C141.32,50.876,160.889,31.25,184.942,31.25 M184.942,26.25c-26.853,0-48.622,21.826-48.622,48.75
				c0,26.924,21.769,48.75,48.622,48.75c26.853,0,48.622-21.826,48.622-48.75C233.564,48.076,211.795,26.25,184.942,26.25
				L184.942,26.25z"/>
		</g>
	</g>
	<g id="buttonShadow">
		<g>
			<rect x="171.75" y="109.5" class="st3" width="26.25" height="33.75"/>
		</g>
	</g>
	<g id="button">
		<g>
			<rect x="166.75" y="97" class="st4" width="36.25" height="2.5"/>
		</g>
		<g>
			<polygon class="st5" points="213,87 156.75,87 156.75,109.5 213,109.5 213,87 			"/>
		</g>
	</g>
	<g id="dialShadow">
		<g>
			<polygon class="st3" points="269.506,133.662 245.704,157.527 264.216,176.088 288.018,152.223 			"/>
		</g>
	</g>
	<g id="dial">
		<g>
			<polygon class="st4" points="269.524,134.352 271.27,132.603 288.882,150.262 287.138,152.011 			"/>
		</g>
		<g>
			<polygon class="st5" points="271.269,118.442 255.401,134.352 287.137,166.172 303.005,150.262 271.269,118.442 			"/>
		</g>
	</g>
	<g id="frame_2_">
		<g>
			<path class="st4" d="M184.204,338.75C127.849,338.75,82,292.769,82,236.25s45.849-102.5,102.204-102.5
				s102.204,45.981,102.204,102.5S240.56,338.75,184.204,338.75z"/>
		</g>
		<g>
			<path class="st5" d="M184.204,143.75c50.842,0,92.204,41.495,92.204,92.5s-41.363,92.5-92.204,92.5S92,287.255,92,236.25
				S133.362,143.75,184.204,143.75 M184.204,123.75C122.236,123.75,72,174.118,72,236.25s50.236,112.5,112.204,112.5
				s112.204-50.368,112.204-112.5S246.172,123.75,184.204,123.75L184.204,123.75z"/>
		</g>
	</g>
	<g id="watchFaceShadow">
		<g>
			<path class="st2" d="M184.204,147.5c48.801,0,88.503,39.813,88.503,88.75S233.005,325,184.204,325s-88.503-39.813-88.503-88.75
				S135.403,147.5,184.204,147.5 M184.204,142.5c-51.64,0-93.503,41.973-93.503,93.75S132.564,330,184.204,330
				s93.503-41.973,93.503-93.75S235.844,142.5,184.204,142.5L184.204,142.5z"/>
		</g>
	</g>
	<g id="watchFace_1_">
		<g id="hand">
			<g>
				<path class="st6" d="M246.853,176.853l-2.652-2.652l-55.824,55.824c-1.192-0.805-2.628-1.276-4.174-1.276
					c-4.131,0-7.48,3.358-7.48,7.5s3.349,7.5,7.48,7.5s7.48-3.358,7.48-7.5c0-1.228-0.3-2.383-0.822-3.406L246.853,176.853z"/>
			</g>
		</g>
		<g id="markings">
			<g>
				<path class="st7" d="M137.487,310.816l2.305,1.928l8.703-10.342l-2.305-1.928L137.487,310.816z M108.751,280.75l1.726,2.457
					l11.091-7.743l-1.726-2.457L108.751,280.75z M148.493,173.092l-7.743-11.091l-2.457,1.726l7.743,11.091L148.493,173.092z
					 M121.026,199.441l-10.342-8.703l-1.928,2.305l10.342,8.703L121.026,199.441z M246.474,275.309l10.342,8.703l1.928-2.305
					l-10.342-8.703L246.474,275.309z M258.796,193.39l-1.721-2.457l-11.059,7.743l1.721,2.457L258.796,193.39z M219.168,171.738
					l2.298,1.928l8.678-10.342l-2.298-1.928L219.168,171.738z M219.007,301.657l7.743,11.091l2.457-1.726l-7.743-11.091
					L219.007,301.657z"/>
			</g>
		</g>
		<g id="markingQuarters">
			<g>
				<path class="st4" d="M99.007,247.499l18.749-11.25L99.007,225V247.499z M173.25,321.743h22.499l-11.25-18.749L173.25,321.743z
					 M184.805,169.623l11.25-18.749h-22.499L184.805,169.623z M251.244,236.25l18.749,11.25v-22.499L251.244,236.25z"/>
			</g>
			<g>
				<path class="st1" d="M196.055,150.874h-22.499l11.249,18.749L196.055,150.874L196.055,150.874z M99.007,225v22.499
					l18.749-11.249L99.007,225L99.007,225z M269.993,225.001l-18.749,11.25l18.749,11.249V225.001L269.993,225.001z
					 M184.499,302.994l-11.249,18.749h22.499L184.499,302.994L184.499,302.994z"/>
			</g>
		</g>
	</g>
</g>
</svg>
