<?xml version="1.0" encoding="utf-8"?>
<!-- Generator: Adobe Illustrator 18.0.0, SVG Export Plug-In . SVG Version: 6.00 Build 0)  -->
<!DOCTYPE svg PUBLIC "-//W3C//DTD SVG 1.1//EN" "http://www.w3.org/Graphics/SVG/1.1/DTD/svg11.dtd">
<svg version="1.1" xmlns="http://www.w3.org/2000/svg" xmlns:xlink="http://www.w3.org/1999/xlink" x="0px" y="0px"
	 viewBox="0 0 375 382.5" style="enable-background:new 0 0 375 382.5;" xml:space="preserve">
<style type="text/css">
	.st0{fill:#C03224;}
	.st1{fill:#F36557;}
	.st2{fill-rule:evenodd;clip-rule:evenodd;fill:#F36557;}
	.st3{fill-rule:evenodd;clip-rule:evenodd;fill:#C03224;}
	.st4{fill:#DA4C3E;}
</style>
<g id="frame_2_">
	<g id="frameShadow">
		<g>
			<path class="st0" d="M187.5,22.5c46.076,0,89.395,17.943,121.976,50.524S360,148.924,360,195s-17.943,89.395-50.524,121.976
				S233.576,367.5,187.5,367.5s-89.395-17.943-121.976-50.524S15,241.076,15,195s17.943-89.395,50.524-121.976
				S141.424,22.5,187.5,22.5 M187.5,7.5C83.947,7.5,0,91.447,0,195s83.947,187.5,187.5,187.5S375,298.553,375,195
				S291.053,7.5,187.5,7.5L187.5,7.5z"/>
		</g>
	</g>
	<g id="frame">
		<g>
			<path class="st1" d="M187.5,15c46.076,0,89.395,17.943,121.976,50.524S360,141.424,360,187.5s-17.943,89.395-50.524,121.976
				S233.576,360,187.5,360s-89.395-17.943-121.976-50.524S15,233.576,15,187.5S32.943,98.105,65.524,65.524S141.424,15,187.5,15
				 M187.5,0C83.947,0,0,83.947,0,187.5S83.947,375,187.5,375S375,291.053,375,187.5S291.053,0,187.5,0L187.5,0z"/>
		</g>
	</g>
</g>
<g id="icon_1_">
	<g id="trolley">
		<g>
			<polygon class="st2" points="276.57,94.227 276.323,94.161 276.305,94.227 276.075,94.227 276.075,95.087 241.037,225.852 
				74.587,225.852 74.587,246.102 256.837,246.102 256.837,245.122 291.844,114.477 326.7,114.477 326.7,94.227 			"/>
		</g>
	</g>
	<g id="wheels">
		<g>
			<path class="st3" d="M238.106,246.102c-9.786,0-17.719,7.933-17.719,17.719s7.933,17.719,17.719,17.719
				c9.786,0,17.719-7.933,17.719-17.719S247.892,246.102,238.106,246.102z M92.306,246.102c-9.786,0-17.719,7.933-17.719,17.719
				s7.933,17.719,17.719,17.719c9.786,0,17.719-7.933,17.719-17.719S102.092,246.102,92.306,246.102z"/>
		</g>
	</g>
	<g id="cart">
		<g>
			<path class="st4" d="M247.692,124.477l-21.125,81.25H82.358l-21.125-81.25H247.692 M260.625,114.477H48.3l26.325,101.25H234.3
				L260.625,114.477L260.625,114.477z"/>
		</g>
	</g>
</g>
</svg>
