<?xml version="1.0" encoding="utf-8"?>
<!-- Generator: Adobe Illustrator 18.0.0, SVG Export Plug-In . SVG Version: 6.00 Build 0)  -->
<!DOCTYPE svg PUBLIC "-//W3C//DTD SVG 1.1//EN" "http://www.w3.org/Graphics/SVG/1.1/DTD/svg11.dtd">
<svg version="1.1" xmlns="http://www.w3.org/2000/svg" xmlns:xlink="http://www.w3.org/1999/xlink" x="0px" y="0px"
	 viewBox="0 0 375 382.5" style="enable-background:new 0 0 375 382.5;" xml:space="preserve">
<style type="text/css">
	.st0{fill:#C03224;}
	.st1{fill:#F36557;}
	.st2{fill-rule:evenodd;clip-rule:evenodd;fill:#F36557;}
	.st3{fill-rule:evenodd;clip-rule:evenodd;fill:#FF7F71;}
	.st4{fill-rule:evenodd;clip-rule:evenodd;fill:#DA4C3E;}
	.st5{fill-rule:evenodd;clip-rule:evenodd;fill:#FFFFFF;}
</style>
<g id="frame_2_">
	<g id="frameShadow">
		<g>
			<path class="st0" d="M187.5,22.5c46.076,0,89.395,17.943,121.976,50.524S360,148.924,360,195s-17.943,89.395-50.524,121.976
				S233.576,367.5,187.5,367.5s-89.395-17.943-121.976-50.524S15,241.076,15,195s17.943-89.395,50.524-121.976
				S141.424,22.5,187.5,22.5 M187.5,7.5C83.947,7.5,0,91.447,0,195s83.947,187.5,187.5,187.5S375,298.553,375,195
				S291.053,7.5,187.5,7.5L187.5,7.5z"/>
		</g>
	</g>
	<g id="frame">
		<g>
			<path class="st1" d="M187.5,15c46.076,0,89.395,17.943,121.976,50.524S360,141.424,360,187.5s-17.943,89.395-50.524,121.976
				S233.576,360,187.5,360s-89.395-17.943-121.976-50.524S15,233.576,15,187.5S32.943,98.105,65.524,65.524S141.424,15,187.5,15
				 M187.5,0C83.947,0,0,83.947,0,187.5S83.947,375,187.5,375S375,291.053,375,187.5S291.053,0,187.5,0L187.5,0z"/>
		</g>
	</g>
</g>
<g id="icon_1_">
	<g id="tag">
		<g>
			<path class="st2" d="M148.317,122.25v-0.002l-0.002,0.002h-0.002v0.002L79.5,187.5l68.813,65.99v0.01H333.75V122.25H148.317z
				 M117,202.5c-8.284,0-15-6.716-15-15c0-8.284,6.716-15,15-15c8.284,0,15,6.716,15,15C132,195.784,125.284,202.5,117,202.5z"/>
		</g>
	</g>
	<g id="ribbonFront">
		<g>
			<path class="st3" d="M133.5,186.75c-9.862-19.565-20.321-13.886-18.75-15c0,0-2.831,0.761-5.25,2.25
				c-2.456,1.511-4.5,3.75-4.5,3.75s14.528,7.297,8.25,19.5c-6.047,11.754-26.246,26.381-47.25,33c-9.584,3.02-22.5,5.25-22.5,5.25
				l30.75,2.25L64.5,288c0.093-0.041,10.158-17.095,20.25-27.75C107.702,236.019,141.373,202.369,133.5,186.75z"/>
		</g>
	</g>
	<g id="ribbonBack">
		<g>
			<path class="st4" d="M62.25,148.5c-37.019-22.773,21.866-36.349,35.25-36.75L71.25,111l0.75-8.25
				c-4.931,9.628-7.023,10.944-21.75,17.25c-21.274,9.109-4.185,35.342,45.875,52.547l6.625-6.797
				C102.75,165.75,89.857,165.483,62.25,148.5z"/>
		</g>
	</g>
	<g id="discount">
		<g>
			<path class="st5" d="M215.07,181.77c2.959,0,5.739-0.499,8.34-1.5c2.599-0.999,4.86-2.34,6.78-4.02c1.92-1.68,3.439-3.679,4.56-6
				c1.119-2.319,1.68-4.8,1.68-7.44c0-2.64-0.561-5.119-1.68-7.44c-1.121-2.319-2.64-4.32-4.56-6c-1.92-1.68-4.181-3.019-6.78-4.02
				c-2.601-0.999-5.381-1.5-8.34-1.5c-3.041,0-5.861,0.501-8.46,1.5c-2.601,1.001-4.86,2.34-6.78,4.02c-1.92,1.68-3.42,3.681-4.5,6
				c-1.08,2.321-1.62,4.8-1.62,7.44c0,2.64,0.54,5.121,1.62,7.44c1.08,2.321,2.58,4.32,4.5,6c1.92,1.68,4.179,3.021,6.78,4.02
				C209.209,181.271,212.029,181.77,215.07,181.77z M210.99,157.05c1.119-1.599,2.479-2.4,4.08-2.4c1.599,0,2.959,0.801,4.08,2.4
				c1.119,1.601,1.68,3.521,1.68,5.76c0,2.241-0.561,4.161-1.68,5.76c-1.121,1.601-2.481,2.4-4.08,2.4
				c-1.601,0-2.961-0.799-4.08-2.4c-1.121-1.599-1.68-3.519-1.68-5.76C209.31,160.571,209.869,158.651,210.99,157.05z
				 M286.23,205.05c-1.121-2.319-2.64-4.32-4.56-6s-4.181-3.019-6.78-4.02c-2.601-0.999-5.381-1.5-8.34-1.5
				c-3.041,0-5.861,0.501-8.46,1.5c-2.601,1.001-4.86,2.34-6.78,4.02c-1.92,1.68-3.42,3.681-4.5,6c-1.08,2.321-1.62,4.8-1.62,7.44
				c0,2.64,0.54,5.121,1.62,7.44c1.08,2.321,2.58,4.32,4.5,6c1.92,1.68,4.179,3.021,6.78,4.02c2.599,0.999,5.419,1.5,8.46,1.5
				c2.959,0,5.739-0.501,8.34-1.5c2.599-0.999,4.86-2.34,6.78-4.02s3.439-3.679,4.56-6c1.119-2.319,1.68-4.8,1.68-7.44
				C287.91,209.85,287.349,207.371,286.23,205.05z M270.63,218.25c-1.121,1.601-2.481,2.4-4.08,2.4c-1.601,0-2.961-0.799-4.08-2.4
				c-1.121-1.599-1.68-3.519-1.68-5.76c0-2.239,0.559-4.159,1.68-5.76c1.119-1.599,2.479-2.4,4.08-2.4c1.599,0,2.959,0.801,4.08,2.4
				c1.119,1.601,1.68,3.521,1.68,5.76C272.31,214.731,271.749,216.651,270.63,218.25z M277.83,152.73l-9.96-9l-30.12,40.44
				l-33.96,38.28l9.96,9l31.56-41.64L277.83,152.73z"/>
		</g>
	</g>
</g>
</svg>
