<?xml version="1.0" encoding="utf-8"?>
<!-- Generator: Adobe Illustrator 18.0.0, SVG Export Plug-In . SVG Version: 6.00 Build 0)  -->
<!DOCTYPE svg PUBLIC "-//W3C//DTD SVG 1.1//EN" "http://www.w3.org/Graphics/SVG/1.1/DTD/svg11.dtd">
<svg version="1.1" xmlns="http://www.w3.org/2000/svg" xmlns:xlink="http://www.w3.org/1999/xlink" x="0px" y="0px"
	 viewBox="0 0 375 382.5" style="enable-background:new 0 0 375 382.5;" xml:space="preserve">
<style type="text/css">
	.st0{fill:#C03224;}
	.st1{fill:#F36557;}
	.st2{fill-rule:evenodd;clip-rule:evenodd;fill:#F36557;}
</style>
<g id="frame_2_">
	<g id="frameShadow">
		<g>
			<path class="st0" d="M187.5,22.5c46.076,0,89.395,17.943,121.976,50.524S360,148.924,360,195s-17.943,89.395-50.524,121.976
				S233.576,367.5,187.5,367.5s-89.395-17.943-121.976-50.524S15,241.076,15,195s17.943-89.395,50.524-121.976
				S141.424,22.5,187.5,22.5 M187.5,7.5C83.947,7.5,0,91.447,0,195s83.947,187.5,187.5,187.5S375,298.553,375,195
				S291.053,7.5,187.5,7.5L187.5,7.5z"/>
		</g>
	</g>
	<g id="frame">
		<g>
			<path class="st1" d="M187.5,15c46.076,0,89.395,17.943,121.976,50.524S360,141.424,360,187.5s-17.943,89.395-50.524,121.976
				S233.576,360,187.5,360s-89.395-17.943-121.976-50.524S15,233.576,15,187.5S32.943,98.105,65.524,65.524S141.424,15,187.5,15
				 M187.5,0C83.947,0,0,83.947,0,187.5S83.947,375,187.5,375S375,291.053,375,187.5S291.053,0,187.5,0L187.5,0z"/>
		</g>
	</g>
</g>
<g id="icon_1_">
	<g id="network">
		<g>
			<path class="st2" d="M249.375,231.225c-8.269,0-15.963,2.442-22.419,6.632l-62.768-35.707c1.731-4.554,2.687-9.489,2.687-14.65
				c0-5.073-0.921-9.93-2.596-14.419l62.911-35.788c6.407,4.097,14.015,6.482,22.185,6.482c22.782,0,41.25-18.468,41.25-41.25
				s-18.468-41.25-41.25-41.25c-22.782,0-41.25,18.468-41.25,41.25c0,5.25,0.991,10.267,2.78,14.886l-62.623,35.624
				c-6.504-4.284-14.287-6.785-22.657-6.785c-22.782,0-41.25,18.468-41.25,41.25s18.468,41.25,41.25,41.25
				c8.271,0,15.966-2.443,22.423-6.634l62.766,35.705c-1.732,4.555-2.689,9.492-2.689,14.654c0,22.782,18.468,41.25,41.25,41.25
				c22.782,0,41.25-18.468,41.25-41.25S272.157,231.225,249.375,231.225z"/>
		</g>
	</g>
</g>
</svg>
