<?xml version="1.0" encoding="utf-8"?>
<!-- Generator: Adobe Illustrator 18.0.0, SVG Export Plug-In . SVG Version: 6.00 Build 0)  -->
<!DOCTYPE svg PUBLIC "-//W3C//DTD SVG 1.1//EN" "http://www.w3.org/Graphics/SVG/1.1/DTD/svg11.dtd">
<svg version="1.1" xmlns="http://www.w3.org/2000/svg" xmlns:xlink="http://www.w3.org/1999/xlink" x="0px" y="0px"
	 viewBox="0 0 375 382.5" style="enable-background:new 0 0 375 382.5;" xml:space="preserve">
<style type="text/css">
	.st0{fill:#C03224;}
	.st1{fill:#F36557;}
	.st2{fill-rule:evenodd;clip-rule:evenodd;fill:#F36557;}
	.st3{fill-rule:evenodd;clip-rule:evenodd;fill:#FF988A;}
</style>
<g id="frame_2_">
	<g id="framShadow">
		<g>
			<path class="st0" d="M187.5,22.5c46.076,0,89.395,17.943,121.976,50.524S360,148.924,360,195s-17.943,89.395-50.524,121.976
				S233.576,367.5,187.5,367.5s-89.395-17.943-121.976-50.524S15,241.076,15,195s17.943-89.395,50.524-121.976
				S141.424,22.5,187.5,22.5 M187.5,7.5C83.947,7.5,0,91.447,0,195s83.947,187.5,187.5,187.5S375,298.553,375,195
				S291.053,7.5,187.5,7.5L187.5,7.5z"/>
		</g>
	</g>
	<g id="frame">
		<g>
			<path class="st1" d="M187.5,15c46.076,0,89.395,17.943,121.976,50.524S360,141.424,360,187.5s-17.943,89.395-50.524,121.976
				S233.576,360,187.5,360s-89.395-17.943-121.976-50.524S15,233.576,15,187.5S32.943,98.105,65.524,65.524S141.424,15,187.5,15
				 M187.5,0C83.947,0,0,83.947,0,187.5S83.947,375,187.5,375S375,291.053,375,187.5S291.053,0,187.5,0L187.5,0z"/>
		</g>
	</g>
</g>
<g id="icon_1_">
	<g id="pad">
		<g>
			<path class="st2" d="M273.75,171.75h-172.5c-4.142,0-7.5,3.358-7.5,7.5V295.5c0,4.142,3.358,7.5,7.5,7.5h172.5
				c4.142,0,7.5-3.358,7.5-7.5V179.25C281.25,175.108,277.892,171.75,273.75,171.75z M195,252.679V265.5c0,4.142-3.358,7.5-7.5,7.5
				c-4.142,0-7.5-3.358-7.5-7.5v-12.821c-6.62-2.894-11.25-9.492-11.25-17.179c0-10.355,8.395-18.75,18.75-18.75
				c10.355,0,18.75,8.395,18.75,18.75C206.25,243.187,201.62,249.785,195,252.679z"/>
		</g>
	</g>
	<g id="metal">
		<g>
			<path class="st3" d="M243.563,108c-0.121-17.719-13.109-36.158-56.157-36c-41.851,0.154-56.942,18.324-56.906,36
				c0.059,28.482,0.059,56.828,0.059,56.828h21.637c0,0,0-36.307,0.018-56.828c0.013-14.93,18.518-14.25,35.192-14.25
				c15.925,0,34.253-0.26,34.443,14.25c0.271,20.716,0.271,56.828,0.271,56.828h21.637C243.757,164.828,243.757,136.482,243.563,108
				z"/>
		</g>
	</g>
</g>
</svg>
