<?xml version="1.0" encoding="utf-8"?>
<!-- Generator: Adobe Illustrator 18.0.0, SVG Export Plug-In . SVG Version: 6.00 Build 0)  -->
<!DOCTYPE svg PUBLIC "-//W3C//DTD SVG 1.1//EN" "http://www.w3.org/Graphics/SVG/1.1/DTD/svg11.dtd">
<svg version="1.1" xmlns="http://www.w3.org/2000/svg" xmlns:xlink="http://www.w3.org/1999/xlink" x="0px" y="0px"
	 viewBox="0 0 375 382.5" style="enable-background:new 0 0 375 382.5;" xml:space="preserve">
<style type="text/css">
	.st0{fill:#C03224;}
	.st1{fill:#F36557;}
	.st2{fill-rule:evenodd;clip-rule:evenodd;fill:#FFFFFF;}
	.st3{fill:#DA4C3E;}
	.st4{fill-rule:evenodd;clip-rule:evenodd;fill:#FF988A;}
	.st5{fill-rule:evenodd;clip-rule:evenodd;fill:#C03224;}
</style>
<g id="frame_2_">
	<g id="frameShadow">
		<g>
			<path class="st0" d="M187.5,22.5c46.076,0,89.395,17.943,121.976,50.524S360,148.924,360,195s-17.943,89.395-50.524,121.976
				S233.576,367.5,187.5,367.5s-89.395-17.943-121.976-50.524S15,241.076,15,195s17.943-89.395,50.524-121.976
				S141.424,22.5,187.5,22.5 M187.5,7.5C83.947,7.5,0,91.447,0,195s83.947,187.5,187.5,187.5S375,298.553,375,195
				S291.053,7.5,187.5,7.5L187.5,7.5z"/>
		</g>
	</g>
	<g id="frame">
		<g>
			<path class="st1" d="M187.5,15c46.076,0,89.395,17.943,121.976,50.524S360,141.424,360,187.5s-17.943,89.395-50.524,121.976
				S233.576,360,187.5,360s-89.395-17.943-121.976-50.524S15,233.576,15,187.5S32.943,98.105,65.524,65.524S141.424,15,187.5,15
				 M187.5,0C83.947,0,0,83.947,0,187.5S83.947,375,187.5,375S375,291.053,375,187.5S291.053,0,187.5,0L187.5,0z"/>
		</g>
	</g>
</g>
<g id="icon_1_">
	<g id="buttons">
		<g>
			<rect x="149.25" y="258.75" class="st2" width="78" height="66.75"/>
		</g>
	</g>
	<g id="phone">
		<g>
			<path class="st1" d="M235.5,149.087h-3.975c0.286-0.794,0.45-1.647,0.45-2.539V139.5c0-4.142-3.358-7.5-7.5-7.5h-7.05
				c-4.142,0-7.5,3.358-7.5,7.5v7.047c0,0.893,0.164,1.745,0.45,2.539H140.25c-4.142,0-7.5,3.358-7.5,7.5V334.5
				c0,4.142,3.358,7.5,7.5,7.5h95.25c4.142,0,7.5-3.358,7.5-7.5V156.587C243,152.444,239.642,149.087,235.5,149.087z
				 M161.692,325.465h-2.759c-5.327,0-9.646-4.318-9.646-9.646c0-5.327,4.319-9.646,9.646-9.646h2.759
				c5.327,0,9.646,4.318,9.646,9.646C171.337,321.146,167.019,325.465,161.692,325.465z M161.895,302.32h-2.766
				c-5.327,0-9.645-4.318-9.645-9.645c0-5.327,4.318-9.645,9.645-9.645h2.766c5.327,0,9.645,4.318,9.645,9.645
				C171.539,298.002,167.221,302.32,161.895,302.32z M149.287,268.969c0-5.327,4.319-9.646,9.646-9.646h2.759
				c3.664,0,6.85,2.043,8.483,5.051c0.741,1.366,1.162,2.931,1.162,4.594c0,5.327-4.318,9.646-9.646,9.646h-2.759
				C153.606,278.614,149.287,274.296,149.287,268.969z M189.254,325.465h-2.759c-5.327,0-9.646-4.318-9.646-9.646
				c0-5.327,4.319-9.646,9.646-9.646h2.759c5.327,0,9.646,4.318,9.646,9.646C198.9,321.146,194.581,325.465,189.254,325.465z
				 M189.254,302.315h-2.759c-5.327,0-9.646-4.319-9.646-9.646c0-5.327,4.319-9.646,9.646-9.646h2.759
				c5.327,0,9.646,4.318,9.646,9.646C198.9,297.996,194.581,302.315,189.254,302.315z M189.254,278.614h-2.759
				c-5.327,0-9.646-4.318-9.646-9.646s4.319-9.646,9.646-9.646h2.759c5.327,0,9.646,4.319,9.646,9.646
				S194.581,278.614,189.254,278.614z M216.817,325.465h-2.759c-5.327,0-9.646-4.318-9.646-9.646c0-5.327,4.319-9.646,9.646-9.646
				h2.759c5.327,0,9.646,4.318,9.646,9.646C226.462,321.146,222.144,325.465,216.817,325.465z M204.211,293.215
				c0-5.327,4.318-9.645,9.645-9.645h2.766c5.327,0,9.645,4.318,9.645,9.645s-4.318,9.645-9.645,9.645h-2.766
				C208.529,302.859,204.211,298.541,204.211,293.215z M216.817,278.614h-2.759c-5.327,0-9.646-4.318-9.646-9.646
				s4.319-9.646,9.646-9.646h2.759c5.327,0,9.646,4.319,9.646,9.646S222.144,278.614,216.817,278.614z M226.462,241.242
				c0,2.071-1.679,3.75-3.75,3.75h-69.675c-2.071,0-3.75-1.679-3.75-3.75v-69.665c0-2.071,1.679-3.75,3.75-3.75h69.675
				c2.071,0,3.75,1.679,3.75,3.75V241.242z"/>
		</g>
	</g>
	<g id="buttonShadow">
		<g>
			<path class="st3" d="M192.75,305.25c-1.167,0-2.268,0.274-3.253,0.75H192c0,0,6.75,2.249,6.75,9
				c0,7.396-5.909,10.144-6.668,10.466c0.221,0.02,0.443,0.034,0.668,0.034c4.142,0,7.5-4.858,7.5-9v-2.25
				C200.25,310.108,196.892,305.25,192.75,305.25z M165.75,282.75c-1.167,0-2.268,0.274-3.253,0.75H165c0,0,6.75,2.249,6.75,9
				c0,7.396-5.909,10.144-6.668,10.466c0.221,0.02,0.443,0.034,0.668,0.034c4.142,0,7.5-4.858,7.5-9v-2.25
				C173.25,287.608,169.892,282.75,165.75,282.75z M165.75,258.75c-1.167,0-2.268,0.274-3.253,0.75H165c0,0,6.75,2.249,6.75,9
				c0,7.396-5.909,10.144-6.668,10.466c0.221,0.02,0.443,0.034,0.668,0.034c4.142,0,7.5-4.858,7.5-9v-2.25
				C173.25,263.608,169.892,258.75,165.75,258.75z M165.75,305.25c-1.167,0-2.268,0.274-3.253,0.75H165c0,0,6.75,2.249,6.75,9
				c0,7.396-5.909,10.144-6.668,10.466c0.221,0.02,0.443,0.034,0.668,0.034c4.142,0,7.5-4.858,7.5-9v-2.25
				C173.25,310.108,169.892,305.25,165.75,305.25z M220.5,258.75c-1.167,0-2.268,0.274-3.253,0.75h2.503c0,0,6.75,2.249,6.75,9
				c0,7.396-5.909,10.144-6.668,10.466c0.221,0.02,0.443,0.034,0.668,0.034c4.142,0,7.5-4.858,7.5-9v-2.25
				C228,263.608,224.642,258.75,220.5,258.75z M220.5,282.75c-1.167,0-2.268,0.274-3.253,0.75h2.503c0,0,6.75,2.249,6.75,9
				c0,7.396-5.909,10.144-6.668,10.466c0.221,0.02,0.443,0.034,0.668,0.034c4.142,0,7.5-4.858,7.5-9v-2.25
				C228,287.608,224.642,282.75,220.5,282.75z M192.75,282.75c-1.167,0-2.268,0.274-3.253,0.75H192c0,0,6.75,2.249,6.75,9
				c0,7.396-5.909,10.144-6.668,10.466c0.221,0.02,0.443,0.034,0.668,0.034c4.142,0,7.5-4.858,7.5-9v-2.25
				C200.25,287.608,196.892,282.75,192.75,282.75z M220.5,305.25c-1.167,0-2.268,0.274-3.253,0.75h2.503c0,0,6.75,2.249,6.75,9
				c0,7.396-5.909,10.144-6.668,10.466c0.221,0.02,0.443,0.034,0.668,0.034c4.142,0,7.5-4.858,7.5-9v-2.25
				C228,310.108,224.642,305.25,220.5,305.25z M192.75,258.75c-1.167,0-2.268,0.274-3.253,0.75H192c0,0,6.75,2.249,6.75,9
				c0,7.396-5.909,10.144-6.668,10.466c0.221,0.02,0.443,0.034,0.668,0.034c4.142,0,7.5-4.858,7.5-9v-2.25
				C200.25,263.608,196.892,258.75,192.75,258.75z"/>
		</g>
	</g>
	<g id="screen">
		<g>
			<path class="st2" d="M153,243.5c-0.689,0-1.25-0.561-1.25-1.25V171c0-0.689,0.561-1.25,1.25-1.25h71.25
				c0.689,0,1.25,0.561,1.25,1.25v71.25c0,0.689-0.561,1.25-1.25,1.25H153z"/>
		</g>
		<g>
			<path class="st3" d="M223,172.25V241h-68.75v-68.75H223 M224.25,167.25H153c-2.071,0-3.75,1.679-3.75,3.75v71.25
				c0,2.071,1.679,3.75,3.75,3.75h71.25c2.071,0,3.75-1.679,3.75-3.75V171C228,168.929,226.321,167.25,224.25,167.25L224.25,167.25z
				"/>
		</g>
	</g>
	<g id="bubble">
		<g>
			<path class="st2" d="M275.207,160.77c0.318-1.031,0.683-2.219,1.078-3.524c0.86-2.84-0.297-6.133-1.42-8.396l-0.665-1.342
				l-1.497-0.046c-26.405-0.816-50.453-18.91-50.453-37.962c0-27.804,25.489-40.25,50.75-40.25c25.635,0,51.5,12.91,51.5,41.75
				c0,12.485-8.038,23.538-22.054,30.326l-0.599,0.29l-0.375,0.549c-0.619,0.905-4.282,5.833-15.686,14.058
				C282.855,158.338,278.443,159.857,275.207,160.77z"/>
		</g>
		<g>
			<path class="st1" d="M273,71.75c24.39,0,49,12.136,49,39.25c0,11.489-7.524,21.722-20.643,28.076l-1.196,0.579l-0.751,1.097
				c-0.354,0.518-3.787,5.293-15.085,13.442c-1.444,1.042-3.393,1.958-5.396,2.722c0.588-3.318-0.628-6.768-1.824-9.179
				l-1.331-2.682l-2.993-0.092c-11.991-0.371-24.246-4.58-33.624-11.548c-9.29-6.904-14.407-15.397-14.407-23.915
				c0-11.596,4.943-21.283,14.294-28.014C247.768,75.208,259.827,71.75,273,71.75 M273,66.75c-27.338,0-53.25,14.225-53.25,42.75
				c0,21.352,26.173,39.635,52.876,40.46c0.669,1.349,1.938,4.346,1.267,6.56c-1.395,4.604-2.393,7.729-2.393,7.729
				s10.145-1.957,15.75-6c11.522-8.311,15.415-13.4,16.286-14.674C317.36,136.881,327,125.367,327,111
				C327,80.975,300.338,66.75,273,66.75L273,66.75z"/>
		</g>
	</g>
	<g id="New">
		<g>
			<path class="st0" d="M260.679,120.026c-0.448-0.392-0.988-0.732-1.62-1.02c-0.632-0.288-1.34-0.552-2.124-0.792
				c-0.496-0.16-0.94-0.296-1.332-0.408c-0.392-0.112-0.724-0.228-0.996-0.348c-0.272-0.12-0.48-0.252-0.624-0.396
				c-0.144-0.144-0.216-0.328-0.216-0.552c0-0.304,0.124-0.52,0.372-0.648c0.248-0.128,0.58-0.192,0.996-0.192
				c0.512,0,1.036,0.084,1.572,0.252c0.536,0.168,1.02,0.348,1.452,0.54c0.512,0.224,1.008,0.48,1.488,0.768l2.016-3.864
				c-0.384-0.192-0.816-0.396-1.296-0.612c-0.48-0.216-0.996-0.416-1.548-0.6c-0.552-0.184-1.124-0.336-1.716-0.456
				c-0.592-0.12-1.2-0.18-1.824-0.18c-0.848,0-1.652,0.124-2.412,0.372c-0.76,0.248-1.436,0.612-2.028,1.092
				c-0.592,0.48-1.06,1.08-1.404,1.8c-0.344,0.72-0.516,1.552-0.516,2.496c0,0.624,0.084,1.176,0.252,1.656
				c0.168,0.48,0.428,0.908,0.78,1.284c0.352,0.376,0.8,0.712,1.344,1.008c0.544,0.296,1.192,0.572,1.944,0.828
				c0.512,0.176,0.996,0.328,1.452,0.456c0.456,0.128,0.86,0.256,1.212,0.384c0.352,0.128,0.628,0.276,0.828,0.444
				c0.2,0.168,0.3,0.372,0.3,0.612c0,0.224-0.1,0.404-0.3,0.54c-0.2,0.136-0.556,0.204-1.068,0.204c-0.672,0-1.332-0.096-1.98-0.288
				c-0.648-0.192-1.228-0.408-1.74-0.648c-0.608-0.272-1.192-0.584-1.752-0.936l-2.016,4.104c0.512,0.304,1.068,0.576,1.668,0.816
				c0.6,0.24,1.224,0.448,1.872,0.624c0.648,0.176,1.3,0.312,1.956,0.408c0.656,0.096,1.296,0.144,1.92,0.144
				c0.784,0,1.564-0.092,2.34-0.276c0.776-0.184,1.472-0.484,2.088-0.9c0.616-0.416,1.112-0.972,1.488-1.668
				c0.376-0.696,0.564-1.556,0.564-2.58c0-0.8-0.12-1.48-0.36-2.04C261.471,120.894,261.126,120.419,260.679,120.026z
				 M272.918,119.678l-3.672-8.016h-5.112v17.04h4.68v-8.976l2.856,6.312h2.496l2.856-6.312v8.976h4.68v-17.04h-5.088
				L272.918,119.678z M295.982,120.026c-0.448-0.392-0.988-0.732-1.62-1.02c-0.632-0.288-1.34-0.552-2.124-0.792
				c-0.496-0.16-0.94-0.296-1.332-0.408c-0.392-0.112-0.724-0.228-0.996-0.348c-0.272-0.12-0.48-0.252-0.624-0.396
				c-0.144-0.144-0.216-0.328-0.216-0.552c0-0.304,0.124-0.52,0.372-0.648c0.248-0.128,0.58-0.192,0.996-0.192
				c0.512,0,1.036,0.084,1.572,0.252c0.536,0.168,1.02,0.348,1.452,0.54c0.512,0.224,1.008,0.48,1.488,0.768l2.016-3.864
				c-0.384-0.192-0.816-0.396-1.296-0.612c-0.48-0.216-0.996-0.416-1.548-0.6c-0.552-0.184-1.124-0.336-1.716-0.456
				c-0.592-0.12-1.2-0.18-1.824-0.18c-0.848,0-1.652,0.124-2.412,0.372c-0.76,0.248-1.436,0.612-2.028,1.092
				c-0.592,0.48-1.06,1.08-1.404,1.8c-0.344,0.72-0.516,1.552-0.516,2.496c0,0.624,0.084,1.176,0.252,1.656
				c0.168,0.48,0.428,0.908,0.78,1.284c0.352,0.376,0.8,0.712,1.344,1.008c0.544,0.296,1.192,0.572,1.944,0.828
				c0.512,0.176,0.996,0.328,1.452,0.456c0.456,0.128,0.86,0.256,1.212,0.384c0.352,0.128,0.628,0.276,0.828,0.444
				c0.2,0.168,0.3,0.372,0.3,0.612c0,0.224-0.1,0.404-0.3,0.54c-0.2,0.136-0.556,0.204-1.068,0.204c-0.672,0-1.332-0.096-1.98-0.288
				c-0.648-0.192-1.228-0.408-1.74-0.648c-0.608-0.272-1.192-0.584-1.752-0.936l-2.016,4.104c0.512,0.304,1.068,0.576,1.668,0.816
				c0.6,0.24,1.224,0.448,1.872,0.624c0.648,0.176,1.3,0.312,1.956,0.408c0.656,0.096,1.296,0.144,1.92,0.144
				c0.784,0,1.564-0.092,2.34-0.276c0.776-0.184,1.472-0.484,2.088-0.9c0.616-0.416,1.112-0.972,1.488-1.668
				c0.376-0.696,0.564-1.556,0.564-2.58c0-0.8-0.12-1.48-0.36-2.04C296.774,120.894,296.43,120.419,295.982,120.026z
				 M257.984,96.326l-6.84-8.664h-3.648v17.04h4.68v-8.376l6.768,8.376h3.72v-17.04h-4.68V96.326z M266.132,103.022
				c0.584,0.592,1.308,1.06,2.172,1.404s1.848,0.516,2.952,0.516c1.552,0,2.86-0.32,3.924-0.96c1.064-0.64,1.852-1.464,2.364-2.472
				l-3.864-1.104c-0.144,0.4-0.436,0.712-0.876,0.936c-0.44,0.224-0.908,0.336-1.404,0.336c-0.528,0-1.016-0.148-1.464-0.444
				c-0.448-0.296-0.696-0.78-0.744-1.452h8.856c0.032-0.192,0.06-0.412,0.084-0.66c0.024-0.248,0.036-0.492,0.036-0.732
				c0-0.864-0.148-1.692-0.444-2.484c-0.296-0.792-0.736-1.488-1.32-2.088c-0.584-0.6-1.308-1.08-2.172-1.44
				c-0.864-0.36-1.856-0.54-2.976-0.54c-1.136,0-2.132,0.18-2.988,0.54c-0.856,0.36-1.576,0.844-2.16,1.452
				c-0.584,0.608-1.024,1.32-1.32,2.136c-0.296,0.816-0.444,1.68-0.444,2.592c0,0.848,0.152,1.656,0.456,2.424
				C265.104,101.75,265.548,102.431,266.132,103.022z M269.768,95.606c0.368-0.352,0.84-0.528,1.416-0.528
				c0.576,0,1.048,0.176,1.416,0.528c0.368,0.352,0.592,0.832,0.672,1.44h-4.176C269.176,96.438,269.4,95.958,269.768,95.606z
				 M288.512,99.902l1.704,4.8h3.72l5.16-12.624H294.8l-3.048,8.472l-0.792-2.712l2.256-5.76h-3.624l-1.08,3.696l-1.08-3.696h-3.624
				l2.256,5.76l-0.792,2.712l-3.048-8.472h-4.296l5.16,12.624h3.72L288.512,99.902z"/>
		</g>
	</g>
	<g id="mail_2_">
		<g id="mail">
			<g>
				<path class="st4" d="M162.003,191.436v29.396h52.92v-29.396H162.003z M208.5,193.5l-20.25,15l-19.5-15H208.5z M165,193.766
					l16.916,13.155L165,216.687V193.766z M165.82,218.25l17.599-10.159l5.044,3.923l5.109-3.973l17.337,10.21H165.82z
					 M195.087,206.862l16.836-13.093l0.31,23.19L195.087,206.862z"/>
			</g>
		</g>
		<g id="alert">
			<g>
				<circle class="st5" cx="209.625" cy="218.625" r="9.375"/>
			</g>
		</g>
		<g id="_x21_">
			<g>
				<path class="st2" d="M207.874,225.146h3.325v-3.22h-3.325V225.146z M207.874,212.598v7.297h3.325v-7.297H207.874z"/>
			</g>
		</g>
	</g>
</g>
</svg>
