<?xml version="1.0" encoding="utf-8"?>
<!-- Generator: Adobe Illustrator 18.0.0, SVG Export Plug-In . SVG Version: 6.00 Build 0)  -->
<!DOCTYPE svg PUBLIC "-//W3C//DTD SVG 1.1//EN" "http://www.w3.org/Graphics/SVG/1.1/DTD/svg11.dtd">
<svg version="1.1" xmlns="http://www.w3.org/2000/svg" xmlns:xlink="http://www.w3.org/1999/xlink" x="0px" y="0px"
	 viewBox="0 0 375 382.5" style="enable-background:new 0 0 375 382.5;" xml:space="preserve">
<style type="text/css">
	.st0{fill:#C03224;}
	.st1{fill:#F36557;}
	.st2{fill-rule:evenodd;clip-rule:evenodd;fill:#FF7F71;}
	.st3{fill-rule:evenodd;clip-rule:evenodd;fill:#C03224;}
	.st4{fill-rule:evenodd;clip-rule:evenodd;fill:#F36557;}
	.st5{fill-rule:evenodd;clip-rule:evenodd;fill:#A7190B;}
	.st6{fill-rule:evenodd;clip-rule:evenodd;fill:#FF988A;}
	.st7{fill-rule:evenodd;clip-rule:evenodd;fill:#DA4C3E;}
	.st8{fill-rule:evenodd;clip-rule:evenodd;fill:#FFB2A4;}
</style>
<g id="frame_2_">
	<g id="frameShadow">
		<g>
			<path class="st0" d="M187.5,22.5c46.076,0,89.395,17.943,121.976,50.524S360,148.924,360,195s-17.943,89.395-50.524,121.976
				S233.576,367.5,187.5,367.5s-89.395-17.943-121.976-50.524S15,241.076,15,195s17.943-89.395,50.524-121.976
				S141.424,22.5,187.5,22.5 M187.5,7.5C83.947,7.5,0,91.447,0,195s83.947,187.5,187.5,187.5S375,298.553,375,195
				S291.053,7.5,187.5,7.5L187.5,7.5z"/>
		</g>
	</g>
	<g id="frame">
		<g>
			<path class="st1" d="M187.5,15c46.076,0,89.395,17.943,121.976,50.524S360,141.424,360,187.5s-17.943,89.395-50.524,121.976
				S233.576,360,187.5,360s-89.395-17.943-121.976-50.524S15,233.576,15,187.5S32.943,98.105,65.524,65.524S141.424,15,187.5,15
				 M187.5,0C83.947,0,0,83.947,0,187.5S83.947,375,187.5,375S375,291.053,375,187.5S291.053,0,187.5,0L187.5,0z"/>
		</g>
	</g>
</g>
<g id="icon_1_">
	<g id="land">
		<g>
			<rect x="77.25" y="249" class="st2" width="221.25" height="18.75"/>
		</g>
	</g>
	<g id="mountains_1_">
		<g id="backMountainSlope">
			<g>
				<polygon class="st3" points="112.805,183.093 82.5,249 143.25,249 				"/>
			</g>
		</g>
		<g id="backMountainSlopeHighlight">
			<g>
				<polygon class="st4" points="113.25,183 141.75,249 157.5,249 				"/>
			</g>
		</g>
		<g id="backMountainSlopeShadow">
			<g>
				<polygon class="st5" points="68.25,249 84,249 112.5,183 				"/>
			</g>
		</g>
		<g id="backMountainIce">
			<g>
				<path class="st4" d="M117,189.75c-1.612-3.563-3.75-6-3.75-6s-2.783,2.567-4.5,6c-4.549,9.098-11.25,25.5-11.25,25.5l8.25,6.75
					l7.636-6l7.364,6l6.75-6.75C127.5,215.25,121.138,198.897,117,189.75z"/>
			</g>
		</g>
		<g id="backMountainIceHighlight">
			<g>
				<polygon class="st6" points="113.386,183.094 127.559,215.25 139.5,222.188 				"/>
			</g>
		</g>
		<g id="backMountainIceShadow">
			<g>
				<polygon class="st7" points="86.25,222 99,216 112.5,183 				"/>
			</g>
		</g>
		<g id="frontMountainSlope">
			<g>
				<polygon class="st7" points="199.06,144.07 161.25,249 236.25,249 				"/>
			</g>
		</g>
		<g id="frontMountainSlopeShadow">
			<g>
				<polygon class="st3" points="198.75,144 235.5,249 273.75,249 				"/>
			</g>
		</g>
		<g id="frontMountainSlopeHighlight">
			<g>
				<polygon class="st4" points="123.75,249 162.75,249 198.75,144 				"/>
			</g>
		</g>
		<g id="frontMountainIceHighlight">
			<g>
				<polygon class="st6" points="163.5,193.848 184.074,186 198.75,186 198.75,144 				"/>
			</g>
		</g>
		<g id="frontMountainIceShadow">
			<g>
				<polygon class="st7" points="198.75,144 198.75,185.704 205.744,193.151 213.426,185.704 234,193.5 				"/>
			</g>
		</g>
		<g id="frontMountainIce">
			<g>
				<polygon class="st2" points="199.055,144.07 184.5,186 191.25,193.852 198.75,186 205.5,193.5 212.25,186 				"/>
			</g>
		</g>
	</g>
	<g id="photoFrame">
		<g>
			<path class="st1" d="M297.5,107.5v160h-220v-160H297.5 M307.5,97.5h-240v180h240V97.5L307.5,97.5z"/>
		</g>
	</g>
	<g id="sun">
		<g>
			<circle class="st8" cx="150.375" cy="161.625" r="13.125"/>
		</g>
	</g>
</g>
</svg>
