<?xml version="1.0" encoding="utf-8"?>
<!-- Generator: Adobe Illustrator 18.0.0, SVG Export Plug-In . SVG Version: 6.00 Build 0)  -->
<!DOCTYPE svg PUBLIC "-//W3C//DTD SVG 1.1//EN" "http://www.w3.org/Graphics/SVG/1.1/DTD/svg11.dtd">
<svg version="1.1" xmlns="http://www.w3.org/2000/svg" xmlns:xlink="http://www.w3.org/1999/xlink" x="0px" y="0px"
	 viewBox="0 0 375 382.5" style="enable-background:new 0 0 375 382.5;" xml:space="preserve">
<style type="text/css">
	.st0{fill:#C03224;}
	.st1{fill:#F36557;}
	.st2{fill-rule:evenodd;clip-rule:evenodd;fill:#FFFFFF;}
	.st3{fill-rule:evenodd;clip-rule:evenodd;fill:#F36557;}
	.st4{fill:#FF7F71;}
	.st5{fill-rule:evenodd;clip-rule:evenodd;fill:#C03224;}
</style>
<g id="frame_2_">
	<g id="frameShadow">
		<g>
			<path class="st0" d="M187.5,22.5c46.076,0,89.395,17.943,121.976,50.524S360,148.924,360,195s-17.943,89.395-50.524,121.976
				S233.576,367.5,187.5,367.5s-89.395-17.943-121.976-50.524S15,241.076,15,195s17.943-89.395,50.524-121.976
				S141.424,22.5,187.5,22.5 M187.5,7.5C83.947,7.5,0,91.447,0,195s83.947,187.5,187.5,187.5S375,298.553,375,195
				S291.053,7.5,187.5,7.5L187.5,7.5z"/>
		</g>
	</g>
	<g id="frame">
		<g>
			<path class="st1" d="M187.5,15c46.076,0,89.395,17.943,121.976,50.524S360,141.424,360,187.5s-17.943,89.395-50.524,121.976
				S233.576,360,187.5,360s-89.395-17.943-121.976-50.524S15,233.576,15,187.5S32.943,98.105,65.524,65.524S141.424,15,187.5,15
				 M187.5,0C83.947,0,0,83.947,0,187.5S83.947,375,187.5,375S375,291.053,375,187.5S291.053,0,187.5,0L187.5,0z"/>
		</g>
	</g>
</g>
<g id="icon_1_">
	<g id="paper">
		<g>
			<rect x="108.75" y="105" class="st2" width="157.5" height="187.5"/>
		</g>
	</g>
	<g id="clipBoard">
		<g>
			<polygon class="st3" points="225,82.5 225,105 266.25,105 266.25,292.5 108.75,292.5 108.75,105 150,105 150,82.5 93.75,82.5 
				93.75,307.5 281.25,307.5 281.25,82.5 			"/>
		</g>
	</g>
	<g id="clip">
		<g>
			<path class="st0" d="M207.5,83.5v21.25h-40V83.5H207.5 M217.5,73.5h-60v41.25h60V73.5L217.5,73.5z"/>
		</g>
	</g>
	<g id="content_1_">
		<g id="lines">
			<g>
				<path class="st4" d="M212.25,131.25H118.5v15h93.75V131.25L212.25,131.25z M212.25,168.75H118.5v15h93.75V168.75L212.25,168.75z
					 M212.25,206.25H118.5v15h93.75V206.25L212.25,206.25z M212.25,243.75H118.5v15h93.75V243.75L212.25,243.75z"/>
			</g>
		</g>
		<g id="boxes">
			<g>
				<path class="st4" d="M247.75,131v16.25H231.5V131H247.75 M247.75,168.5v16.25H231.5V168.5H247.75 M247.75,206v16.25H231.5V206
					H247.75 M247.75,243.5v16.25H231.5V243.5H247.75 M252.75,126H226.5v26.25h26.25V126L252.75,126z M252.75,163.5H226.5v26.25
					h26.25V163.5L252.75,163.5z M252.75,201H226.5v26.25h26.25V201L252.75,201z M252.75,238.5H226.5v26.25h26.25V238.5L252.75,238.5
					z"/>
			</g>
		</g>
		<g id="ticks">
			<g>
				<path class="st5" d="M231.294,250.524l10.143,10.143l4.057-4.057l-10.143-10.143L231.294,250.524z M245.494,144.11
					l-10.143-10.143l-4.057,4.057l10.143,10.143L245.494,144.11z M255.637,125.853l-14.2,14.2l4.057,4.057l14.2-14.2
					L255.637,125.853z M241.437,177.553l-6.086-6.086l-4.057,4.057l10.143,10.143l4.057-4.057l14.2-14.2l-4.057-4.057
					L241.437,177.553z M241.437,215.053l4.057,4.057l14.2-14.2l-4.057-4.057L241.437,215.053z M241.437,252.553l4.057,4.057
					l14.2-14.2l-4.057-4.057L241.437,252.553z M231.294,213.024l10.143,10.143l4.057-4.057l-10.143-10.143L231.294,213.024z"/>
			</g>
		</g>
	</g>
</g>
</svg>
