<?xml version="1.0" encoding="utf-8"?>
<!-- Generator: Adobe Illustrator 18.0.0, SVG Export Plug-In . SVG Version: 6.00 Build 0)  -->
<!DOCTYPE svg PUBLIC "-//W3C//DTD SVG 1.1//EN" "http://www.w3.org/Graphics/SVG/1.1/DTD/svg11.dtd">
<svg version="1.1" xmlns="http://www.w3.org/2000/svg" xmlns:xlink="http://www.w3.org/1999/xlink" x="0px" y="0px"
	 viewBox="0 0 375 382.5" style="enable-background:new 0 0 375 382.5;" xml:space="preserve">
<style type="text/css">
	.st0{fill:#C03224;}
	.st1{fill:#F36557;}
	.st2{fill-rule:evenodd;clip-rule:evenodd;fill:#F36557;}
	.st3{fill-rule:evenodd;clip-rule:evenodd;fill:#FFFFFF;}
	.st4{fill-rule:evenodd;clip-rule:evenodd;fill:#C03224;}
	.st5{fill:#DA4C3E;}
</style>
<g id="frame_2_">
	<g id="frameShadow">
		<g>
			<path class="st0" d="M187.5,22.5c46.076,0,89.395,17.943,121.976,50.524S360,148.924,360,195s-17.943,89.395-50.524,121.976
				S233.576,367.5,187.5,367.5s-89.395-17.943-121.976-50.524S15,241.076,15,195s17.943-89.395,50.524-121.976
				S141.424,22.5,187.5,22.5 M187.5,7.5C83.947,7.5,0,91.447,0,195s83.947,187.5,187.5,187.5S375,298.553,375,195
				S291.053,7.5,187.5,7.5L187.5,7.5z"/>
		</g>
	</g>
	<g id="frame">
		<g>
			<path class="st1" d="M187.5,15c46.076,0,89.395,17.943,121.976,50.524S360,141.424,360,187.5s-17.943,89.395-50.524,121.976
				S233.576,360,187.5,360s-89.395-17.943-121.976-50.524S15,233.576,15,187.5S32.943,98.105,65.524,65.524S141.424,15,187.5,15
				 M187.5,0C83.947,0,0,83.947,0,187.5S83.947,375,187.5,375S375,291.053,375,187.5S291.053,0,187.5,0L187.5,0z"/>
		</g>
	</g>
</g>
<g id="icon_1_">
	<g id="paper">
		<g>
			<rect x="86.25" y="63.75" class="st2" width="202.5" height="247.5"/>
		</g>
	</g>
	<g id="content_1_">
		<g id="lines">
			<g>
				<path class="st3" d="M112.5,226.5h150V219h-150V226.5z M112.5,252h150v-7.5h-150V252z M112.5,201.75h150v-7.5h-150V201.75z
					 M112.5,126h150v-7.5h-150V126z M112.5,176.25h150v-7.5h-150V176.25z M112.5,93v7.5h150V93H112.5z M112.5,150.75h150v-7.5h-150
					V150.75z"/>
			</g>
		</g>
		<g id="ribbon_1_">
			<g id="Shape_2">
				<g>
					<polygon class="st4" points="241.917,296.794 241.917,329.194 252.717,318.394 263.517,329.194 263.517,296.794 					"/>
				</g>
			</g>
			<g id="Polygon_1">
				<g>
					<path class="st3" d="M253.033,298.653c-2.507-2.475-5.473-3.725-8.852-3.725c-0.733,0-1.486,0.062-2.257,0.184
						c-0.691-4.189-3.02-7.322-6.87-9.242c1.924-3.759,1.903-7.613-0.059-11.371c3.815-1.918,6.104-5.041,6.754-9.217
						c0.767,0.121,1.516,0.182,2.244,0.182c3.376,0,6.328-1.248,8.808-3.718c2.508,2.475,5.474,3.726,8.853,3.726
						c0.733,0,1.486-0.062,2.256-0.184c0.692,4.189,3.021,7.322,6.871,9.241c-1.924,3.76-1.903,7.613,0.059,11.372
						c-3.814,1.917-6.104,5.041-6.755,9.216c-0.766-0.121-1.516-0.182-2.244-0.182C258.465,294.936,255.514,296.184,253.033,298.653
						z"/>
				</g>
				<g>
					<path class="st5" d="M252.808,265.034c3.145,2.339,6.37,2.938,8.846,2.938c0.109,0,0.219-0.001,0.329-0.003
						c0.99,3.149,2.898,5.719,5.643,7.602c-1.053,3.082-1.038,6.227,0.046,9.307c-2.705,1.878-4.575,4.433-5.534,7.56
						c-0.099-0.002-0.198-0.003-0.297-0.003c-2.475,0-5.692,0.597-8.813,2.931c-3.145-2.339-6.37-2.938-8.846-2.938
						c-0.109,0-0.219,0.001-0.329,0.003c-0.99-3.149-2.898-5.719-5.643-7.602c1.053-3.082,1.038-6.227-0.046-9.308
						c2.705-1.878,4.576-4.433,5.534-7.56c0.099,0.002,0.198,0.003,0.297,0.003C246.47,267.964,249.687,267.367,252.808,265.034
						 M252.79,257.858c-2.359,3.404-5.291,5.106-8.796,5.106c-1.426,0-2.946-0.282-4.562-0.845c0.196,5.805-2.54,9.528-8.207,11.167
						c3.635,4.604,3.661,9.207,0.079,13.808c5.686,1.644,8.464,5.369,8.334,11.174c1.605-0.561,3.12-0.841,4.543-0.841
						c3.509,0,6.463,1.704,8.863,5.114c2.359-3.404,5.291-5.106,8.796-5.106c1.426,0,2.946,0.282,4.562,0.845
						c-0.196-5.805,2.54-9.528,8.207-11.168c-3.635-4.604-3.661-9.207-0.079-13.808c-5.686-1.644-8.464-5.369-8.334-11.174
						c-1.606,0.561-3.12,0.841-4.543,0.841C258.144,262.972,255.19,261.267,252.79,257.858L252.79,257.858z"/>
				</g>
			</g>
		</g>
	</g>
</g>
</svg>
