<?xml version="1.0" encoding="utf-8"?>
<!-- Generator: Adobe Illustrator 18.0.0, SVG Export Plug-In . SVG Version: 6.00 Build 0)  -->
<!DOCTYPE svg PUBLIC "-//W3C//DTD SVG 1.1//EN" "http://www.w3.org/Graphics/SVG/1.1/DTD/svg11.dtd">
<svg version="1.1" xmlns="http://www.w3.org/2000/svg" xmlns:xlink="http://www.w3.org/1999/xlink" x="0px" y="0px"
	 viewBox="0 0 375 375" style="enable-background:new 0 0 375 375;" xml:space="preserve">
<style type="text/css">
	.st0{enable-background:new    ;}
	.st1{fill-rule:evenodd;clip-rule:evenodd;fill:#ECECEC;}
	.st2{fill-rule:evenodd;clip-rule:evenodd;fill:#FFFFFF;}
	.st3{fill-rule:evenodd;clip-rule:evenodd;fill:#535353;}
	.st4{fill-rule:evenodd;clip-rule:evenodd;fill:#4E80E6;}
	.st5{fill-rule:evenodd;clip-rule:evenodd;fill:#E6FFFF;}
	.st6{fill:#6799FF;}
</style>
<g id="frame_1_" class="st0">
	<g id="frame">
		<g>
			<circle class="st1" cx="187.5" cy="187.5" r="187.5"/>
		</g>
	</g>
</g>
<g id="icon_1_">
	<g id="paper">
		<g>
			<rect x="86.25" y="54.75" class="st2" width="202.5" height="247.5"/>
		</g>
	</g>
	<g id="content_1_">
		<g id="lines">
			<g>
				<path class="st3" d="M112.5,192.75h150v-7.5h-150V192.75z M112.5,243h150v-7.5h-150V243z M112.5,167.25h150v-7.5h-150V167.25z
					 M112.5,217.5h150V210h-150V217.5z M112.5,141.75h150v-7.5h-150V141.75z M112.5,84v7.5h150V84H112.5z M112.5,117h150v-7.5h-150
					V117z"/>
			</g>
		</g>
		<g id="ribbon_2_">
			<g id="ribbon">
				<g>
					<polygon class="st4" points="241.917,287.794 241.917,320.194 252.717,309.394 263.517,320.194 263.517,287.794 					"/>
				</g>
			</g>
			<g id="starburst">
				<g>
					<path class="st5" d="M253.033,289.653c-2.507-2.475-5.473-3.725-8.852-3.725c-0.733,0-1.486,0.062-2.257,0.184
						c-0.691-4.189-3.02-7.322-6.87-9.242c1.924-3.759,1.903-7.613-0.059-11.371c3.815-1.918,6.104-5.041,6.754-9.217
						c0.767,0.121,1.516,0.182,2.244,0.182c3.376,0,6.328-1.248,8.808-3.718c2.508,2.475,5.474,3.726,8.853,3.726
						c0.733,0,1.486-0.062,2.256-0.184c0.692,4.189,3.021,7.322,6.871,9.241c-1.924,3.76-1.903,7.613,0.059,11.372
						c-3.814,1.917-6.104,5.041-6.755,9.216c-0.766-0.121-1.516-0.182-2.244-0.182C258.465,285.936,255.514,287.184,253.033,289.653
						z"/>
				</g>
				<g>
					<path class="st6" d="M252.808,256.033c3.145,2.339,6.37,2.938,8.846,2.938c0.109,0,0.219-0.001,0.329-0.003
						c0.99,3.149,2.898,5.719,5.643,7.602c-1.053,3.082-1.038,6.227,0.046,9.307c-2.705,1.878-4.575,4.433-5.534,7.56
						c-0.099-0.002-0.198-0.003-0.297-0.003c-2.475,0-5.692,0.597-8.813,2.931c-3.145-2.339-6.37-2.938-8.846-2.938
						c-0.109,0-0.219,0.001-0.329,0.003c-0.99-3.149-2.898-5.719-5.643-7.602c1.053-3.082,1.038-6.227-0.046-9.307
						c2.705-1.878,4.575-4.433,5.534-7.56c0.099,0.002,0.198,0.003,0.297,0.003C246.47,258.964,249.687,258.367,252.808,256.033
						 M252.79,248.858c-2.359,3.404-5.291,5.106-8.796,5.106c-1.426,0-2.946-0.282-4.562-0.845c0.196,5.805-2.54,9.528-8.207,11.168
						c3.635,4.604,3.661,9.207,0.079,13.808c5.686,1.644,8.464,5.369,8.334,11.174c1.605-0.561,3.12-0.841,4.543-0.841
						c3.509,0,6.463,1.704,8.863,5.114c2.359-3.404,5.291-5.106,8.796-5.106c1.426,0,2.946,0.282,4.562,0.845
						c-0.196-5.805,2.54-9.528,8.207-11.168c-3.635-4.604-3.661-9.207-0.079-13.808c-5.686-1.644-8.464-5.369-8.334-11.174
						c-1.606,0.561-3.12,0.841-4.543,0.841C258.144,253.972,255.19,252.267,252.79,248.858L252.79,248.858z"/>
				</g>
			</g>
		</g>
	</g>
</g>
</svg>
