<?xml version="1.0" encoding="utf-8"?>
<!-- Generator: Adobe Illustrator 18.0.0, SVG Export Plug-In . SVG Version: 6.00 Build 0)  -->
<svg version="1.2" baseProfile="tiny" xmlns="http://www.w3.org/2000/svg" xmlns:xlink="http://www.w3.org/1999/xlink" x="0px"
	 y="0px" viewBox="0 0 375 375" xml:space="preserve">
<g id="frame_1_">
	<g id="frame">
		<circle fill-rule="evenodd" fill="#ECECEC" cx="187.5" cy="187.5" r="187.5"/>
	</g>
</g>
<g id="icon_1_">
	<g id="hand3">
		<path fill-rule="evenodd" fill="#C03224" d="M313.963,245.467c-2.809-1.801-5.222,4.076-8.496,9.073
			c-3.643,5.56-4.248,5.444-4.248,5.444c0.529-1.586,5.808-17.926,8.799-26.613c1.478-4.292-3.738-3.122-5.461-1.512
			c-3.336,3.116-2.764,5.504-6.068,12.097c-3.055,6.096-6.068,14.819-6.068,14.819s6.748-33.25,6.979-30.545
			c-0.229-2.687-2.14-3.674-3.944-3.327c-5.406,1.041-6.716,9.113-8.192,16.331c-1.931,9.448-4.855,16.028-4.855,16.028
			s-1.514-17.287-2.124-26.008c-0.381-5.45-2.755-6.703-5.461-3.327c-2.645,3.301-1.196,4.528-1.517,20.867
			c-0.551,28.01-4.98,26.351-8.799,27.521c-3.23,0.989-5.167,0.528-13.35-5.746c-3.757-2.881-7.764-1.937-9.709-1.21
			c-2.549,0.953-1.214,4.234-1.214,4.234l20.329,13.609c0,0,5.16,5.219,9.406,9.073c9.169,8.323,7.317,2.161,6.372,14.516
			c-0.442,5.772-7.09,45.46-7.09,45.46c-0.003,0.009,7.96-4.132,15-8.25c5.343-3.125,9.084-6.021,9-6l0.688-39.375
			c0,0,3.285-2.971,6.675-12.097c3.475-9.354,2.435-7.681,3.944-17.238c0.909-5.754,6.491-15.527,8.799-22.379
			C315.082,245.787,315.428,246.406,313.963,245.467z"/>
	</g>
	<g id="hand2">
		<path fill-rule="evenodd" fill="#DA4C3E" d="M174.12,210.064c-4.214-2.69-7.832,6.087-12.743,13.551
			c-5.465,8.305-6.372,8.131-6.372,8.131c0.793-2.369,8.712-26.774,13.198-39.749c2.216-6.41-5.607-4.663-8.192-2.258
			c-5.004,4.654-4.145,8.221-9.102,18.068c-4.583,9.104-9.102,22.133-9.102,22.133s10.122-49.662,10.468-45.621
			c-0.343-4.013-3.21-5.488-5.917-4.969c-8.109,1.555-10.075,13.611-12.288,24.392c-2.897,14.111-7.282,23.94-7.282,23.94
			s-2.272-25.82-3.186-38.846c-0.571-8.141-4.133-10.012-8.192-4.969c-3.968,4.93-1.794,6.762-2.276,31.167
			c-0.826,41.835-7.47,39.357-13.198,41.104c-4.845,1.478-7.751,0.789-20.025-8.582c-5.636-4.303-11.647-2.893-14.564-1.807
			c-3.824,1.423-1.82,6.324-1.82,6.324l30.493,20.326c0,0,7.74,7.795,14.109,13.551c13.753,12.431,10.975,3.228,9.557,21.681
			c-0.662,8.621-7.435,50.869-7.435,50.869s6.887,2.834,15,6c7.208,2.813,15.75,4.5,15.75,4.5l3.082-73.565
			c0,0,4.927-4.438,10.013-18.068c5.213-13.971,3.652-11.472,5.917-25.747c1.364-8.595,9.737-23.19,13.198-33.426
			C175.798,210.542,176.318,211.467,174.12,210.064z"/>
	</g>
	<g id="hand1">
		<path fill-rule="evenodd" fill="#F36557" d="M278.25,135.75c-6.944-4.467-12.907,10.107-21,22.5
			c-9.005,13.789-10.5,13.5-10.5,13.5c1.307-3.933,14.357-44.456,21.75-66c3.652-10.644-9.24-7.742-13.5-3.75
			c-8.246,7.728-6.831,13.65-15,30c-7.553,15.117-15,36.75-15,36.75S241.681,86.291,242.25,93c-0.566-6.664-5.289-9.112-9.75-8.25
			c-13.364,2.582-16.602,22.599-20.25,40.5c-4.774,23.429-12,39.75-12,39.75s-3.743-42.872-5.25-64.5
			c-0.942-13.517-6.811-16.624-13.5-8.25c-6.538,8.186-2.956,11.228-3.75,51.75c-1.361,69.463-12.31,65.349-21.75,68.25
			c-7.984,2.454-12.773,1.31-33-14.25c-9.287-7.144-19.193-4.803-24-3c-6.302,2.363-3,10.5-3,10.5l50.25,33.75
			c0,0,12.755,12.942,23.25,22.5c22.663,20.64,18.087,5.36,15.75,36c-1.092,14.314-14.25,76.5-14.25,76.5s11.415,1.661,30,0
			c12.829-1.147,27-3.75,27-3.75l0.75-93c0,0,8.119-7.369,16.5-30c8.591-23.198,6.018-19.049,9.75-42.75
			c2.247-14.271,16.046-38.506,21.75-55.5C281.015,136.544,281.871,138.079,278.25,135.75z"/>
	</g>
</g>
</svg>
