<?xml version="1.0" encoding="utf-8"?>
<!-- Generator: Adobe Illustrator 18.0.0, SVG Export Plug-In . SVG Version: 6.00 Build 0)  -->
<svg version="1.2" baseProfile="tiny" xmlns="http://www.w3.org/2000/svg" xmlns:xlink="http://www.w3.org/1999/xlink" x="0px"
	 y="0px" viewBox="0 0 375 375" xml:space="preserve">
<g id="frame_2_">
	<g id="frame">
		<circle fill-rule="evenodd" fill="#ECECEC" cx="187.5" cy="187.5" r="187.5"/>
	</g>
</g>
<g id="icon_1_">
	<g id="frame_1_">
		<g>
			<rect x="67" y="86.125" fill-rule="evenodd" fill="#FFFFFF" width="241" height="203.5"/>
		</g>
		<g>
			<path fill="#535353" d="M305.5,88.625v198.5h-236v-198.5H305.5 M310.5,83.625h-246v208.5h246V83.625L310.5,83.625z"/>
		</g>
	</g>
	<g id="grid">
		<g>
			<path fill="#FFE4D6" d="M263.531,285.75V246h-35.789v39.75h-1.477V246h-35.789v39.75H189V246h-35.789v39.75h-1.477V246h-37.289
				v39.75h-1.453V246H71.25v-1.5h41.742V207H71.25v-1.5h41.742V171H71.25v-1.5h41.742v-36H71.25V132h41.742V90h1.453v42h37.289V90
				h1.477v42H189V90h1.477v42h35.789V90h1.477v42h35.789V90h1.477v42h38.742v1.5h-38.742v36h38.742v1.5h-38.742v34.5h38.742v1.5
				h-38.742v37.5h38.742v1.5h-38.742v39.75H263.531z M227.742,244.5h35.789V207h-35.789V244.5z M190.477,244.5h35.789V207h-35.789
				V244.5z M153.211,244.5H189V207h-35.789V244.5z M114.445,244.5h37.289V207h-37.289V244.5z M227.742,205.5h35.789V171h-35.789
				V205.5z M190.477,205.5h35.789V171h-35.789V205.5z M153.211,205.5H189V171h-35.789V205.5z M114.445,205.5h37.289V171h-37.289
				V205.5z M227.742,169.5h35.789v-36h-35.789V169.5z M190.477,169.5h35.789v-36h-35.789V169.5z M153.211,169.5H189v-36h-35.789
				V169.5z M114.445,169.5h37.289v-36h-37.289V169.5z"/>
		</g>
		<g>
			<path fill="#ECECEC" d="M266.508,88.5h-4.477v42h-32.789v-42h-4.477v42h-32.789v-42H187.5v42h-32.789v-42h-4.477v42h-34.289v-42
				h-4.453v42H69.75v4.5h41.742v33H69.75v4.5h41.742V204H69.75v4.5h41.742V243H69.75v4.5h41.742v39.75h4.453V247.5h34.289v39.75
				h4.477V247.5H187.5v39.75h4.477V247.5h32.789v39.75h4.477V247.5h32.789v39.75h4.477V247.5h38.742V243h-38.742v-34.5h38.742V204
				h-38.742v-31.5h38.742V168h-38.742v-33h38.742v-4.5h-38.742V88.5L266.508,88.5z M229.242,168v-33h32.789v33H229.242L229.242,168z
				 M191.977,168v-33h32.789v33H191.977L191.977,168z M154.711,168v-33H187.5v33H154.711L154.711,168z M115.945,168v-33h34.289v33
				H115.945L115.945,168z M229.242,204v-31.5h32.789V204H229.242L229.242,204z M191.977,204v-31.5h32.789V204H191.977L191.977,204z
				 M154.711,204v-31.5H187.5V204H154.711L154.711,204z M115.945,204v-31.5h34.289V204H115.945L115.945,204z M229.242,243v-34.5
				h32.789V243H229.242L229.242,243z M191.977,243v-34.5h32.789V243H191.977L191.977,243z M154.711,243v-34.5H187.5V243H154.711
				L154.711,243z M115.945,243v-34.5h34.289V243H115.945L115.945,243z"/>
		</g>
	</g>
	<g id="lineChart">
		<polygon fill-rule="evenodd" fill="#5EBB35" points="286.38,98.188 241.96,175.125 198,175.125 198,175.619 197.816,175.436 
			155.896,217.356 113.836,206.087 113.719,206.523 113.505,206.399 76.005,271.351 88.995,278.851 120.941,223.519 
			160.664,234.163 160.797,233.668 204.34,190.125 250.5,190.125 250.5,190.056 250.62,190.125 299.37,105.688 		"/>
	</g>
</g>
</svg>
