<?xml version="1.0" encoding="utf-8"?>
<!-- Generator: Adobe Illustrator 18.0.0, SVG Export Plug-In . SVG Version: 6.00 Build 0)  -->
<svg version="1.2" baseProfile="tiny" xmlns="http://www.w3.org/2000/svg" xmlns:xlink="http://www.w3.org/1999/xlink" x="0px"
	 y="0px" viewBox="0 0 375 375" xml:space="preserve">
<g id="frame_1_">
	<g id="frame">
		<circle fill-rule="evenodd" fill="#ECECEC" cx="187.5" cy="187.5" r="187.5"/>
	</g>
</g>
<g id="icon_1_">
	<g id="buttons">
		<rect x="149.25" y="242.25" fill-rule="evenodd" fill="#FFFFFF" width="78" height="66.75"/>
	</g>
	<g id="phone">
		<path fill="#343434" d="M235.5,132.586h-3.963c0.284-0.792,0.447-1.642,0.447-2.531V123c0-4.142-3.358-7.5-7.5-7.5h-7.055
			c-4.142,0-7.5,3.358-7.5,7.5v7.055c0,0.89,0.163,1.739,0.447,2.531H140.25c-4.142,0-7.5,3.358-7.5,7.5V318
			c0,4.142,3.358,7.5,7.5,7.5h95.25c4.142,0,7.5-3.358,7.5-7.5V140.086C243,135.944,239.642,132.586,235.5,132.586z
			 M149.297,252.458c0-5.327,4.318-9.646,9.646-9.646h2.74c5.327,0,9.646,4.318,9.646,9.646v0.021c0,5.327-4.319,9.646-9.646,9.646
			h-2.74c-5.327,0-9.646-4.319-9.646-9.646V252.458z M161.684,308.953h-2.742c-5.327,0-9.645-4.318-9.645-9.645
			s4.318-9.645,9.645-9.645h2.742c5.327,0,9.645,4.318,9.645,9.645S167.01,308.953,161.684,308.953z M161.895,285.82h-2.766
			c-5.327,0-9.645-4.318-9.645-9.645s4.318-9.645,9.645-9.645h2.766c5.327,0,9.645,4.318,9.645,9.645S167.221,285.82,161.895,285.82
			z M189.246,308.953h-2.742c-5.327,0-9.645-4.318-9.645-9.645s4.318-9.645,9.645-9.645h2.742c5.327,0,9.645,4.318,9.645,9.645
			S194.573,308.953,189.246,308.953z M189.246,285.82h-2.742c-5.327,0-9.645-4.318-9.645-9.645s4.318-9.645,9.645-9.645h2.742
			c5.327,0,9.645,4.318,9.645,9.645S194.573,285.82,189.246,285.82z M198.891,252.479c0,5.327-4.319,9.646-9.646,9.646h-2.74
			c-5.327,0-9.646-4.319-9.646-9.646v-0.021c0-5.327,4.318-9.646,9.646-9.646h2.74c5.327,0,9.646,4.318,9.646,9.646V252.479z
			 M216.809,308.953h-2.742c-5.327,0-9.645-4.318-9.645-9.645s4.318-9.645,9.645-9.645h2.742c5.327,0,9.645,4.318,9.645,9.645
			S222.135,308.953,216.809,308.953z M204.211,276.715c0-5.327,4.318-9.645,9.645-9.645h2.766c5.327,0,9.645,4.318,9.645,9.645
			s-4.318,9.645-9.645,9.645h-2.766C208.529,286.359,204.211,282.041,204.211,276.715z M226.453,252.479
			c0,5.327-4.319,9.646-9.646,9.646h-2.74c-5.327,0-9.646-4.319-9.646-9.646v-0.021c0-5.327,4.318-9.646,9.646-9.646h2.74
			c5.327,0,9.646,4.318,9.646,9.646V252.479z M226.453,224.742c0,2.071-1.679,3.75-3.75,3.75h-69.656c-2.071,0-3.75-1.679-3.75-3.75
			v-69.656c0-2.071,1.679-3.75,3.75-3.75h69.656c2.071,0,3.75,1.679,3.75,3.75V224.742z"/>
	</g>
	<g id="buttonShadow">
		<path fill="#6D6D6D" d="M165.75,242.25c-1.167,0-2.268,0.274-3.253,0.75H165c0,0,6.75,2.249,6.75,9
			c0,7.396-5.909,10.144-6.668,10.466c0.221,0.02,0.443,0.034,0.668,0.034c4.142,0,7.5-4.858,7.5-9v-2.25
			C173.25,247.108,169.892,242.25,165.75,242.25z M192.75,288.75c-1.167,0-2.268,0.274-3.253,0.75H192c0,0,6.75,2.249,6.75,9
			c0,7.396-5.909,10.144-6.668,10.466c0.221,0.02,0.443,0.034,0.668,0.034c4.142,0,7.5-4.858,7.5-9v-2.25
			C200.25,293.608,196.892,288.75,192.75,288.75z M165.75,266.25c-1.167,0-2.268,0.274-3.253,0.75H165c0,0,6.75,2.249,6.75,9
			c0,7.396-5.909,10.144-6.668,10.466c0.221,0.02,0.443,0.034,0.668,0.034c4.142,0,7.5-4.858,7.5-9v-2.25
			C173.25,271.108,169.892,266.25,165.75,266.25z M165.75,288.75c-1.167,0-2.268,0.274-3.253,0.75H165c0,0,6.75,2.249,6.75,9
			c0,7.396-5.909,10.144-6.668,10.466c0.221,0.02,0.443,0.034,0.668,0.034c4.142,0,7.5-4.858,7.5-9v-2.25
			C173.25,293.608,169.892,288.75,165.75,288.75z M220.5,242.25c-1.167,0-2.268,0.274-3.253,0.75h2.503c0,0,6.75,2.249,6.75,9
			c0,7.396-5.909,10.144-6.668,10.466c0.221,0.02,0.443,0.034,0.668,0.034c4.142,0,7.5-4.858,7.5-9v-2.25
			C228,247.108,224.642,242.25,220.5,242.25z M220.5,266.25c-1.167,0-2.268,0.274-3.253,0.75h2.503c0,0,6.75,2.249,6.75,9
			c0,7.396-5.909,10.144-6.668,10.466c0.221,0.02,0.443,0.034,0.668,0.034c4.142,0,7.5-4.858,7.5-9v-2.25
			C228,271.108,224.642,266.25,220.5,266.25z M220.5,288.75c-1.167,0-2.268,0.274-3.253,0.75h2.503c0,0,6.75,2.249,6.75,9
			c0,7.396-5.909,10.144-6.668,10.466c0.221,0.02,0.443,0.034,0.668,0.034c4.142,0,7.5-4.858,7.5-9v-2.25
			C228,293.608,224.642,288.75,220.5,288.75z M192.75,266.25c-1.167,0-2.268,0.274-3.253,0.75H192c0,0,6.75,2.249,6.75,9
			c0,7.396-5.909,10.144-6.668,10.466c0.221,0.02,0.443,0.034,0.668,0.034c4.142,0,7.5-4.858,7.5-9v-2.25
			C200.25,271.108,196.892,266.25,192.75,266.25z M192.75,242.25c-1.167,0-2.268,0.274-3.253,0.75H192c0,0,6.75,2.249,6.75,9
			c0,7.396-5.909,10.144-6.668,10.466c0.221,0.02,0.443,0.034,0.668,0.034c4.142,0,7.5-4.858,7.5-9v-2.25
			C200.25,247.108,196.892,242.25,192.75,242.25z"/>
	</g>
	<g id="screen">
		<g>
			<path fill-rule="evenodd" fill="#FFFFFF" d="M153,227c-0.689,0-1.25-0.561-1.25-1.25V154.5c0-0.689,0.561-1.25,1.25-1.25h71.25
				c0.689,0,1.25,0.561,1.25,1.25v71.25c0,0.689-0.561,1.25-1.25,1.25H153z"/>
		</g>
		<g>
			<path fill="#202020" d="M223,155.75v68.75h-68.75v-68.75H223 M224.25,150.75H153c-2.071,0-3.75,1.679-3.75,3.75v71.25
				c0,2.071,1.679,3.75,3.75,3.75h71.25c2.071,0,3.75-1.679,3.75-3.75V154.5C228,152.429,226.321,150.75,224.25,150.75
				L224.25,150.75z"/>
		</g>
	</g>
	<g id="bubble">
		<path fill-rule="evenodd" fill="#FFFFFF" d="M273,50.25c-27.338,0-53.25,14.225-53.25,42.75c0,21.352,26.174,39.635,52.876,40.46
			c0.669,1.349,1.937,4.346,1.267,6.56c-1.395,4.604-2.393,7.729-2.393,7.729s10.145-1.957,15.75-6
			c11.522-8.311,15.415-13.4,16.286-14.674C317.36,120.381,327,108.867,327,94.5C327,64.475,300.338,50.25,273,50.25z"/>
	</g>
	<g id="New">
		<path fill="#C03224" d="M260.679,103.526c-0.448-0.392-0.988-0.732-1.62-1.02c-0.632-0.288-1.34-0.552-2.124-0.792
			c-0.496-0.16-0.94-0.296-1.332-0.408c-0.392-0.112-0.724-0.228-0.996-0.348c-0.272-0.12-0.48-0.252-0.624-0.396
			s-0.216-0.328-0.216-0.552c0-0.304,0.124-0.52,0.372-0.648c0.248-0.128,0.58-0.192,0.996-0.192c0.512,0,1.036,0.084,1.572,0.252
			c0.536,0.168,1.02,0.348,1.452,0.54c0.512,0.224,1.008,0.48,1.488,0.768l2.016-3.864c-0.384-0.192-0.816-0.396-1.296-0.612
			c-0.48-0.216-0.996-0.416-1.548-0.6c-0.552-0.184-1.124-0.336-1.716-0.456c-0.592-0.12-1.2-0.18-1.824-0.18
			c-0.848,0-1.652,0.124-2.412,0.372c-0.76,0.248-1.436,0.612-2.028,1.092c-0.592,0.48-1.06,1.08-1.404,1.8
			c-0.344,0.72-0.516,1.552-0.516,2.496c0,0.624,0.084,1.176,0.252,1.656c0.168,0.48,0.428,0.908,0.78,1.284
			c0.352,0.376,0.8,0.712,1.344,1.008c0.544,0.296,1.192,0.572,1.944,0.828c0.512,0.176,0.996,0.328,1.452,0.456
			c0.456,0.128,0.86,0.256,1.212,0.384c0.352,0.128,0.628,0.276,0.828,0.444c0.2,0.168,0.3,0.372,0.3,0.612
			c0,0.224-0.1,0.404-0.3,0.54c-0.2,0.136-0.556,0.204-1.068,0.204c-0.672,0-1.332-0.096-1.98-0.288
			c-0.648-0.192-1.228-0.408-1.74-0.648c-0.608-0.272-1.192-0.584-1.752-0.936l-2.016,4.104c0.512,0.304,1.068,0.576,1.668,0.816
			c0.6,0.24,1.224,0.448,1.872,0.624c0.648,0.176,1.3,0.312,1.956,0.408c0.656,0.096,1.296,0.144,1.92,0.144
			c0.784,0,1.564-0.092,2.34-0.276c0.776-0.184,1.472-0.484,2.088-0.9c0.616-0.416,1.112-0.972,1.488-1.668
			c0.376-0.696,0.564-1.556,0.564-2.58c0-0.8-0.12-1.48-0.36-2.04C261.471,104.394,261.126,103.919,260.679,103.526z
			 M272.918,103.178l-3.672-8.016h-5.112v17.04h4.68v-8.976l2.856,6.312h2.496l2.856-6.312v8.976h4.68v-17.04h-5.088
			L272.918,103.178z M295.982,103.526c-0.448-0.392-0.988-0.732-1.62-1.02c-0.632-0.288-1.34-0.552-2.124-0.792
			c-0.496-0.16-0.94-0.296-1.332-0.408c-0.392-0.112-0.724-0.228-0.996-0.348c-0.272-0.12-0.48-0.252-0.624-0.396
			s-0.216-0.328-0.216-0.552c0-0.304,0.124-0.52,0.372-0.648c0.248-0.128,0.58-0.192,0.996-0.192c0.512,0,1.036,0.084,1.572,0.252
			c0.536,0.168,1.02,0.348,1.452,0.54c0.512,0.224,1.008,0.48,1.488,0.768l2.016-3.864c-0.384-0.192-0.816-0.396-1.296-0.612
			c-0.48-0.216-0.996-0.416-1.548-0.6c-0.552-0.184-1.124-0.336-1.716-0.456c-0.592-0.12-1.2-0.18-1.824-0.18
			c-0.848,0-1.652,0.124-2.412,0.372c-0.76,0.248-1.436,0.612-2.028,1.092c-0.592,0.48-1.06,1.08-1.404,1.8
			c-0.344,0.72-0.516,1.552-0.516,2.496c0,0.624,0.084,1.176,0.252,1.656c0.168,0.48,0.428,0.908,0.78,1.284
			c0.352,0.376,0.8,0.712,1.344,1.008c0.544,0.296,1.192,0.572,1.944,0.828c0.512,0.176,0.996,0.328,1.452,0.456
			c0.456,0.128,0.86,0.256,1.212,0.384c0.352,0.128,0.628,0.276,0.828,0.444c0.2,0.168,0.3,0.372,0.3,0.612
			c0,0.224-0.1,0.404-0.3,0.54c-0.2,0.136-0.556,0.204-1.068,0.204c-0.672,0-1.332-0.096-1.98-0.288
			c-0.648-0.192-1.228-0.408-1.74-0.648c-0.608-0.272-1.192-0.584-1.752-0.936l-2.016,4.104c0.512,0.304,1.068,0.576,1.668,0.816
			c0.6,0.24,1.224,0.448,1.872,0.624c0.648,0.176,1.3,0.312,1.956,0.408c0.656,0.096,1.296,0.144,1.92,0.144
			c0.784,0,1.564-0.092,2.34-0.276c0.776-0.184,1.472-0.484,2.088-0.9c0.616-0.416,1.112-0.972,1.488-1.668
			c0.376-0.696,0.564-1.556,0.564-2.58c0-0.8-0.12-1.48-0.36-2.04C296.774,104.394,296.43,103.919,295.982,103.526z M257.984,79.826
			l-6.84-8.664h-3.648v17.04h4.68v-8.376l6.768,8.376h3.72v-17.04h-4.68V79.826z M266.132,86.522
			c0.584,0.592,1.308,1.06,2.172,1.404s1.848,0.516,2.952,0.516c1.552,0,2.86-0.32,3.924-0.96c1.064-0.64,1.852-1.464,2.364-2.472
			l-3.864-1.104c-0.144,0.4-0.436,0.712-0.876,0.936c-0.44,0.224-0.908,0.336-1.404,0.336c-0.528,0-1.016-0.148-1.464-0.444
			c-0.448-0.296-0.696-0.78-0.744-1.452h8.856c0.032-0.192,0.06-0.412,0.084-0.66c0.024-0.248,0.036-0.492,0.036-0.732
			c0-0.864-0.148-1.692-0.444-2.484c-0.296-0.792-0.736-1.488-1.32-2.088c-0.584-0.6-1.308-1.08-2.172-1.44
			c-0.864-0.36-1.856-0.54-2.976-0.54c-1.136,0-2.132,0.18-2.988,0.54c-0.856,0.36-1.576,0.844-2.16,1.452
			c-0.584,0.608-1.024,1.32-1.32,2.136c-0.296,0.816-0.444,1.68-0.444,2.592c0,0.848,0.152,1.656,0.456,2.424
			C265.104,85.25,265.548,85.93,266.132,86.522z M269.768,79.106c0.368-0.352,0.84-0.528,1.416-0.528
			c0.576,0,1.048,0.176,1.416,0.528c0.368,0.352,0.592,0.832,0.672,1.44h-4.176C269.176,79.938,269.4,79.458,269.768,79.106z
			 M288.512,83.402l1.704,4.8h3.72l5.16-12.624H294.8l-3.048,8.472l-0.792-2.712l2.256-5.76h-3.624l-1.08,3.696l-1.08-3.696h-3.624
			l2.256,5.76l-0.792,2.712l-3.048-8.472h-4.296l5.16,12.624h3.72L288.512,83.402z"/>
	</g>
	<g id="mail_2_">
		<g id="mail">
			<path fill-rule="evenodd" fill="#343434" d="M162.003,174.936v29.396h52.92v-29.396H162.003z M208.5,177l-20.25,15l-19.5-15
				H208.5z M165,177.266l16.916,13.155L165,200.187V177.266z M165.82,201.75l17.599-10.159l5.044,3.923l5.109-3.973l17.337,10.21
				H165.82z M195.087,190.362l16.836-13.093l0.31,23.19L195.087,190.362z"/>
		</g>
		<g id="alert">
			<circle fill-rule="evenodd" fill="#C03224" cx="209.625" cy="202.125" r="9.375"/>
		</g>
		<g id="_x21_">
			<path fill-rule="evenodd" fill="#FFFFFF" d="M207.874,208.646h3.325v-3.22h-3.325V208.646z M207.874,196.098v7.297h3.325v-7.297
				H207.874z"/>
		</g>
	</g>
</g>
</svg>
