<?xml version="1.0" encoding="utf-8"?>
<!-- Generator: Adobe Illustrator 18.0.0, SVG Export Plug-In . SVG Version: 6.00 Build 0)  -->
<svg version="1.2" baseProfile="tiny" xmlns="http://www.w3.org/2000/svg" xmlns:xlink="http://www.w3.org/1999/xlink" x="0px"
	 y="0px" viewBox="0 0 375 375" xml:space="preserve">
<g id="frame_1_">
	<g id="frame">
		<circle fill-rule="evenodd" fill="#ECECEC" cx="187.5" cy="187.5" r="187.5"/>
	</g>
</g>
<g id="icon_1_">
	<g id="network">
		<path fill-rule="evenodd" fill="#535353" d="M249.375,231.225c-8.269,0-15.963,2.442-22.419,6.632l-62.768-35.707
			c1.731-4.554,2.687-9.489,2.687-14.65c0-5.073-0.921-9.93-2.596-14.419l62.911-35.788c6.407,4.097,14.015,6.482,22.185,6.482
			c22.782,0,41.25-18.468,41.25-41.25s-18.468-41.25-41.25-41.25c-22.782,0-41.25,18.468-41.25,41.25
			c0,5.25,0.991,10.267,2.78,14.886l-62.623,35.624c-6.504-4.284-14.287-6.784-22.657-6.784c-22.782,0-41.25,18.468-41.25,41.25
			s18.468,41.25,41.25,41.25c8.271,0,15.966-2.443,22.423-6.634l62.766,35.705c-1.732,4.555-2.689,9.492-2.689,14.654
			c0,22.782,18.468,41.25,41.25,41.25c22.782,0,41.25-18.468,41.25-41.25S272.157,231.225,249.375,231.225z"/>
	</g>
</g>
</svg>
