<?xml version="1.0" encoding="utf-8"?>
<!-- Generator: Adobe Illustrator 18.0.0, SVG Export Plug-In . SVG Version: 6.00 Build 0)  -->
<!DOCTYPE svg PUBLIC "-//W3C//DTD SVG 1.1//EN" "http://www.w3.org/Graphics/SVG/1.1/DTD/svg11.dtd">
<svg version="1.1" xmlns="http://www.w3.org/2000/svg" xmlns:xlink="http://www.w3.org/1999/xlink" x="0px" y="0px"
	 viewBox="0 0 375 375" style="enable-background:new 0 0 375 375;" xml:space="preserve">
<style type="text/css">
	.st0{enable-background:new    ;}
	.st1{fill-rule:evenodd;clip-rule:evenodd;fill:#ECECEC;}
	.st2{fill-rule:evenodd;clip-rule:evenodd;fill:#659E3F;}
	.st3{fill:#326B0C;}
	.st4{fill-rule:evenodd;clip-rule:evenodd;fill:#326B0C;}
	.st5{opacity:0.502;}
	.st6{fill-rule:evenodd;clip-rule:evenodd;fill:#000035;}
	.st7{fill-rule:evenodd;clip-rule:evenodd;fill:#132A81;}
	.st8{fill-rule:evenodd;clip-rule:evenodd;fill:#FFFB55;}
	.st9{fill:#FFC822;}
	.st10{fill:#FFFFFF;}
	.st11{fill-rule:evenodd;clip-rule:evenodd;fill:#FF2020;}
	.st12{fill-rule:evenodd;clip-rule:evenodd;fill:#FFA800;}
	.st13{fill-rule:evenodd;clip-rule:evenodd;fill:#CC9500;}
	.st14{fill-rule:evenodd;clip-rule:evenodd;fill:#FFC822;}
	.st15{fill:#FFFB55;}
	.st16{fill-rule:evenodd;clip-rule:evenodd;fill:#E6AF09;}
	.st17{fill-rule:evenodd;clip-rule:evenodd;fill:#FFFFFF;}
</style>
<g id="frame_1_" class="st0">
	<g id="frame">
		<g>
			<circle class="st1" cx="187.5" cy="187.5" r="187.5"/>
		</g>
	</g>
</g>
<g id="icon_1_">
	<g id="note_2_">
		<g id="note">
			<g>
				
					<rect x="122" y="44.751" transform="matrix(-0.2588 0.9659 -0.9659 -0.2588 405.7683 38.1432)" class="st2" width="132.5" height="259.999"/>
			</g>
			<g>
				<path class="st3" d="M83.362,83.234l241.482,64.705l-31.705,118.326L51.656,201.561L83.362,83.234 M76.291,70.987
					L39.409,208.632l260.8,69.881l36.882-137.644L76.291,70.987L76.291,70.987z"/>
			</g>
		</g>
		<g id="corner">
			<g>
				<path class="st4" d="M87.158,73.899c-6.002-1.608-12.17,1.953-13.778,7.955c-1.608,6.001,1.953,12.17,7.955,13.778
					c6.002,1.608,12.17-1.953,13.778-7.955C96.721,81.676,93.159,75.507,87.158,73.899z M56.099,189.81
					c-6.002-1.608-12.17,1.953-13.778,7.955c-1.608,6.002,1.953,12.17,7.955,13.778c6.002,1.608,12.17-1.953,13.778-7.955
					C65.662,197.587,62.101,191.418,56.099,189.81z M295.166,253.868c-6.002-1.608-12.17,1.953-13.778,7.955
					c-1.608,6.001,1.953,12.17,7.955,13.778c6.002,1.608,12.17-1.953,13.778-7.955C304.729,261.645,301.167,255.476,295.166,253.868
					z M326.224,137.957c-6.002-1.608-12.17,1.953-13.778,7.955c-1.608,6.001,1.953,12.17,7.955,13.778
					c6.002,1.608,12.17-1.953,13.778-7.955C335.787,145.733,332.226,139.565,326.224,137.957z"/>
			</g>
		</g>
		<g id="dollar">
			<g>
				<path class="st3" d="M188.217,132.237c3.702,0,7.414,0.492,11.033,1.461c10.965,2.938,20.13,9.971,25.806,19.802
					s7.184,21.284,4.246,32.25c-4.972,18.554-21.839,31.513-41.019,31.513c-3.702,0-7.414-0.492-11.033-1.461
					c-10.965-2.938-20.13-9.971-25.806-19.802s-7.184-21.284-4.246-32.25C152.17,145.196,169.038,132.237,188.217,132.237
					 M188.217,122.237c-23.181,0-44.393,15.468-50.678,38.925c-7.504,28.007,9.116,56.794,37.123,64.299
					c4.55,1.219,9.124,1.802,13.621,1.802c23.181,0,44.393-15.468,50.678-38.925c7.504-28.007-9.116-56.794-37.123-64.299
					C197.288,122.82,192.714,122.237,188.217,122.237L188.217,122.237z"/>
			</g>
		</g>
		<g id="_x24_">
			<g>
				<path class="st4" d="M200.495,179.242c-0.892-1.233-2.076-2.378-3.552-3.436c-1.477-1.058-3.148-2.126-5.011-3.206l-1.356-0.736
					l2.687-10.026c1.089,0.416,2.112,0.929,3.067,1.536c0.955,0.608,1.813,1.231,2.574,1.87c0.761,0.639,1.408,1.237,1.942,1.794
					c0.534,0.557,0.88,1.003,1.04,1.335l5.275-5.544c-1.333-1.516-2.955-2.997-4.866-4.441c-1.911-1.444-4.097-2.598-6.557-3.465
					l1.568-5.854l-3.477-0.932l-1.584,5.911c-1.935-0.353-3.796-0.437-5.585-0.254c-1.788,0.184-3.415,0.649-4.877,1.395
					c-1.464,0.747-2.738,1.793-3.822,3.138c-1.086,1.346-1.892,3.003-2.42,4.973c-0.425,1.585-0.551,3.02-0.378,4.309
					c0.172,1.288,0.627,2.488,1.366,3.596c0.737,1.109,1.746,2.176,3.024,3.202s2.83,2.073,4.655,3.142l1.989,1.154l-2.671,9.968
					c-1.35-0.527-2.617-1.167-3.803-1.92c-1.186-0.753-2.253-1.525-3.199-2.317c-0.948-0.792-1.73-1.54-2.349-2.244
					c-0.619-0.704-1.042-1.252-1.268-1.644l-5.383,5.949c1.693,2.028,3.712,3.842,6.058,5.443c2.345,1.602,4.844,2.861,7.497,3.779
					l-1.724,6.433l3.477,0.932l1.708-6.375c1.913,0.429,3.785,0.631,5.615,0.604c1.829-0.027,3.52-0.351,5.074-0.97
					c1.553-0.619,2.908-1.581,4.065-2.886c1.157-1.305,2.02-3.02,2.59-5.145c0.507-1.893,0.624-3.569,0.354-5.03
					C201.967,181.822,201.386,180.475,200.495,179.242z M184.703,167.588c-0.746-0.924-0.943-2.043-0.591-3.357
					c0.756-2.82,3.019-3.85,6.791-3.088l-2.516,9.389C186.677,169.494,185.449,168.513,184.703,167.588z M193.148,186.84
					c-0.725,2.705-3.151,3.566-7.277,2.585l2.516-9.389c1.766,1.136,3.091,2.216,3.977,3.24
					C193.249,184.299,193.511,185.488,193.148,186.84z"/>
			</g>
		</g>
	</g>
	<g id="creditCard_1_">
		<g id="cardShadow" class="st5">
			<g>
				<path class="st6" d="M276,183.75H81c-4.142,0-7.5,3.358-7.5,7.5v109.5c0,4.142,3.358,7.5,7.5,7.5h195c4.142,0,7.5-3.358,7.5-7.5
					v-109.5C283.5,187.108,280.142,183.75,276,183.75z"/>
			</g>
		</g>
		<g id="card">
			<g>
				<path class="st7" d="M272.25,180h-195c-4.142,0-7.5,3.358-7.5,7.5V297c0,4.142,3.358,7.5,7.5,7.5h195c4.142,0,7.5-3.358,7.5-7.5
					V187.5C279.75,183.358,276.392,180,272.25,180z"/>
			</g>
		</g>
		<g id="chip">
			<g>
				<path class="st8" d="M111.469,219.305H96.938c-4.142,0-7.5,3.358-7.5,7.5v7.945c0,4.142,3.358,7.5,7.5,7.5h14.531
					c4.142,0,7.5-3.358,7.5-7.5v-7.945C118.969,222.663,115.611,219.305,111.469,219.305z"/>
			</g>
		</g>
		<g id="chipLine">
			<g>
				<path class="st9" d="M97.313,227.179h-7.875v0.655h7.875v5.897h-7.875v0.655h7.875v7.863h0.656v-22.934h-0.656V227.179z
					 M118.969,227.834v-0.655h-7.875v-7.863h-0.656v22.934h0.656v-7.863h7.875v-0.655h-7.875v-5.897H118.969z"/>
			</g>
		</g>
		<g id="_x31_234__1234__1234__1234">
			<g>
				<path class="st10" d="M92.359,255.467h-0.857c-0.016,0.041-0.094,0.122-0.233,0.245c-0.139,0.122-0.308,0.253-0.508,0.391
					c-0.2,0.139-0.412,0.261-0.637,0.367c-0.225,0.106-0.431,0.159-0.619,0.159v0.807c0.155,0,0.335-0.032,0.539-0.098
					c0.204-0.065,0.402-0.147,0.594-0.245c0.192-0.098,0.365-0.204,0.521-0.318c0.155-0.114,0.269-0.22,0.343-0.318v5.235h-1.74
					v0.758h4.153v-0.758h-1.556V255.467z M95.942,261.02c0.078-0.196,0.194-0.375,0.349-0.538c0.155-0.163,0.355-0.322,0.6-0.477
					c0.245-0.155,0.551-0.314,0.919-0.477c0.155-0.073,0.353-0.167,0.594-0.281c0.241-0.114,0.476-0.261,0.704-0.44
					c0.229-0.179,0.423-0.393,0.582-0.642c0.159-0.249,0.239-0.544,0.239-0.887c0-0.261-0.053-0.508-0.159-0.74
					c-0.106-0.232-0.261-0.438-0.466-0.618c-0.204-0.179-0.451-0.32-0.741-0.422c-0.29-0.102-0.619-0.153-0.986-0.153
					c-0.384,0-0.729,0.051-1.035,0.153c-0.306,0.102-0.572,0.218-0.796,0.349c-0.225,0.131-0.406,0.261-0.545,0.391
					c-0.139,0.131-0.233,0.22-0.282,0.269l0.551,0.599c0.057-0.073,0.141-0.169,0.251-0.287c0.11-0.118,0.247-0.23,0.41-0.336
					c0.163-0.106,0.353-0.198,0.57-0.275c0.216-0.077,0.459-0.116,0.729-0.116c0.261,0,0.492,0.037,0.692,0.11
					c0.2,0.073,0.367,0.171,0.502,0.294c0.135,0.122,0.237,0.261,0.306,0.416c0.069,0.155,0.104,0.31,0.104,0.465
					c0,0.245-0.072,0.457-0.214,0.636c-0.143,0.179-0.325,0.342-0.545,0.489c-0.221,0.147-0.459,0.279-0.717,0.398
					c-0.257,0.118-0.496,0.234-0.717,0.349c-0.416,0.22-0.758,0.455-1.023,0.703c-0.266,0.249-0.474,0.508-0.625,0.777
					c-0.151,0.269-0.253,0.549-0.306,0.838c-0.053,0.29-0.08,0.585-0.08,0.887h5.255v-0.758h-4.287
					C95.809,261.44,95.864,261.216,95.942,261.02z M104.927,259.564c0.253-0.032,0.48-0.108,0.68-0.226
					c0.2-0.118,0.369-0.265,0.508-0.44c0.139-0.175,0.245-0.375,0.318-0.599c0.073-0.224,0.11-0.459,0.11-0.703
					c0-0.326-0.063-0.624-0.19-0.893c-0.127-0.269-0.304-0.499-0.533-0.691c-0.229-0.192-0.5-0.34-0.815-0.446
					c-0.314-0.106-0.66-0.159-1.035-0.159c-0.294,0-0.58,0.035-0.857,0.104c-0.278,0.069-0.531,0.165-0.76,0.287
					c-0.229,0.122-0.433,0.271-0.612,0.446c-0.18,0.175-0.319,0.369-0.417,0.581l0.539,0.514c0.18-0.367,0.447-0.654,0.802-0.862
					c0.355-0.208,0.766-0.312,1.231-0.312c0.253,0,0.488,0.033,0.704,0.098c0.216,0.065,0.404,0.161,0.563,0.287
					c0.159,0.127,0.284,0.281,0.374,0.465c0.09,0.183,0.135,0.398,0.135,0.642c0,0.465-0.167,0.844-0.502,1.138
					c-0.335,0.294-0.817,0.44-1.445,0.44h-0.331v0.709h0.306c0.694,0,1.225,0.163,1.593,0.489c0.367,0.326,0.551,0.771,0.551,1.333
					c0,0.555-0.176,0.98-0.527,1.278c-0.351,0.298-0.833,0.446-1.445,0.446c-0.531,0-0.972-0.106-1.323-0.318
					c-0.351-0.212-0.612-0.498-0.784-0.856l-0.576,0.526c0.237,0.44,0.588,0.785,1.054,1.034c0.465,0.249,1.008,0.373,1.629,0.373
					c0.425,0,0.81-0.059,1.158-0.177c0.347-0.118,0.645-0.286,0.894-0.501c0.249-0.216,0.441-0.477,0.576-0.783
					c0.135-0.306,0.202-0.642,0.202-1.009c0-0.587-0.161-1.08-0.484-1.48C105.897,259.899,105.466,259.654,104.927,259.564z
					 M112.461,255.467h-0.576l-4.349,5.627v0.734h4.091v2.177h0.833v-2.177h1.078v-0.758h-1.078V255.467z M111.702,261.069h-3.283
					l3.283-4.293V261.069z M123.608,255.467h-0.857c-0.016,0.041-0.094,0.122-0.233,0.245c-0.139,0.122-0.308,0.253-0.508,0.391
					c-0.2,0.139-0.412,0.261-0.637,0.367c-0.225,0.106-0.431,0.159-0.619,0.159v0.807c0.155,0,0.335-0.032,0.539-0.098
					c0.204-0.065,0.402-0.147,0.594-0.245c0.192-0.098,0.365-0.204,0.521-0.318c0.155-0.114,0.27-0.22,0.343-0.318v5.235h-1.74
					v0.758h4.153v-0.758h-1.556V255.467z M127.191,261.02c0.078-0.196,0.194-0.375,0.349-0.538c0.155-0.163,0.355-0.322,0.6-0.477
					c0.245-0.155,0.551-0.314,0.919-0.477c0.155-0.073,0.353-0.167,0.594-0.281c0.241-0.114,0.476-0.261,0.704-0.44
					c0.229-0.179,0.423-0.393,0.582-0.642c0.159-0.249,0.239-0.544,0.239-0.887c0-0.261-0.053-0.508-0.159-0.74
					c-0.106-0.232-0.261-0.438-0.466-0.618c-0.204-0.179-0.451-0.32-0.741-0.422c-0.29-0.102-0.619-0.153-0.986-0.153
					c-0.384,0-0.729,0.051-1.035,0.153c-0.306,0.102-0.572,0.218-0.796,0.349c-0.225,0.131-0.406,0.261-0.545,0.391
					c-0.139,0.131-0.233,0.22-0.282,0.269l0.551,0.599c0.057-0.073,0.141-0.169,0.251-0.287c0.11-0.118,0.247-0.23,0.41-0.336
					c0.163-0.106,0.353-0.198,0.57-0.275c0.216-0.077,0.459-0.116,0.729-0.116c0.261,0,0.492,0.037,0.692,0.11
					c0.2,0.073,0.367,0.171,0.502,0.294s0.237,0.261,0.306,0.416c0.069,0.155,0.104,0.31,0.104,0.465
					c0,0.245-0.072,0.457-0.214,0.636c-0.143,0.179-0.325,0.342-0.545,0.489s-0.459,0.279-0.717,0.398
					c-0.257,0.118-0.496,0.234-0.717,0.349c-0.417,0.22-0.758,0.455-1.023,0.703c-0.266,0.249-0.474,0.508-0.625,0.777
					c-0.151,0.269-0.253,0.549-0.306,0.838c-0.053,0.29-0.08,0.585-0.08,0.887h5.255v-0.758h-4.288
					C127.059,261.44,127.114,261.216,127.191,261.02z M136.177,259.564c0.253-0.032,0.48-0.108,0.68-0.226
					c0.2-0.118,0.369-0.265,0.508-0.44c0.139-0.175,0.245-0.375,0.318-0.599c0.074-0.224,0.11-0.459,0.11-0.703
					c0-0.326-0.063-0.624-0.19-0.893c-0.127-0.269-0.304-0.499-0.533-0.691c-0.229-0.192-0.5-0.34-0.815-0.446
					c-0.315-0.106-0.66-0.159-1.035-0.159c-0.294,0-0.58,0.035-0.857,0.104c-0.278,0.069-0.531,0.165-0.76,0.287
					c-0.229,0.122-0.433,0.271-0.612,0.446c-0.18,0.175-0.318,0.369-0.417,0.581l0.539,0.514c0.18-0.367,0.447-0.654,0.802-0.862
					c0.355-0.208,0.766-0.312,1.231-0.312c0.253,0,0.488,0.033,0.704,0.098c0.216,0.065,0.404,0.161,0.564,0.287
					c0.159,0.127,0.284,0.281,0.374,0.465c0.09,0.183,0.135,0.398,0.135,0.642c0,0.465-0.167,0.844-0.502,1.138
					c-0.335,0.294-0.817,0.44-1.445,0.44h-0.331v0.709h0.306c0.694,0,1.225,0.163,1.592,0.489c0.367,0.326,0.551,0.771,0.551,1.333
					c0,0.555-0.176,0.98-0.527,1.278c-0.351,0.298-0.833,0.446-1.445,0.446c-0.531,0-0.972-0.106-1.323-0.318
					c-0.351-0.212-0.613-0.498-0.784-0.856l-0.576,0.526c0.237,0.44,0.588,0.785,1.054,1.034c0.466,0.249,1.009,0.373,1.629,0.373
					c0.424,0,0.81-0.059,1.158-0.177c0.347-0.118,0.645-0.286,0.894-0.501c0.249-0.216,0.441-0.477,0.576-0.783
					c0.135-0.306,0.202-0.642,0.202-1.009c0-0.587-0.161-1.08-0.484-1.48C137.146,259.899,136.716,259.654,136.177,259.564z
					 M143.71,255.467h-0.576l-4.349,5.627v0.734h4.091v2.177h0.833v-2.177h1.078v-0.758h-1.078V255.467z M142.951,261.069h-3.283
					l3.283-4.293V261.069z M154.858,255.467H154c-0.016,0.041-0.094,0.122-0.233,0.245c-0.139,0.122-0.308,0.253-0.508,0.391
					c-0.2,0.139-0.412,0.261-0.637,0.367c-0.225,0.106-0.431,0.159-0.619,0.159v0.807c0.155,0,0.335-0.032,0.539-0.098
					c0.204-0.065,0.402-0.147,0.594-0.245c0.192-0.098,0.365-0.204,0.521-0.318c0.155-0.114,0.269-0.22,0.343-0.318v5.235h-1.74
					v0.758h4.153v-0.758h-1.556V255.467z M158.441,261.02c0.078-0.196,0.194-0.375,0.349-0.538c0.155-0.163,0.355-0.322,0.6-0.477
					c0.245-0.155,0.551-0.314,0.919-0.477c0.155-0.073,0.353-0.167,0.594-0.281c0.241-0.114,0.476-0.261,0.704-0.44
					c0.229-0.179,0.423-0.393,0.582-0.642c0.159-0.249,0.239-0.544,0.239-0.887c0-0.261-0.053-0.508-0.159-0.74
					c-0.106-0.232-0.261-0.438-0.465-0.618c-0.204-0.179-0.451-0.32-0.741-0.422c-0.29-0.102-0.619-0.153-0.986-0.153
					c-0.384,0-0.729,0.051-1.035,0.153c-0.306,0.102-0.572,0.218-0.796,0.349c-0.225,0.131-0.406,0.261-0.545,0.391
					c-0.139,0.131-0.233,0.22-0.282,0.269l0.551,0.599c0.057-0.073,0.141-0.169,0.251-0.287c0.11-0.118,0.247-0.23,0.41-0.336
					c0.163-0.106,0.353-0.198,0.57-0.275c0.216-0.077,0.459-0.116,0.729-0.116c0.261,0,0.492,0.037,0.692,0.11
					c0.2,0.073,0.368,0.171,0.502,0.294c0.135,0.122,0.237,0.261,0.306,0.416c0.069,0.155,0.104,0.31,0.104,0.465
					c0,0.245-0.072,0.457-0.214,0.636c-0.143,0.179-0.325,0.342-0.545,0.489c-0.22,0.147-0.459,0.279-0.717,0.398
					c-0.257,0.118-0.496,0.234-0.717,0.349c-0.417,0.22-0.758,0.455-1.023,0.703c-0.266,0.249-0.474,0.508-0.625,0.777
					c-0.151,0.269-0.253,0.549-0.306,0.838c-0.053,0.29-0.08,0.585-0.08,0.887h5.255v-0.758h-4.287
					C158.308,261.44,158.363,261.216,158.441,261.02z M167.426,259.564c0.253-0.032,0.48-0.108,0.68-0.226
					c0.2-0.118,0.369-0.265,0.508-0.44c0.139-0.175,0.245-0.375,0.318-0.599c0.073-0.224,0.11-0.459,0.11-0.703
					c0-0.326-0.063-0.624-0.19-0.893c-0.127-0.269-0.304-0.499-0.533-0.691c-0.229-0.192-0.5-0.34-0.815-0.446
					c-0.314-0.106-0.66-0.159-1.035-0.159c-0.294,0-0.58,0.035-0.858,0.104c-0.278,0.069-0.531,0.165-0.759,0.287
					c-0.229,0.122-0.433,0.271-0.613,0.446c-0.18,0.175-0.318,0.369-0.417,0.581l0.539,0.514c0.18-0.367,0.447-0.654,0.802-0.862
					c0.355-0.208,0.766-0.312,1.231-0.312c0.253,0,0.488,0.033,0.704,0.098c0.216,0.065,0.404,0.161,0.563,0.287
					c0.159,0.127,0.284,0.281,0.374,0.465c0.09,0.183,0.135,0.398,0.135,0.642c0,0.465-0.167,0.844-0.502,1.138
					c-0.335,0.294-0.817,0.44-1.445,0.44h-0.331v0.709h0.306c0.694,0,1.225,0.163,1.593,0.489c0.367,0.326,0.551,0.771,0.551,1.333
					c0,0.555-0.176,0.98-0.527,1.278c-0.351,0.298-0.833,0.446-1.445,0.446c-0.531,0-0.972-0.106-1.323-0.318
					c-0.351-0.212-0.612-0.498-0.784-0.856l-0.576,0.526c0.237,0.44,0.588,0.785,1.053,1.034c0.466,0.249,1.009,0.373,1.629,0.373
					c0.425,0,0.81-0.059,1.158-0.177c0.347-0.118,0.645-0.286,0.894-0.501c0.249-0.216,0.441-0.477,0.576-0.783
					s0.202-0.642,0.202-1.009c0-0.587-0.161-1.08-0.484-1.48C168.396,259.899,167.965,259.654,167.426,259.564z M174.96,255.467
					h-0.576l-4.349,5.627v0.734h4.091v2.177h0.833v-2.177h1.078v-0.758h-1.078V255.467z M174.2,261.069h-3.283l3.283-4.293V261.069z
					 M186.107,255.467h-0.857c-0.016,0.041-0.094,0.122-0.233,0.245c-0.139,0.122-0.308,0.253-0.508,0.391
					c-0.2,0.139-0.412,0.261-0.637,0.367c-0.225,0.106-0.431,0.159-0.619,0.159v0.807c0.155,0,0.335-0.032,0.539-0.098
					c0.204-0.065,0.402-0.147,0.594-0.245c0.192-0.098,0.365-0.204,0.521-0.318c0.155-0.114,0.269-0.22,0.343-0.318v5.235h-1.74
					v0.758h4.153v-0.758h-1.556V255.467z M189.69,261.02c0.078-0.196,0.194-0.375,0.349-0.538c0.155-0.163,0.355-0.322,0.6-0.477
					c0.245-0.155,0.551-0.314,0.919-0.477c0.155-0.073,0.353-0.167,0.594-0.281c0.241-0.114,0.476-0.261,0.704-0.44
					c0.229-0.179,0.423-0.393,0.582-0.642c0.159-0.249,0.239-0.544,0.239-0.887c0-0.261-0.053-0.508-0.159-0.74
					c-0.106-0.232-0.261-0.438-0.465-0.618c-0.204-0.179-0.451-0.32-0.741-0.422c-0.29-0.102-0.619-0.153-0.986-0.153
					c-0.384,0-0.729,0.051-1.035,0.153c-0.306,0.102-0.572,0.218-0.796,0.349c-0.225,0.131-0.406,0.261-0.545,0.391
					c-0.139,0.131-0.233,0.22-0.282,0.269l0.551,0.599c0.057-0.073,0.141-0.169,0.251-0.287c0.11-0.118,0.247-0.23,0.41-0.336
					c0.163-0.106,0.353-0.198,0.57-0.275c0.216-0.077,0.459-0.116,0.729-0.116c0.261,0,0.492,0.037,0.692,0.11
					c0.2,0.073,0.367,0.171,0.502,0.294s0.237,0.261,0.306,0.416c0.069,0.155,0.104,0.31,0.104,0.465
					c0,0.245-0.072,0.457-0.214,0.636c-0.143,0.179-0.325,0.342-0.545,0.489s-0.459,0.279-0.717,0.398
					c-0.257,0.118-0.496,0.234-0.717,0.349c-0.417,0.22-0.758,0.455-1.023,0.703c-0.266,0.249-0.474,0.508-0.625,0.777
					c-0.151,0.269-0.253,0.549-0.306,0.838c-0.053,0.29-0.08,0.585-0.08,0.887h5.255v-0.758h-4.288
					C189.557,261.44,189.612,261.216,189.69,261.02z M198.675,259.564c0.253-0.032,0.48-0.108,0.68-0.226
					c0.2-0.118,0.369-0.265,0.508-0.44c0.139-0.175,0.245-0.375,0.318-0.599c0.074-0.224,0.11-0.459,0.11-0.703
					c0-0.326-0.063-0.624-0.19-0.893c-0.127-0.269-0.304-0.499-0.533-0.691c-0.229-0.192-0.5-0.34-0.815-0.446
					c-0.314-0.106-0.66-0.159-1.035-0.159c-0.294,0-0.58,0.035-0.858,0.104c-0.278,0.069-0.531,0.165-0.759,0.287
					c-0.229,0.122-0.433,0.271-0.612,0.446c-0.18,0.175-0.319,0.369-0.417,0.581l0.539,0.514c0.18-0.367,0.447-0.654,0.802-0.862
					c0.355-0.208,0.766-0.312,1.231-0.312c0.253,0,0.488,0.033,0.704,0.098c0.216,0.065,0.404,0.161,0.564,0.287
					c0.159,0.127,0.284,0.281,0.374,0.465c0.09,0.183,0.135,0.398,0.135,0.642c0,0.465-0.167,0.844-0.502,1.138
					c-0.335,0.294-0.817,0.44-1.445,0.44h-0.331v0.709h0.306c0.694,0,1.225,0.163,1.593,0.489c0.367,0.326,0.551,0.771,0.551,1.333
					c0,0.555-0.176,0.98-0.527,1.278c-0.351,0.298-0.833,0.446-1.445,0.446c-0.531,0-0.972-0.106-1.323-0.318
					c-0.351-0.212-0.612-0.498-0.784-0.856l-0.576,0.526c0.237,0.44,0.588,0.785,1.053,1.034c0.466,0.249,1.009,0.373,1.629,0.373
					c0.425,0,0.81-0.059,1.158-0.177c0.347-0.118,0.645-0.286,0.894-0.501c0.249-0.216,0.441-0.477,0.576-0.783
					s0.202-0.642,0.202-1.009c0-0.587-0.161-1.08-0.484-1.48C199.645,259.899,199.214,259.654,198.675,259.564z M206.209,261.069
					v-5.602h-0.576l-4.349,5.627v0.734h4.091v2.177h0.833v-2.177h1.078v-0.758H206.209z M205.449,261.069h-3.283l3.283-4.293
					V261.069z"/>
			</g>
		</g>
		<g id="_x38_packs_Bank">
			<g>
				<path class="st10" d="M194,199.118c-0.159-0.188-0.345-0.353-0.557-0.495c-0.212-0.143-0.437-0.255-0.674-0.336
					c0.196-0.081,0.382-0.181,0.557-0.3c0.176-0.118,0.331-0.257,0.466-0.416s0.241-0.332,0.318-0.52
					c0.078-0.187,0.116-0.387,0.116-0.599c0-0.351-0.082-0.665-0.245-0.942c-0.163-0.277-0.374-0.508-0.631-0.691
					c-0.257-0.183-0.547-0.324-0.87-0.422c-0.323-0.098-0.647-0.147-0.974-0.147c-0.327,0-0.651,0.049-0.974,0.147
					c-0.323,0.098-0.612,0.241-0.87,0.428c-0.257,0.188-0.468,0.418-0.631,0.691c-0.163,0.273-0.245,0.589-0.245,0.948
					c0,0.212,0.039,0.412,0.116,0.599c0.078,0.188,0.182,0.359,0.312,0.514c0.13,0.155,0.282,0.292,0.453,0.41
					c0.172,0.118,0.355,0.218,0.551,0.3c-0.213,0.073-0.423,0.177-0.631,0.312c-0.208,0.135-0.394,0.294-0.557,0.477
					c-0.163,0.183-0.296,0.393-0.398,0.63c-0.102,0.237-0.153,0.493-0.153,0.771c0,0.351,0.073,0.681,0.22,0.991
					c0.147,0.31,0.353,0.581,0.619,0.813c0.265,0.232,0.582,0.416,0.949,0.55c0.368,0.135,0.768,0.202,1.201,0.202
					c0.408,0,0.798-0.059,1.17-0.177c0.371-0.118,0.696-0.287,0.974-0.508c0.278-0.22,0.498-0.483,0.661-0.789
					c0.163-0.306,0.245-0.65,0.245-1.034c0-0.277-0.047-0.534-0.141-0.771C194.285,199.518,194.159,199.306,194,199.118z
					 M189.804,197.13c-0.115-0.183-0.172-0.393-0.172-0.63c0-0.228,0.051-0.436,0.153-0.624c0.102-0.188,0.239-0.344,0.41-0.471
					c0.172-0.126,0.369-0.224,0.594-0.294c0.225-0.069,0.459-0.104,0.704-0.104s0.48,0.033,0.704,0.098
					c0.225,0.065,0.425,0.161,0.6,0.287c0.175,0.127,0.316,0.281,0.423,0.465c0.106,0.183,0.159,0.389,0.159,0.618
					c0,0.237-0.057,0.448-0.172,0.636c-0.114,0.188-0.261,0.347-0.441,0.477c-0.18,0.131-0.382,0.228-0.606,0.294
					c-0.225,0.065-0.443,0.098-0.655,0.098c-0.221,0-0.441-0.032-0.661-0.098c-0.221-0.065-0.421-0.161-0.6-0.287
					C190.065,197.469,189.918,197.314,189.804,197.13z M193.485,201.216c-0.127,0.224-0.292,0.416-0.496,0.575
					c-0.204,0.159-0.435,0.281-0.692,0.367s-0.517,0.128-0.778,0.128c-0.261,0-0.521-0.041-0.778-0.122
					c-0.257-0.081-0.49-0.2-0.698-0.355c-0.208-0.155-0.378-0.344-0.508-0.569c-0.131-0.224-0.196-0.479-0.196-0.764
					c0-0.277,0.061-0.53,0.184-0.758c0.122-0.228,0.286-0.422,0.49-0.581c0.204-0.159,0.435-0.281,0.692-0.367
					c0.257-0.086,0.521-0.128,0.79-0.128c0.253,0,0.51,0.041,0.772,0.122c0.261,0.082,0.496,0.2,0.704,0.355
					c0.208,0.155,0.378,0.345,0.508,0.569c0.131,0.224,0.196,0.483,0.196,0.777C193.675,200.741,193.612,200.991,193.485,201.216z
					 M201.356,197.461c-0.27-0.306-0.59-0.55-0.962-0.734c-0.372-0.184-0.778-0.275-1.219-0.275c-0.49,0-0.943,0.124-1.36,0.373
					c-0.417,0.249-0.755,0.573-1.017,0.972v-1.235h-0.747v8.978h0.833v-3.926c0.253,0.416,0.588,0.76,1.005,1.034
					c0.417,0.273,0.894,0.41,1.433,0.41c0.425,0,0.815-0.088,1.17-0.263c0.355-0.175,0.662-0.414,0.919-0.716
					c0.257-0.302,0.455-0.652,0.594-1.052c0.139-0.399,0.208-0.824,0.208-1.272c0-0.424-0.076-0.836-0.227-1.235
					C201.835,198.119,201.625,197.766,201.356,197.461z M201.196,200.702c-0.106,0.306-0.259,0.579-0.459,0.82
					c-0.2,0.241-0.439,0.434-0.717,0.581c-0.278,0.147-0.588,0.22-0.931,0.22c-0.237,0-0.468-0.041-0.692-0.122
					c-0.225-0.081-0.433-0.194-0.625-0.336c-0.192-0.143-0.363-0.312-0.514-0.508c-0.151-0.196-0.276-0.408-0.374-0.636v-1.957
					c0.033-0.212,0.12-0.414,0.263-0.605c0.143-0.192,0.316-0.359,0.521-0.502c0.204-0.143,0.421-0.257,0.649-0.342
					c0.229-0.086,0.449-0.128,0.661-0.128c0.335,0,0.647,0.069,0.937,0.208c0.29,0.139,0.541,0.326,0.753,0.563
					c0.212,0.237,0.38,0.51,0.502,0.82c0.122,0.31,0.184,0.636,0.184,0.979C201.356,200.08,201.302,200.396,201.196,200.702z
					 M208.485,201.858v-2.874c0-0.791-0.229-1.411-0.686-1.859c-0.457-0.448-1.074-0.673-1.85-0.673
					c-0.425,0-0.833,0.069-1.225,0.208c-0.392,0.139-0.796,0.347-1.213,0.624l0.294,0.55c0.351-0.245,0.696-0.432,1.035-0.563
					c0.339-0.13,0.68-0.196,1.023-0.196c0.547,0,0.982,0.165,1.305,0.495c0.323,0.33,0.484,0.777,0.484,1.339v0.575
					c-0.261-0.106-0.56-0.188-0.894-0.245c-0.335-0.057-0.661-0.086-0.98-0.086c-0.4,0-0.766,0.047-1.096,0.141
					c-0.331,0.094-0.615,0.226-0.851,0.398c-0.237,0.171-0.421,0.377-0.551,0.618c-0.131,0.241-0.196,0.508-0.196,0.801
					c0,0.261,0.053,0.51,0.159,0.746c0.106,0.237,0.255,0.445,0.447,0.624c0.192,0.179,0.423,0.32,0.692,0.422
					c0.269,0.102,0.568,0.153,0.894,0.153c0.466,0,0.925-0.104,1.378-0.312c0.453-0.208,0.819-0.499,1.096-0.875l0.025,0.501
					c0.016,0.196,0.092,0.342,0.227,0.44c0.135,0.098,0.284,0.147,0.447,0.147c0.041,0,0.09-0.002,0.147-0.006
					c0.057-0.004,0.118-0.01,0.184-0.018V202.2C208.583,202.2,208.485,202.086,208.485,201.858z M207.652,201.051
					c0,0.073-0.021,0.153-0.061,0.239c-0.041,0.086-0.09,0.165-0.147,0.238c-0.212,0.277-0.5,0.495-0.864,0.654
					c-0.363,0.159-0.729,0.238-1.096,0.238c-0.269,0-0.502-0.041-0.698-0.122c-0.196-0.081-0.361-0.188-0.496-0.318
					c-0.135-0.13-0.235-0.277-0.3-0.44c-0.065-0.163-0.098-0.33-0.098-0.502c0-0.424,0.186-0.756,0.557-0.997
					c0.372-0.24,0.855-0.361,1.452-0.361c0.286,0,0.58,0.029,0.882,0.086c0.302,0.057,0.592,0.139,0.87,0.245V201.051z
					 M214.671,201.65c-0.122,0.131-0.27,0.247-0.441,0.349c-0.172,0.102-0.357,0.182-0.557,0.239
					c-0.2,0.057-0.402,0.086-0.606,0.086c-0.318,0-0.619-0.067-0.9-0.202c-0.282-0.135-0.529-0.318-0.741-0.55
					c-0.213-0.232-0.38-0.508-0.502-0.826c-0.122-0.318-0.184-0.656-0.184-1.015c0-0.367,0.059-0.705,0.178-1.015
					c0.118-0.31,0.282-0.577,0.49-0.801c0.208-0.224,0.453-0.401,0.735-0.532c0.282-0.13,0.586-0.196,0.913-0.196
					c0.392,0,0.747,0.092,1.066,0.275c0.319,0.183,0.568,0.438,0.747,0.765l0.809-0.257c-0.229-0.465-0.568-0.834-1.017-1.107
					c-0.449-0.273-0.976-0.41-1.58-0.41c-0.474,0-0.906,0.086-1.298,0.257c-0.392,0.171-0.729,0.406-1.011,0.703
					c-0.282,0.298-0.5,0.646-0.655,1.046c-0.155,0.4-0.233,0.824-0.233,1.272c0,0.457,0.08,0.885,0.239,1.284
					c0.159,0.4,0.382,0.752,0.668,1.058c0.286,0.306,0.625,0.546,1.017,0.722c0.392,0.175,0.821,0.263,1.286,0.263
					c0.302,0,0.594-0.039,0.876-0.116c0.282-0.077,0.539-0.188,0.772-0.33c0.233-0.143,0.435-0.31,0.606-0.501
					c0.172-0.192,0.302-0.402,0.392-0.63l-0.808-0.245C214.879,201.381,214.794,201.52,214.671,201.65z M222.401,196.574h-0.943
					l-3.589,3.498v-6.067h-0.833v8.929h0.833v-1.994l1.372-1.272l2.352,3.266h0.906l-2.707-3.755L222.401,196.574z M227.429,199.986
					c-0.208-0.13-0.468-0.245-0.778-0.343c-0.31-0.098-0.67-0.196-1.078-0.294c-0.286-0.065-0.529-0.128-0.729-0.19
					c-0.2-0.061-0.366-0.13-0.496-0.208c-0.131-0.077-0.225-0.169-0.282-0.275c-0.057-0.106-0.086-0.245-0.086-0.416
					c0-0.204,0.041-0.381,0.122-0.532c0.082-0.151,0.194-0.275,0.337-0.373c0.143-0.098,0.308-0.169,0.496-0.214
					c0.188-0.045,0.392-0.067,0.612-0.067c0.367,0,0.721,0.061,1.06,0.183c0.339,0.122,0.627,0.306,0.864,0.55l0.404-0.489
					c-0.245-0.261-0.568-0.471-0.968-0.63c-0.4-0.159-0.845-0.238-1.335-0.238c-0.327,0-0.635,0.041-0.925,0.122
					c-0.29,0.082-0.543,0.202-0.759,0.361c-0.216,0.159-0.388,0.361-0.515,0.605c-0.127,0.245-0.19,0.526-0.19,0.844
					c0,0.253,0.043,0.463,0.129,0.63c0.086,0.167,0.216,0.308,0.392,0.422c0.176,0.114,0.398,0.216,0.668,0.306
					c0.269,0.09,0.588,0.179,0.955,0.269c0.319,0.073,0.598,0.145,0.839,0.214c0.241,0.069,0.441,0.149,0.6,0.239
					c0.159,0.09,0.28,0.194,0.361,0.312c0.082,0.118,0.122,0.267,0.122,0.446c0,0.383-0.153,0.679-0.459,0.887
					c-0.306,0.208-0.717,0.312-1.231,0.312c-0.425,0-0.823-0.073-1.194-0.22c-0.372-0.147-0.737-0.367-1.096-0.66l-0.38,0.563
					c0.343,0.31,0.751,0.546,1.225,0.709c0.474,0.163,0.96,0.245,1.458,0.245c0.759,0,1.364-0.171,1.813-0.514
					c0.449-0.343,0.674-0.807,0.674-1.394c0-0.269-0.053-0.497-0.159-0.685C227.795,200.276,227.638,200.117,227.429,199.986z
					 M237.652,198.482c0.392-0.179,0.698-0.45,0.919-0.813c0.22-0.363,0.331-0.764,0.331-1.205c0-0.269-0.047-0.536-0.141-0.801
					c-0.094-0.265-0.227-0.501-0.398-0.709s-0.38-0.377-0.625-0.508c-0.245-0.13-0.519-0.196-0.821-0.196h-4.177v8.684h4.091
					c0.335,0,0.649-0.055,0.943-0.165c0.294-0.11,0.551-0.265,0.772-0.465c0.221-0.2,0.396-0.436,0.527-0.709
					c0.13-0.273,0.196-0.573,0.196-0.899c0-0.53-0.145-0.995-0.435-1.394C238.544,198.902,238.15,198.629,237.652,198.482z
					 M233.585,194.996h3.063c0.204,0,0.394,0.043,0.57,0.128c0.176,0.086,0.327,0.2,0.453,0.342
					c0.127,0.143,0.224,0.312,0.294,0.508c0.069,0.196,0.104,0.404,0.104,0.624c0,0.212-0.037,0.414-0.11,0.605
					c-0.073,0.192-0.178,0.361-0.312,0.508c-0.135,0.147-0.294,0.265-0.478,0.355c-0.184,0.09-0.382,0.135-0.594,0.135h-2.989
					V194.996z M238.289,201.167c-0.082,0.2-0.192,0.375-0.331,0.526c-0.139,0.151-0.306,0.271-0.502,0.361
					c-0.196,0.09-0.404,0.135-0.625,0.135h-3.246v-3.29h3.332c0.212,0,0.41,0.047,0.594,0.141c0.184,0.094,0.343,0.216,0.478,0.367
					c0.135,0.151,0.239,0.326,0.312,0.526c0.073,0.2,0.11,0.406,0.11,0.618C238.411,200.761,238.37,200.967,238.289,201.167z
					 M245.614,201.858v-2.874c0-0.791-0.229-1.411-0.686-1.859c-0.457-0.448-1.074-0.673-1.85-0.673
					c-0.425,0-0.833,0.069-1.225,0.208c-0.392,0.139-0.796,0.347-1.213,0.624l0.294,0.55c0.351-0.245,0.696-0.432,1.035-0.563
					c0.339-0.13,0.68-0.196,1.023-0.196c0.547,0,0.982,0.165,1.305,0.495c0.323,0.33,0.484,0.777,0.484,1.339v0.575
					c-0.261-0.106-0.559-0.188-0.894-0.245c-0.335-0.057-0.661-0.086-0.98-0.086c-0.4,0-0.766,0.047-1.096,0.141
					c-0.331,0.094-0.615,0.226-0.851,0.398c-0.237,0.171-0.421,0.377-0.551,0.618c-0.131,0.241-0.196,0.508-0.196,0.801
					c0,0.261,0.053,0.51,0.159,0.746c0.106,0.237,0.255,0.445,0.447,0.624c0.192,0.179,0.423,0.32,0.692,0.422
					c0.27,0.102,0.568,0.153,0.894,0.153c0.465,0,0.925-0.104,1.378-0.312c0.453-0.208,0.819-0.499,1.096-0.875l0.024,0.501
					c0.016,0.196,0.092,0.342,0.227,0.44c0.135,0.098,0.284,0.147,0.447,0.147c0.041,0,0.09-0.002,0.147-0.006
					c0.057-0.004,0.118-0.01,0.184-0.018V202.2C245.712,202.2,245.614,202.086,245.614,201.858z M244.781,201.051
					c0,0.073-0.02,0.153-0.061,0.239c-0.041,0.086-0.09,0.165-0.147,0.238c-0.212,0.277-0.5,0.495-0.864,0.654
					c-0.364,0.159-0.729,0.238-1.096,0.238c-0.27,0-0.502-0.041-0.698-0.122c-0.196-0.081-0.361-0.188-0.496-0.318
					c-0.135-0.13-0.235-0.277-0.3-0.44c-0.065-0.163-0.098-0.33-0.098-0.502c0-0.424,0.186-0.756,0.557-0.997
					c0.372-0.24,0.855-0.361,1.452-0.361c0.286,0,0.58,0.029,0.882,0.086c0.302,0.057,0.592,0.139,0.87,0.245V201.051z
					 M252.376,197.198c-0.147-0.236-0.341-0.42-0.582-0.55c-0.241-0.13-0.541-0.196-0.9-0.196c-0.286,0-0.562,0.037-0.827,0.11
					c-0.266,0.073-0.517,0.179-0.753,0.318c-0.237,0.139-0.451,0.304-0.643,0.495c-0.192,0.192-0.353,0.402-0.484,0.63v-1.443h-0.76
					v6.373h0.833v-3.902c0.082-0.261,0.202-0.503,0.361-0.728c0.159-0.224,0.345-0.418,0.557-0.581
					c0.212-0.163,0.441-0.289,0.686-0.379c0.245-0.09,0.49-0.135,0.735-0.135c0.466,0,0.809,0.171,1.029,0.514
					c0.22,0.343,0.331,0.893,0.331,1.651v3.559h0.833v-3.731c0-0.416-0.033-0.795-0.098-1.138
					C252.629,197.724,252.523,197.434,252.376,197.198z M257.276,199.179l2.609-2.605h-0.943l-3.589,3.498v-6.067h-0.833v8.929
					h0.833v-1.994l1.372-1.272l2.352,3.266h0.906L257.276,199.179z"/>
			</g>
		</g>
		<g id="JOHN_SMITH">
			<g>
				<path class="st10" d="M92.011,288.16c0,0.349-0.012,0.654-0.035,0.913c-0.023,0.259-0.073,0.476-0.149,0.651
					c-0.076,0.175-0.187,0.304-0.332,0.389c-0.146,0.084-0.341,0.127-0.586,0.127c-0.251,0-0.473-0.035-0.665-0.105
					c-0.193-0.07-0.33-0.134-0.411-0.192l-0.271,0.979c0.373,0.256,0.823,0.384,1.348,0.384c0.513,0,0.922-0.076,1.225-0.227
					c0.303-0.151,0.535-0.364,0.696-0.638c0.16-0.274,0.265-0.604,0.315-0.992c0.049-0.387,0.074-0.817,0.074-1.289v-3.145h-1.208
					V288.16z M99.178,285.958c-0.257-0.297-0.566-0.537-0.927-0.721c-0.362-0.183-0.761-0.275-1.199-0.275
					c-0.426,0-0.82,0.086-1.181,0.258c-0.362,0.172-0.675,0.403-0.941,0.695c-0.266,0.291-0.472,0.626-0.621,1.005
					c-0.149,0.379-0.223,0.775-0.223,1.188c0,0.396,0.07,0.783,0.21,1.162c0.14,0.379,0.34,0.715,0.599,1.009
					c0.26,0.294,0.57,0.53,0.932,0.708c0.362,0.178,0.761,0.266,1.199,0.266c0.426,0,0.819-0.086,1.181-0.258
					c0.362-0.172,0.674-0.402,0.936-0.69s0.468-0.62,0.617-0.996c0.149-0.376,0.223-0.77,0.223-1.184c0-0.39-0.07-0.775-0.21-1.153
					C99.633,286.593,99.434,286.255,99.178,285.958z M98.653,288.863c-0.076,0.248-0.187,0.47-0.333,0.668
					c-0.146,0.198-0.325,0.357-0.538,0.476c-0.213,0.119-0.459,0.179-0.739,0.179c-0.274,0-0.519-0.058-0.735-0.175
					c-0.216-0.116-0.398-0.271-0.547-0.463s-0.263-0.414-0.341-0.664c-0.079-0.25-0.118-0.51-0.118-0.778
					c0-0.256,0.038-0.508,0.114-0.756c0.076-0.247,0.188-0.469,0.337-0.664c0.149-0.195,0.329-0.352,0.542-0.472
					c0.213-0.119,0.459-0.179,0.739-0.179c0.268,0,0.509,0.057,0.722,0.17c0.213,0.114,0.394,0.266,0.542,0.459
					c0.149,0.192,0.264,0.414,0.346,0.664c0.082,0.25,0.122,0.51,0.122,0.778C98.766,288.364,98.728,288.616,98.653,288.863z
					 M104.944,287.514h-2.818v-2.508h-1.208v6.203h1.208v-2.647h2.818v2.647h1.199v-6.203h-1.199V287.514z M111.611,289.077
					l-3.237-4.071h-0.936v6.203h1.207v-3.975l3.194,3.975h0.98v-6.194h-1.208V289.077z M120.129,288.213
					c-0.172-0.14-0.382-0.256-0.63-0.349c-0.248-0.093-0.524-0.18-0.827-0.262c-0.233-0.058-0.439-0.114-0.617-0.166
					c-0.178-0.052-0.325-0.111-0.442-0.175c-0.117-0.064-0.206-0.138-0.267-0.223c-0.061-0.084-0.092-0.191-0.092-0.319
					c0-0.221,0.082-0.393,0.245-0.515c0.163-0.122,0.411-0.183,0.744-0.183c0.187,0,0.37,0.023,0.551,0.07
					c0.181,0.047,0.348,0.103,0.503,0.17c0.154,0.067,0.286,0.135,0.394,0.205c0.108,0.07,0.182,0.125,0.223,0.166l0.534-0.979
					c-0.274-0.186-0.595-0.348-0.962-0.485c-0.367-0.137-0.77-0.205-1.208-0.205c-0.315,0-0.61,0.042-0.884,0.127
					c-0.274,0.084-0.515,0.208-0.722,0.371c-0.207,0.163-0.369,0.367-0.486,0.612c-0.117,0.245-0.175,0.524-0.175,0.839
					c0,0.239,0.036,0.446,0.109,0.62c0.073,0.175,0.182,0.326,0.328,0.454c0.146,0.128,0.328,0.24,0.547,0.336
					c0.219,0.096,0.477,0.185,0.774,0.266c0.245,0.064,0.467,0.125,0.665,0.183c0.198,0.058,0.367,0.122,0.508,0.192
					c0.14,0.07,0.248,0.151,0.324,0.245c0.076,0.093,0.114,0.21,0.114,0.349c0,0.425-0.333,0.638-0.997,0.638
					c-0.239,0-0.473-0.029-0.7-0.087c-0.228-0.058-0.435-0.13-0.621-0.214c-0.187-0.084-0.349-0.169-0.486-0.253
					c-0.137-0.084-0.232-0.153-0.284-0.205l-0.534,1.04c0.362,0.256,0.77,0.454,1.225,0.594c0.455,0.14,0.916,0.21,1.383,0.21
					c0.303,0,0.595-0.034,0.875-0.1c0.28-0.067,0.525-0.173,0.735-0.319c0.21-0.146,0.378-0.336,0.503-0.572
					c0.125-0.236,0.188-0.52,0.188-0.852c0-0.285-0.047-0.526-0.14-0.721C120.434,288.52,120.301,288.352,120.129,288.213z
					 M124.719,288.536l-1.838-3.53h-1.295v6.203h1.207v-4.106l1.601,3.058h0.656l1.601-3.058v4.106h1.208v-6.203h-1.286
					L124.719,288.536z M129.155,291.209h1.207v-6.194h-1.207V291.209z M131.132,286.063h1.986v5.146h1.207v-5.146h1.978v-1.057
					h-5.171V286.063z M141.107,285.006v2.508h-2.818v-2.508h-1.208v6.203h1.208v-2.647h2.818v2.647h1.199v-6.203H141.107z"/>
			</g>
		</g>
		<g id="PLATINUM">
			<g>
				<path class="st10" d="M205.56,212.268c-0.175-0.195-0.384-0.352-0.626-0.472c-0.242-0.119-0.506-0.179-0.792-0.179h-2.634v6.203
					h1.208v-2.079h1.47c0.286,0,0.548-0.058,0.788-0.175c0.239-0.116,0.443-0.271,0.612-0.463c0.169-0.192,0.3-0.412,0.394-0.66
					c0.093-0.247,0.14-0.502,0.14-0.764c0-0.25-0.05-0.499-0.149-0.747C205.872,212.684,205.735,212.463,205.56,212.268z
					 M204.672,214.412c-0.149,0.181-0.334,0.271-0.556,0.271h-1.4v-2.009h1.347c0.105,0,0.208,0.022,0.311,0.066
					c0.102,0.044,0.191,0.109,0.267,0.197c0.076,0.087,0.137,0.194,0.184,0.319c0.047,0.125,0.07,0.266,0.07,0.424
					C204.895,213.987,204.821,214.232,204.672,214.412z M208.15,211.617h-1.207v6.203h4.375v-1.057h-3.168V211.617z
					 M213.916,211.617l-2.45,6.203h1.278l0.569-1.546h2.179l0.569,1.546h1.278l-2.441-6.203H213.916z M213.514,215.426l0.892-2.508
					l0.866,2.508H213.514z M216.9,212.674h1.986v5.146h1.208v-5.146h1.977v-1.057H216.9V212.674z M222.85,217.82h1.207v-6.194
					h-1.207V217.82z M229.526,215.688l-3.237-4.071h-0.936v6.203h1.208v-3.975l3.194,3.975h0.98v-6.194h-1.208V215.688z
					 M236.167,214.779c0,0.256-0.025,0.505-0.074,0.747c-0.05,0.242-0.134,0.456-0.254,0.642c-0.12,0.186-0.277,0.338-0.473,0.454
					c-0.195,0.117-0.436,0.175-0.722,0.175c-0.28,0-0.516-0.057-0.709-0.17s-0.349-0.263-0.468-0.45
					c-0.12-0.186-0.204-0.4-0.254-0.642c-0.05-0.242-0.074-0.494-0.074-0.756v-3.163h-1.207v3.163c0,0.402,0.048,0.789,0.144,1.162
					c0.096,0.373,0.252,0.7,0.468,0.983c0.216,0.283,0.497,0.51,0.844,0.681c0.347,0.172,0.768,0.258,1.264,0.258
					c0.478,0,0.89-0.081,1.234-0.245c0.344-0.163,0.626-0.384,0.844-0.664c0.219-0.28,0.379-0.606,0.481-0.979
					c0.102-0.373,0.153-0.772,0.153-1.197v-3.163h-1.199V214.779z M243.561,211.617l-1.855,3.53l-1.838-3.53h-1.295v6.203h1.207
					v-4.106l1.601,3.058h0.656l1.601-3.058v4.106h1.208v-6.203H243.561z"/>
			</g>
		</g>
		<g id="logoLeft">
			<g>
				<ellipse class="st11" cx="222.328" cy="277.313" rx="14.766" ry="14.742"/>
			</g>
		</g>
		<g id="logoRight">
			<g>
				<ellipse class="st12" cx="245.297" cy="277.313" rx="14.766" ry="14.742"/>
			</g>
		</g>
	</g>
	<g id="coin_5_">
		<g id="coinShadow" class="st5">
			<g>
				<circle class="st13" cx="71.625" cy="133.125" r="31.875"/>
			</g>
		</g>
		<g id="coin">
			<g>
				<path class="st14" d="M69.405,160.255c-10.478,0-20.237-5.63-25.469-14.693c-3.923-6.795-4.965-14.711-2.935-22.291
					c2.031-7.579,6.892-13.913,13.687-17.836c4.465-2.578,9.534-3.941,14.658-3.941c10.478,0,20.237,5.63,25.469,14.693
					c3.923,6.795,4.965,14.711,2.935,22.291c-2.031,7.579-6.892,13.913-13.687,17.836C79.597,158.893,74.529,160.255,69.405,160.255
					C69.405,160.255,69.405,160.255,69.405,160.255z"/>
			</g>
			<g>
				<path class="st15" d="M69.345,103.995c9.587,0,18.517,5.151,23.304,13.443c7.409,12.834,2.997,29.302-9.837,36.712
					c-4.086,2.359-8.722,3.606-13.408,3.606c-9.587,0-18.517-5.151-23.304-13.443c-7.409-12.834-2.997-29.302,9.837-36.712
					C60.023,105.242,64.66,103.995,69.345,103.995 M69.345,98.995c-5.408,0-10.888,1.377-15.908,4.276
					c-15.246,8.802-20.469,28.296-11.667,43.542c5.904,10.225,16.619,15.943,27.634,15.943c5.408,0,10.888-1.377,15.908-4.276
					c15.246-8.802,20.469-28.296,11.667-43.542C91.076,104.712,80.361,98.995,69.345,98.995L69.345,98.995z"/>
			</g>
		</g>
		<g id="coinShadow_1_">
			<g>
				<path class="st16" d="M70.5,105.75c2.491,0,4.898,0.354,7.181,1.003C74.753,105.625,71.575,105,68.25,105
					C53.753,105,42,116.753,42,131.25c0,12.006,8.064,22.123,19.069,25.247C51.232,152.708,44.25,143.172,44.25,132
					C44.25,117.503,56.003,105.75,70.5,105.75z"/>
			</g>
		</g>
		<g id="_x24__1_">
			<g>
				<path class="st17" d="M81.85,134.297c-0.063-1.045-0.424-2.138-1.084-3.282c-0.588-1.018-1.249-1.779-1.984-2.284
					c-0.735-0.504-1.553-0.829-2.454-0.974c-0.901-0.145-1.889-0.128-2.965,0.049c-1.076,0.178-2.238,0.433-3.486,0.766
					l-0.887,0.263l-3.114-5.394c0.639-0.286,1.29-0.502,1.953-0.649c0.663-0.147,1.292-0.247,1.885-0.299s1.122-0.072,1.585-0.063
					c0.463,0.01,0.799,0.052,1.008,0.125l-0.114-4.59c-1.209-0.078-2.525-0.018-3.949,0.181c-1.424,0.198-2.841,0.636-4.252,1.312
					l-1.818-3.149l-1.871,1.08l1.836,3.18c-0.971,0.671-1.796,1.425-2.477,2.262c-0.681,0.837-1.173,1.724-1.477,2.661
					c-0.304,0.938-0.401,1.922-0.291,2.953c0.11,1.031,0.471,2.076,1.083,3.136c0.492,0.853,1.048,1.515,1.668,1.989
					c0.62,0.474,1.322,0.789,2.105,0.946c0.783,0.158,1.664,0.182,2.642,0.075c0.977-0.107,2.08-0.321,3.308-0.642l1.334-0.354
					l3.096,5.362c-0.796,0.349-1.606,0.615-2.428,0.799c-0.823,0.184-1.603,0.309-2.34,0.374c-0.738,0.066-1.388,0.081-1.949,0.044
					c-0.561-0.036-0.973-0.089-1.235-0.16l0.24,4.808c1.579,0.142,3.205,0.055,4.879-0.261c1.674-0.315,3.269-0.842,4.784-1.577
					l1.998,3.461l1.871-1.08l-1.98-3.43c0.994-0.63,1.874-1.338,2.638-2.126c0.764-0.788,1.345-1.642,1.741-2.564
					C81.746,136.325,81.913,135.341,81.85,134.297z M64.684,129.513c-0.709-0.075-1.267-0.467-1.675-1.174
					c-0.876-1.517-0.352-2.914,1.571-4.191l2.916,5.051C66.331,129.484,65.393,129.589,64.684,129.513z M74.444,138.282
					l-2.916-5.051c1.231-0.267,2.252-0.371,3.062-0.313c0.81,0.059,1.425,0.452,1.845,1.18
					C77.275,135.553,76.611,136.947,74.444,138.282z"/>
			</g>
		</g>
	</g>
	<g id="coin_4_">
		<g id="coinShadow_2_" class="st5">
			<g>
				<circle class="st13" cx="98.625" cy="101.625" r="31.875"/>
			</g>
		</g>
		<g id="coin_2_">
			<g>
				<path class="st14" d="M100.895,128.008c-2.56,0-5.125-0.339-7.623-1.008c-15.645-4.193-24.963-20.332-20.771-35.978
					c3.437-12.824,15.097-21.78,28.355-21.78c2.56,0,5.124,0.339,7.623,1.008c15.645,4.193,24.963,20.332,20.771,35.978
					c-3.437,12.823-15.097,21.78-28.354,21.78C100.895,128.008,100.896,128.008,100.895,128.008z"/>
			</g>
			<g>
				<path class="st15" d="M100.855,71.742c2.341,0,4.688,0.311,6.976,0.924c6.934,1.858,12.729,6.305,16.319,12.522
					c3.589,6.217,4.543,13.459,2.685,20.393c-3.144,11.733-13.811,19.927-25.939,19.927c-2.341,0-4.688-0.311-6.976-0.924
					c-6.934-1.858-12.729-6.305-16.319-12.522c-3.589-6.217-4.543-13.459-2.685-20.393C78.06,79.936,88.726,71.742,100.855,71.742
					 M100.855,66.742c-14.074,0-26.953,9.392-30.769,23.633c-4.556,17.004,5.535,34.483,22.539,39.039
					c2.763,0.74,5.539,1.094,8.27,1.094c14.074,0,26.953-9.392,30.769-23.633c4.556-17.004-5.535-34.483-22.539-39.039
					C106.362,67.096,103.585,66.742,100.855,66.742L100.855,66.742z"/>
			</g>
		</g>
		<g id="coinInnerShadow">
			<g>
				<path class="st16" d="M102.75,72.75c2.491,0,4.898,0.354,7.181,1.003C107.003,72.625,103.825,72,100.5,72
					c-14.497,0-26.25,11.753-26.25,26.25c0,12.006,8.064,22.123,19.069,25.247C83.482,119.708,76.5,110.172,76.5,99
					C76.5,84.503,88.253,72.75,102.75,72.75z"/>
			</g>
		</g>
		<g id="_x24__2_">
			<g>
				<path class="st17" d="M107.997,101.338c-0.535-0.74-1.245-1.427-2.131-2.062c-0.886-0.635-1.888-1.276-3.007-1.924l-0.813-0.442
					l1.612-6.016c0.653,0.25,1.267,0.557,1.84,0.922c0.573,0.365,1.088,0.739,1.544,1.122s0.845,0.742,1.165,1.076
					c0.32,0.335,0.528,0.602,0.624,0.801l3.165-3.326c-0.8-0.91-1.773-1.798-2.92-2.664c-1.147-0.866-2.458-1.559-3.934-2.079
					l0.941-3.512l-2.086-0.559l-0.95,3.547c-1.161-0.212-2.278-0.262-3.351-0.152c-1.073,0.11-2.049,0.389-2.926,0.837
					c-0.878,0.448-1.643,1.076-2.293,1.883c-0.651,0.807-1.135,1.802-1.452,2.984c-0.255,0.951-0.331,1.812-0.227,2.585
					c0.103,0.773,0.376,1.493,0.82,2.158c0.443,0.665,1.048,1.306,1.815,1.921c0.767,0.615,1.698,1.244,2.793,1.885l1.193,0.693
					l-1.603,5.981c-0.81-0.316-1.57-0.7-2.282-1.152c-0.712-0.452-1.352-0.915-1.92-1.39c-0.569-0.475-1.038-0.924-1.409-1.347
					c-0.371-0.422-0.625-0.751-0.761-0.987l-3.23,3.57c1.016,1.217,2.227,2.305,3.635,3.266c1.407,0.961,2.907,1.716,4.498,2.268
					l-1.034,3.86l2.086,0.559l1.025-3.825c1.148,0.258,2.271,0.378,3.369,0.362c1.097-0.016,2.112-0.21,3.044-0.582
					c0.932-0.371,1.745-0.949,2.439-1.732c0.694-0.783,1.212-1.812,1.554-3.087c0.304-1.136,0.375-2.142,0.212-3.018
					C108.88,102.885,108.531,102.077,107.997,101.338z M98.522,94.345c-0.448-0.554-0.566-1.226-0.355-2.014
					c0.453-1.692,1.812-2.31,4.074-1.853l-1.509,5.633C99.706,95.489,98.969,94.9,98.522,94.345z M103.589,105.896
					c-0.435,1.623-1.891,2.14-4.366,1.551l1.509-5.633c1.06,0.682,1.855,1.33,2.386,1.944
					C103.649,104.372,103.806,105.085,103.589,105.896z"/>
			</g>
		</g>
	</g>
</g>
</svg>
