<?xml version="1.0" encoding="utf-8"?>
<!-- Generator: Adobe Illustrator 18.0.0, SVG Export Plug-In . SVG Version: 6.00 Build 0)  -->
<!DOCTYPE svg PUBLIC "-//W3C//DTD SVG 1.1//EN" "http://www.w3.org/Graphics/SVG/1.1/DTD/svg11.dtd">
<svg version="1.1" xmlns="http://www.w3.org/2000/svg" xmlns:xlink="http://www.w3.org/1999/xlink" x="0px" y="0px"
	 viewBox="0 0 375 375" style="enable-background:new 0 0 375 375;" xml:space="preserve">
<style type="text/css">
	.st0{enable-background:new    ;}
	.st1{fill-rule:evenodd;clip-rule:evenodd;fill:#ECECEC;}
	.st2{fill:#FFFFFF;}
	.st3{fill:#FF9D02;}
	.st4{fill-rule:evenodd;clip-rule:evenodd;fill:#202020;}
	.st5{fill:#202020;}
</style>
<g id="frame_1_" class="st0">
	<g id="frame">
		<g>
			<circle class="st1" cx="187.5" cy="187.5" r="187.5"/>
		</g>
	</g>
</g>
<g id="icon_1_">
	<g id="holes">
		<g>
			<path class="st2" d="M69.496,268.75c0.002-0.083,0.004-0.166,0.004-0.25c0-4.411-3.589-8-8-8c-0.083,0-0.167,0.001-0.25,0.004
				V114.496c0.083,0.002,0.167,0.004,0.25,0.004c4.411,0,8-3.589,8-8c0-0.083-0.001-0.167-0.004-0.25h236.008
				c-0.003,0.083-0.004,0.167-0.004,0.25c0,4.411,3.589,8,8,8c0.084,0,0.167-0.001,0.25-0.004v146.008
				c-0.083-0.003-0.166-0.004-0.25-0.004c-4.411,0-8,3.589-8,8c0,0.084,0.001,0.167,0.004,0.25H69.496z"/>
		</g>
		<g>
			<path class="st3" d="M301.398,111.25c1.321,3.353,3.998,6.031,7.352,7.352v137.797c-3.353,1.321-6.031,3.998-7.352,7.352H73.602
				c-1.321-3.353-3.998-6.031-7.352-7.352V118.602c3.353-1.321,6.031-3.998,7.352-7.352H301.398 M318.75,101.25H56.25v172.5h262.5
				V101.25L318.75,101.25z M313.5,109.5c-1.657,0-3-1.343-3-3s1.343-3,3-3s3,1.343,3,3S315.157,109.5,313.5,109.5L313.5,109.5z
				 M61.5,109.5c-1.657,0-3-1.343-3-3s1.343-3,3-3s3,1.343,3,3S63.157,109.5,61.5,109.5L61.5,109.5z M313.5,271.5
				c-1.657,0-3-1.343-3-3s1.343-3,3-3s3,1.343,3,3S315.157,271.5,313.5,271.5L313.5,271.5z M61.5,271.5c-1.657,0-3-1.343-3-3
				s1.343-3,3-3s3,1.343,3,3S63.157,271.5,61.5,271.5L61.5,271.5z"/>
		</g>
	</g>
	<g id="backing">
		<g>
			<rect x="65.25" y="150" class="st4" width="243.75" height="75"/>
		</g>
	</g>
	<g id="_x31_000">
		<g>
			<path class="st3" d="M131.969,168.138h-13.944c-0.288,0.576-0.923,1.26-1.905,2.052c-0.983,0.792-2.073,1.537-3.27,2.232
				c-1.198,0.696-2.397,1.296-3.594,1.8c-1.198,0.504-2.133,0.756-2.803,0.756v12.528c0.91,0,1.941-0.144,3.091-0.432
				c1.15-0.288,2.288-0.672,3.414-1.152c1.125-0.479,2.144-0.996,3.055-1.548c0.91-0.551,1.581-1.116,2.013-1.692v14.328h-10.207
				v12.24h33.28v-12.24h-9.129V168.138z M178.51,172.494c-1.701-1.944-3.714-3.467-6.038-4.572
				c-2.325-1.104-4.852-1.656-7.583-1.656c-2.731,0-5.259,0.552-7.583,1.656c-2.325,1.105-4.337,2.628-6.038,4.572
				c-1.701,1.944-3.031,4.248-3.989,6.912c-0.959,2.664-1.438,5.58-1.438,8.748s0.478,6.084,1.438,8.748
				c0.958,2.664,2.288,4.968,3.989,6.912c1.7,1.944,3.713,3.456,6.038,4.536c2.324,1.08,4.852,1.62,7.583,1.62
				c2.731,0,5.258-0.54,7.583-1.62c2.324-1.08,4.336-2.592,6.038-4.536c1.7-1.944,3.03-4.248,3.989-6.912
				c0.958-2.664,1.438-5.58,1.438-8.748s-0.48-6.084-1.438-8.748C181.54,176.742,180.21,174.438,178.51,172.494z M168.662,194.886
				c-0.983,1.704-2.241,2.556-3.774,2.556c-1.63,0-2.936-0.852-3.917-2.556c-0.983-1.703-1.473-3.948-1.473-6.732
				c0-2.783,0.491-5.04,1.473-6.768c0.982-1.728,2.288-2.592,3.917-2.592c1.533,0,2.791,0.864,3.774,2.592
				c0.982,1.728,1.474,3.985,1.474,6.768C170.136,190.938,169.644,193.183,168.662,194.886z M222.643,172.494
				c-1.701-1.944-3.714-3.467-6.038-4.572c-2.325-1.104-4.852-1.656-7.583-1.656c-2.731,0-5.259,0.552-7.583,1.656
				c-2.325,1.105-4.337,2.628-6.038,4.572c-1.701,1.944-3.031,4.248-3.989,6.912c-0.959,2.664-1.438,5.58-1.438,8.748
				s0.478,6.084,1.438,8.748c0.958,2.664,2.288,4.968,3.989,6.912c1.7,1.944,3.713,3.456,6.038,4.536
				c2.324,1.08,4.852,1.62,7.583,1.62c2.731,0,5.258-0.54,7.583-1.62c2.324-1.08,4.336-2.592,6.038-4.536
				c1.7-1.944,3.03-4.248,3.989-6.912c0.958-2.664,1.438-5.58,1.438-8.748s-0.48-6.084-1.438-8.748
				C225.673,176.742,224.343,174.438,222.643,172.494z M212.795,194.886c-0.983,1.704-2.241,2.556-3.774,2.556
				c-1.63,0-2.936-0.852-3.917-2.556c-0.983-1.703-1.473-3.948-1.473-6.732c0-2.783,0.491-5.04,1.473-6.768
				c0.982-1.728,2.288-2.592,3.917-2.592c1.533,0,2.791,0.864,3.774,2.592c0.982,1.728,1.474,3.985,1.474,6.768
				C214.269,190.938,213.777,193.183,212.795,194.886z M270.765,179.406c-0.959-2.664-2.289-4.968-3.989-6.912
				c-1.701-1.944-3.714-3.467-6.038-4.572c-2.325-1.104-4.852-1.656-7.583-1.656c-2.731,0-5.259,0.552-7.583,1.656
				c-2.325,1.105-4.337,2.628-6.038,4.572c-1.701,1.944-3.031,4.248-3.989,6.912c-0.959,2.664-1.438,5.58-1.438,8.748
				s0.478,6.084,1.438,8.748c0.958,2.664,2.288,4.968,3.989,6.912c1.7,1.944,3.713,3.456,6.038,4.536
				c2.324,1.08,4.852,1.62,7.583,1.62c2.731,0,5.258-0.54,7.583-1.62c2.324-1.08,4.336-2.592,6.038-4.536
				c1.7-1.944,3.03-4.248,3.989-6.912c0.958-2.664,1.438-5.58,1.438-8.748S271.723,182.07,270.765,179.406z M256.928,194.886
				c-0.983,1.704-2.241,2.556-3.774,2.556c-1.63,0-2.936-0.852-3.917-2.556c-0.983-1.703-1.474-3.948-1.474-6.732
				c0-2.783,0.491-5.04,1.474-6.768c0.982-1.728,2.288-2.592,3.917-2.592c1.533,0,2.791,0.864,3.774,2.592
				c0.982,1.728,1.474,3.985,1.474,6.768C258.402,190.938,257.91,193.183,256.928,194.886z"/>
		</g>
	</g>
	<g id="John_Smith">
		<g>
			<path class="st5" d="M81.154,246.468c0,0.72-0.024,1.347-0.072,1.881c-0.048,0.534-0.15,0.981-0.306,1.341
				c-0.156,0.36-0.384,0.627-0.684,0.801c-0.3,0.174-0.702,0.261-1.206,0.261c-0.516,0-0.972-0.072-1.368-0.216
				c-0.396-0.144-0.678-0.276-0.846-0.396l-0.558,2.016c0.768,0.528,1.692,0.792,2.772,0.792c1.056,0,1.896-0.156,2.52-0.468
				c0.624-0.312,1.101-0.75,1.431-1.314c0.33-0.564,0.546-1.245,0.648-2.043c0.102-0.798,0.153-1.683,0.153-2.655v-6.48h-2.484
				V246.468z M93.727,244.623c-0.426-0.45-0.942-0.807-1.548-1.071c-0.606-0.264-1.293-0.396-2.061-0.396
				c-0.768,0-1.458,0.132-2.07,0.396c-0.612,0.264-1.131,0.621-1.557,1.071c-0.426,0.45-0.753,0.969-0.981,1.557
				c-0.228,0.588-0.342,1.212-0.342,1.872c0,0.648,0.114,1.266,0.342,1.854c0.228,0.588,0.555,1.107,0.981,1.557
				c0.426,0.45,0.945,0.807,1.557,1.071c0.612,0.264,1.302,0.396,2.07,0.396c0.768,0,1.458-0.132,2.07-0.396
				c0.612-0.264,1.128-0.621,1.548-1.071c0.42-0.45,0.744-0.969,0.972-1.557c0.228-0.588,0.342-1.206,0.342-1.854
				c0-0.66-0.114-1.284-0.342-1.872C94.48,245.592,94.153,245.073,93.727,244.623z M92.395,249.186
				c-0.126,0.348-0.3,0.648-0.522,0.9c-0.222,0.252-0.483,0.447-0.783,0.585c-0.3,0.138-0.624,0.207-0.972,0.207
				c-0.348,0-0.672-0.069-0.972-0.207c-0.3-0.138-0.561-0.333-0.783-0.585c-0.222-0.252-0.396-0.549-0.522-0.891
				c-0.126-0.342-0.189-0.723-0.189-1.143c0-0.408,0.063-0.786,0.189-1.134c0.126-0.348,0.3-0.648,0.522-0.9
				c0.222-0.252,0.483-0.45,0.783-0.594c0.3-0.144,0.624-0.216,0.972-0.216c0.348,0,0.672,0.069,0.972,0.207
				c0.3,0.138,0.561,0.333,0.783,0.585c0.222,0.252,0.396,0.552,0.522,0.9c0.126,0.348,0.189,0.726,0.189,1.134
				C92.584,248.454,92.521,248.838,92.395,249.186z M104.824,244.308c-0.216-0.348-0.516-0.627-0.9-0.837
				c-0.384-0.21-0.882-0.315-1.494-0.315c-0.72,0-1.377,0.165-1.971,0.495c-0.594,0.33-1.065,0.801-1.413,1.413v-5.454h-2.412v13.14
				h2.412v-5.508c0.084-0.288,0.216-0.552,0.396-0.792c0.18-0.24,0.378-0.447,0.594-0.621c0.216-0.174,0.444-0.309,0.684-0.405
				c0.24-0.096,0.468-0.144,0.684-0.144c0.504,0,0.894,0.177,1.17,0.531c0.276,0.354,0.414,0.903,0.414,1.647v5.292h2.412v-5.886
				c0-0.468-0.042-0.924-0.126-1.368C105.19,245.052,105.04,244.656,104.824,244.308z M115.696,244.326
				c-0.204-0.348-0.492-0.63-0.864-0.846c-0.372-0.216-0.852-0.324-1.44-0.324c-0.828,0-1.572,0.168-2.232,0.504
				c-0.66,0.336-1.164,0.804-1.512,1.404v-1.746h-2.178v9.432h2.412v-5.508c0.084-0.288,0.216-0.552,0.396-0.792
				c0.18-0.24,0.381-0.447,0.603-0.621c0.222-0.174,0.459-0.309,0.711-0.405c0.252-0.096,0.498-0.144,0.738-0.144
				c0.468,0,0.834,0.174,1.098,0.522c0.264,0.348,0.396,0.9,0.396,1.656v5.292h2.412v-5.886c0-0.456-0.039-0.906-0.117-1.35
				C116.04,245.07,115.899,244.674,115.696,244.326z M130.932,246.576c-0.354-0.288-0.786-0.528-1.296-0.72
				c-0.51-0.192-1.077-0.372-1.701-0.54c-0.48-0.12-0.903-0.234-1.269-0.342c-0.366-0.108-0.669-0.228-0.909-0.36
				c-0.24-0.132-0.423-0.285-0.549-0.459c-0.126-0.174-0.189-0.393-0.189-0.657c0-0.456,0.168-0.81,0.504-1.062
				c0.336-0.252,0.846-0.378,1.53-0.378c0.384,0,0.762,0.048,1.134,0.144c0.372,0.096,0.717,0.213,1.035,0.351
				c0.318,0.138,0.588,0.279,0.81,0.423c0.222,0.144,0.375,0.258,0.459,0.342l1.098-2.016c-0.564-0.384-1.224-0.717-1.98-0.999
				c-0.756-0.282-1.584-0.423-2.484-0.423c-0.648,0-1.254,0.087-1.818,0.261c-0.564,0.174-1.059,0.429-1.485,0.765
				c-0.426,0.336-0.759,0.756-0.999,1.26c-0.24,0.504-0.36,1.08-0.36,1.728c0,0.492,0.075,0.918,0.225,1.278
				c0.15,0.36,0.375,0.672,0.675,0.936c0.3,0.264,0.675,0.495,1.125,0.693s0.981,0.381,1.593,0.549
				c0.504,0.132,0.96,0.258,1.368,0.378c0.408,0.12,0.756,0.252,1.044,0.396c0.288,0.144,0.51,0.312,0.666,0.504
				c0.156,0.192,0.234,0.432,0.234,0.72c0,0.876-0.684,1.314-2.052,1.314c-0.492,0-0.972-0.06-1.44-0.18
				c-0.468-0.12-0.894-0.267-1.278-0.441c-0.384-0.174-0.717-0.348-0.999-0.522c-0.282-0.174-0.477-0.315-0.585-0.423l-1.098,2.142
				c0.744,0.528,1.584,0.936,2.52,1.224c0.936,0.288,1.884,0.432,2.844,0.432c0.624,0,1.224-0.069,1.8-0.207
				c0.576-0.138,1.08-0.357,1.512-0.657c0.432-0.3,0.777-0.693,1.035-1.179c0.258-0.486,0.387-1.071,0.387-1.755
				c0-0.588-0.096-1.083-0.288-1.485C131.559,247.209,131.286,246.864,130.932,246.576z M147.789,244.326
				c-0.204-0.348-0.492-0.63-0.864-0.846c-0.372-0.216-0.846-0.324-1.422-0.324c-0.756,0-1.428,0.171-2.016,0.513
				c-0.588,0.342-1.074,0.837-1.458,1.485c-0.132-0.564-0.411-1.038-0.837-1.422c-0.426-0.384-1.035-0.576-1.827-0.576
				c-0.78,0-1.473,0.165-2.079,0.495c-0.606,0.33-1.083,0.801-1.431,1.413v-1.746h-2.178v9.432h2.412v-5.508
				c0.18-0.588,0.483-1.062,0.909-1.422c0.426-0.36,0.873-0.54,1.341-0.54c0.456,0,0.813,0.174,1.071,0.522
				c0.258,0.348,0.387,0.9,0.387,1.656v5.292h2.412v-5.49c0.18-0.588,0.48-1.065,0.9-1.431c0.42-0.366,0.864-0.549,1.332-0.549
				c0.456,0,0.816,0.174,1.08,0.522c0.264,0.348,0.396,0.9,0.396,1.656v5.292h2.412v-5.886c0-0.456-0.039-0.906-0.117-1.35
				C148.134,245.07,147.993,244.674,147.789,244.326z M150.399,242.004h2.412v-2.394h-2.412V242.004z M150.399,252.75h2.412v-9.432
				h-2.412V252.75z M159.561,250.572c-0.24,0.084-0.486,0.126-0.738,0.126s-0.468-0.069-0.648-0.207
				c-0.18-0.138-0.27-0.375-0.27-0.711v-4.608h1.998v-1.854h-1.998v-3.06h-2.412v3.06h-1.224v1.854h1.224v5.418
				c0,0.42,0.066,0.777,0.198,1.071c0.132,0.294,0.309,0.534,0.531,0.72c0.222,0.186,0.48,0.321,0.774,0.405
				c0.294,0.084,0.609,0.126,0.945,0.126c0.516,0,1.011-0.072,1.485-0.216c0.474-0.144,0.873-0.288,1.197-0.432l-0.486-1.908
				C159.993,250.416,159.801,250.488,159.561,250.572z M170.469,245.496c-0.084-0.444-0.234-0.84-0.45-1.188
				c-0.216-0.348-0.516-0.627-0.9-0.837c-0.384-0.21-0.882-0.315-1.494-0.315c-0.72,0-1.377,0.165-1.971,0.495
				c-0.594,0.33-1.065,0.801-1.413,1.413v-5.454h-2.412v13.14h2.412v-5.508c0.084-0.288,0.216-0.552,0.396-0.792
				c0.18-0.24,0.378-0.447,0.594-0.621c0.216-0.174,0.444-0.309,0.684-0.405c0.24-0.096,0.468-0.144,0.684-0.144
				c0.504,0,0.894,0.177,1.17,0.531c0.276,0.354,0.414,0.903,0.414,1.647v5.292h2.412v-5.886
				C170.595,246.396,170.552,245.94,170.469,245.496z"/>
		</g>
	</g>
	<g id="_x31_0km_Men">
		<g>
			<path class="st5" d="M216.316,242.472h-2.466c-0.048,0.108-0.186,0.255-0.414,0.441c-0.228,0.186-0.492,0.375-0.792,0.567
				c-0.3,0.192-0.606,0.357-0.918,0.495c-0.312,0.138-0.576,0.207-0.792,0.207v2.25c0.228,0,0.492-0.042,0.792-0.126
				c0.3-0.084,0.588-0.192,0.864-0.324c0.276-0.132,0.528-0.273,0.756-0.423c0.228-0.15,0.396-0.297,0.504-0.441v5.454h-2.556v2.178
				h7.308v-2.178h-2.286V242.472z M227.88,243.561c-0.414-0.486-0.906-0.867-1.476-1.143c-0.57-0.276-1.185-0.414-1.845-0.414
				c-0.672,0-1.293,0.138-1.863,0.414c-0.57,0.276-1.062,0.657-1.476,1.143c-0.414,0.486-0.738,1.062-0.972,1.728
				c-0.234,0.666-0.351,1.395-0.351,2.187c0,0.792,0.117,1.521,0.351,2.187c0.234,0.666,0.558,1.242,0.972,1.728
				c0.414,0.486,0.906,0.864,1.476,1.134c0.57,0.27,1.191,0.405,1.863,0.405c0.66,0,1.275-0.135,1.845-0.405
				c0.57-0.27,1.062-0.648,1.476-1.134c0.414-0.486,0.738-1.062,0.972-1.728c0.234-0.666,0.351-1.395,0.351-2.187
				c0-0.792-0.117-1.521-0.351-2.187C228.618,244.623,228.294,244.047,227.88,243.561z M226.611,248.79
				c-0.108,0.396-0.261,0.738-0.459,1.026s-0.432,0.51-0.702,0.666c-0.27,0.156-0.567,0.234-0.891,0.234
				c-0.336,0-0.642-0.078-0.918-0.234c-0.276-0.156-0.513-0.378-0.711-0.666s-0.351-0.63-0.459-1.026
				c-0.108-0.396-0.162-0.834-0.162-1.314c0-0.48,0.054-0.921,0.162-1.323c0.108-0.402,0.261-0.747,0.459-1.035
				c0.198-0.288,0.435-0.51,0.711-0.666c0.276-0.156,0.582-0.234,0.918-0.234c0.324,0,0.621,0.078,0.891,0.234
				c0.27,0.156,0.504,0.378,0.702,0.666c0.198,0.288,0.351,0.633,0.459,1.035c0.108,0.402,0.162,0.843,0.162,1.323
				C226.773,247.956,226.719,248.394,226.611,248.79z M239.931,243.336h-2.574l-3.78,4.248v-7.974h-2.412v13.14h2.412v-2.808
				l1.296-1.278l2.736,4.086h2.574l-3.78-5.418L239.931,243.336z M255.303,244.326c-0.204-0.348-0.492-0.63-0.864-0.846
				c-0.372-0.216-0.846-0.324-1.422-0.324c-0.756,0-1.428,0.171-2.016,0.513c-0.588,0.342-1.074,0.837-1.458,1.485
				c-0.132-0.564-0.411-1.038-0.837-1.422c-0.426-0.384-1.035-0.576-1.827-0.576c-0.78,0-1.473,0.165-2.079,0.495
				c-0.606,0.33-1.083,0.801-1.431,1.413v-1.746h-2.178v9.432h2.412v-5.508c0.18-0.588,0.483-1.062,0.909-1.422
				c0.426-0.36,0.873-0.54,1.341-0.54c0.456,0,0.813,0.174,1.071,0.522c0.258,0.348,0.387,0.9,0.387,1.656v5.292h2.412v-5.49
				c0.18-0.588,0.48-1.065,0.9-1.431c0.42-0.366,0.864-0.549,1.332-0.549c0.456,0,0.816,0.174,1.08,0.522
				c0.264,0.348,0.396,0.9,0.396,1.656v5.292h2.412v-5.886c0-0.456-0.039-0.906-0.117-1.35
				C255.648,245.07,255.507,244.674,255.303,244.326z M268.911,247.242l-3.78-7.272h-2.664v12.78h2.484v-8.46l3.294,6.3h1.35
				l3.294-6.3v8.46h2.484v-12.78h-2.646L268.911,247.242z M285.804,244.614c-0.426-0.444-0.942-0.798-1.548-1.062
				c-0.606-0.264-1.293-0.396-2.061-0.396c-0.768,0-1.461,0.132-2.079,0.396c-0.618,0.264-1.143,0.621-1.575,1.071
				s-0.762,0.972-0.99,1.566c-0.228,0.594-0.342,1.227-0.342,1.899c0,0.648,0.117,1.266,0.351,1.854
				c0.234,0.588,0.567,1.104,0.999,1.548c0.432,0.444,0.954,0.795,1.566,1.053c0.612,0.258,1.296,0.387,2.052,0.387
				c1.056,0,1.965-0.231,2.727-0.693c0.762-0.462,1.317-1.053,1.665-1.773l-2.07-0.576c-0.156,0.384-0.447,0.693-0.873,0.927
				c-0.426,0.234-0.879,0.351-1.359,0.351c-0.312,0-0.612-0.054-0.9-0.162c-0.288-0.108-0.546-0.264-0.774-0.468
				c-0.228-0.204-0.414-0.45-0.558-0.738c-0.144-0.288-0.234-0.618-0.27-0.99h7.29c0.024-0.096,0.039-0.216,0.045-0.36
				c0.006-0.144,0.009-0.294,0.009-0.45c0-0.636-0.111-1.248-0.333-1.836C286.553,245.574,286.229,245.058,285.804,244.614z
				 M279.729,247.242c0.024-0.348,0.105-0.666,0.243-0.954c0.138-0.288,0.315-0.534,0.531-0.738
				c0.216-0.204,0.465-0.363,0.747-0.477c0.282-0.114,0.585-0.171,0.909-0.171c0.66,0,1.221,0.213,1.683,0.639
				c0.462,0.426,0.723,0.993,0.783,1.701H279.729z M297.234,245.514c-0.078-0.444-0.219-0.84-0.423-1.188
				c-0.204-0.348-0.492-0.63-0.864-0.846c-0.372-0.216-0.852-0.324-1.44-0.324c-0.828,0-1.572,0.168-2.232,0.504
				c-0.66,0.336-1.164,0.804-1.512,1.404v-1.746h-2.178v9.432h2.412v-5.508c0.084-0.288,0.216-0.552,0.396-0.792
				c0.18-0.24,0.381-0.447,0.603-0.621c0.222-0.174,0.459-0.309,0.711-0.405c0.252-0.096,0.498-0.144,0.738-0.144
				c0.468,0,0.834,0.174,1.098,0.522c0.264,0.348,0.396,0.9,0.396,1.656v5.292h2.412v-5.886
				C297.351,246.408,297.311,245.958,297.234,245.514z"/>
		</g>
	</g>
	<g id="divider">
		<g>
			<rect x="185.25" y="234.75" class="st4" width="3.75" height="22.5"/>
		</g>
	</g>
	<g id="_x38_packs_Run_2014">
		<g>
			<path class="st5" d="M100.519,128.539c-0.192-0.32-0.412-0.604-0.66-0.852c-0.248-0.248-0.492-0.46-0.732-0.636
				c0.464-0.272,0.848-0.688,1.152-1.248c0.304-0.56,0.456-1.12,0.456-1.68c0-0.816-0.188-1.54-0.564-2.172
				c-0.376-0.632-0.856-1.156-1.44-1.572c-0.584-0.416-1.228-0.732-1.932-0.948c-0.704-0.216-1.384-0.324-2.04-0.324
				c-0.656,0-1.336,0.108-2.04,0.324c-0.704,0.216-1.344,0.54-1.92,0.972s-1.052,0.964-1.428,1.596
				c-0.376,0.632-0.564,1.356-0.564,2.172c0,0.56,0.148,1.112,0.444,1.656c0.296,0.544,0.676,0.952,1.14,1.224
				c-0.24,0.176-0.48,0.384-0.72,0.624s-0.46,0.512-0.66,0.816c-0.2,0.304-0.364,0.64-0.492,1.008
				c-0.128,0.368-0.192,0.768-0.192,1.2c0,0.864,0.176,1.648,0.528,2.352c0.352,0.704,0.824,1.304,1.416,1.8
				c0.592,0.496,1.276,0.876,2.052,1.14c0.776,0.264,1.588,0.396,2.436,0.396c0.88,0,1.712-0.132,2.496-0.396
				c0.784-0.264,1.468-0.64,2.052-1.128c0.584-0.488,1.044-1.072,1.38-1.752c0.336-0.68,0.504-1.436,0.504-2.268
				c0-0.448-0.064-0.864-0.192-1.248C100.871,129.211,100.711,128.859,100.519,128.539z M93.799,123.451
				c0.24-0.224,0.56-0.336,0.96-0.336c0.4,0,0.724,0.112,0.972,0.336c0.248,0.224,0.372,0.496,0.372,0.816
				c0,0.432-0.144,0.752-0.432,0.96c-0.288,0.208-0.592,0.312-0.912,0.312c-0.32,0-0.62-0.104-0.9-0.312
				c-0.28-0.208-0.42-0.528-0.42-0.96C93.439,123.947,93.559,123.675,93.799,123.451z M96.055,131.755
				c-0.336,0.32-0.768,0.48-1.296,0.48c-0.512,0-0.94-0.16-1.284-0.48c-0.344-0.32-0.516-0.712-0.516-1.176
				c0-0.512,0.168-0.916,0.504-1.212c0.336-0.296,0.768-0.444,1.296-0.444c0.512,0,0.94,0.144,1.284,0.432
				c0.344,0.288,0.516,0.696,0.516,1.224C96.559,131.043,96.391,131.435,96.055,131.755z M115.471,125.131
				c-0.512-0.576-1.128-1.028-1.848-1.356c-0.72-0.328-1.496-0.492-2.328-0.492c-0.96,0-1.768,0.184-2.424,0.552
				c-0.656,0.368-1.208,0.896-1.656,1.584v-1.896h-3.96v17.736h4.56v-6.984c0.368,0.688,0.888,1.212,1.56,1.572
				c0.672,0.36,1.464,0.54,2.376,0.54c0.768,0,1.48-0.164,2.136-0.492c0.656-0.328,1.224-0.788,1.704-1.38
				c0.48-0.592,0.856-1.292,1.128-2.1c0.272-0.808,0.408-1.684,0.408-2.628c0-0.928-0.148-1.792-0.444-2.592
				C116.387,126.395,115.983,125.707,115.471,125.131z M112.291,130.843c-0.12,0.336-0.28,0.632-0.48,0.888
				c-0.2,0.256-0.44,0.456-0.72,0.6c-0.28,0.144-0.588,0.216-0.924,0.216c-0.48,0-0.936-0.184-1.368-0.552
				c-0.432-0.368-0.76-0.832-0.984-1.392v-2.184c0.592-0.864,1.312-1.296,2.16-1.296c0.752,0,1.356,0.24,1.812,0.72
				c0.456,0.48,0.684,1.12,0.684,1.92C112.471,130.147,112.411,130.507,112.291,130.843z M130.615,131.107v-2.448
				c0-1.792-0.544-3.136-1.632-4.032c-1.088-0.896-2.64-1.344-4.656-1.344c-2.128,0-4.024,0.536-5.688,1.608l1.32,2.832
				c0.672-0.448,1.312-0.788,1.92-1.02c0.608-0.232,1.272-0.348,1.992-0.348c0.768,0,1.324,0.144,1.668,0.432
				c0.344,0.288,0.516,0.728,0.516,1.32v0.384c-0.672-0.32-1.52-0.48-2.544-0.48c-0.8,0-1.532,0.104-2.196,0.312
				c-0.664,0.208-1.236,0.504-1.716,0.888c-0.48,0.384-0.856,0.84-1.128,1.368c-0.272,0.528-0.408,1.112-0.408,1.752
				c0,0.576,0.112,1.112,0.336,1.608c0.224,0.496,0.532,0.924,0.924,1.284c0.392,0.36,0.86,0.644,1.404,0.852
				c0.544,0.208,1.128,0.312,1.752,0.312c0.832,0,1.616-0.188,2.352-0.564c0.736-0.376,1.384-0.924,1.944-1.644l0.096,0.456
				c0.128,0.576,0.404,1.012,0.828,1.308c0.424,0.296,1.044,0.444,1.86,0.444c0.288,0,0.616-0.02,0.984-0.06
				c0.368-0.04,0.76-0.1,1.176-0.18v-3.84c-0.416-0.032-0.704-0.132-0.864-0.3C130.695,131.839,130.615,131.539,130.615,131.107z
				 M126.055,131.755c0,0.16-0.056,0.316-0.168,0.468c-0.112,0.152-0.256,0.292-0.432,0.42c-0.224,0.144-0.48,0.26-0.768,0.348
				c-0.288,0.088-0.568,0.132-0.84,0.132c-0.432,0-0.788-0.112-1.068-0.336c-0.28-0.224-0.42-0.512-0.42-0.864
				c0-0.416,0.184-0.76,0.552-1.032c0.368-0.272,0.832-0.408,1.392-0.408c0.256,0,0.544,0.032,0.864,0.096
				c0.32,0.064,0.616,0.144,0.888,0.24V131.755z M139.471,127.123c0.736,0,1.32,0.312,1.752,0.936l4.44-1.344
				c-0.512-1.008-1.284-1.832-2.316-2.472c-1.032-0.64-2.316-0.96-3.852-0.96c-1.12,0-2.112,0.18-2.976,0.54
				c-0.864,0.36-1.588,0.84-2.172,1.44c-0.584,0.6-1.028,1.296-1.332,2.088c-0.304,0.792-0.456,1.62-0.456,2.484
				s0.152,1.692,0.456,2.484c0.304,0.792,0.748,1.488,1.332,2.088c0.584,0.6,1.308,1.08,2.172,1.44
				c0.864,0.36,1.856,0.54,2.976,0.54c1.536,0,2.82-0.32,3.852-0.96c1.032-0.64,1.804-1.464,2.316-2.472l-4.44-1.344
				c-0.432,0.624-1.016,0.936-1.752,0.936c-0.624,0-1.152-0.236-1.584-0.708c-0.432-0.472-0.648-1.14-0.648-2.004
				s0.216-1.532,0.648-2.004C138.319,127.359,138.847,127.123,139.471,127.123z M159.798,123.523h-4.8l-3.36,4.68v-9.576h-4.56
				v17.52h4.56v-3.6l0.912-1.008l2.856,4.608h4.824l-4.776-7.104L159.798,123.523z M170.946,129.775
				c-0.392-0.312-0.916-0.6-1.572-0.864c-0.656-0.264-1.464-0.516-2.424-0.756c-0.416-0.096-0.764-0.188-1.044-0.276
				c-0.28-0.088-0.5-0.172-0.66-0.252c-0.16-0.08-0.272-0.164-0.336-0.252c-0.064-0.088-0.096-0.196-0.096-0.324
				c0-0.224,0.108-0.388,0.324-0.492c0.216-0.104,0.5-0.156,0.852-0.156c0.544,0,1.112,0.092,1.704,0.276
				c0.592,0.184,1.336,0.484,2.232,0.9l1.752-2.904c-1.008-0.464-1.996-0.816-2.964-1.056c-0.968-0.24-1.876-0.36-2.724-0.36
				c-0.784,0-1.508,0.108-2.172,0.324c-0.664,0.216-1.236,0.524-1.716,0.924c-0.48,0.4-0.852,0.872-1.116,1.416
				c-0.264,0.544-0.396,1.136-0.396,1.776c0,0.48,0.08,0.9,0.24,1.26c0.16,0.36,0.424,0.688,0.792,0.984
				c0.368,0.296,0.856,0.564,1.464,0.804c0.608,0.24,1.36,0.48,2.256,0.72c0.896,0.224,1.504,0.416,1.824,0.576
				c0.32,0.16,0.48,0.344,0.48,0.552c0,0.4-0.4,0.6-1.2,0.6c-0.688,0-1.432-0.12-2.232-0.36c-0.8-0.24-1.64-0.592-2.52-1.056
				l-1.752,3.096c0.4,0.224,0.872,0.428,1.416,0.612c0.544,0.184,1.108,0.34,1.692,0.468c0.584,0.128,1.18,0.232,1.788,0.312
				c0.608,0.08,1.176,0.12,1.704,0.12c1.696,0,3.036-0.376,4.02-1.128c0.984-0.752,1.476-1.776,1.476-3.072
				c0-0.512-0.084-0.964-0.252-1.356C171.618,130.439,171.338,130.087,170.946,129.775z M192.198,127.783
				c0.432-0.856,0.648-1.78,0.648-2.772c0-0.72-0.144-1.436-0.432-2.148c-0.288-0.712-0.684-1.344-1.188-1.896s-1.108-1-1.812-1.344
				c-0.704-0.344-1.472-0.516-2.304-0.516h-7.824v17.04h4.68v-5.232h1.752l3.24,5.232h5.28l-3.84-6.264
				C191.166,129.339,191.766,128.639,192.198,127.783z M187.722,126.355c-0.248,0.32-0.516,0.48-0.804,0.48h-2.952v-3.648h2.832
				c0.288,0,0.576,0.156,0.864,0.468c0.288,0.312,0.432,0.764,0.432,1.356C188.094,125.587,187.97,126.035,187.722,126.355z
				 M207.726,131.107v-7.584h-4.56v7.728c-0.368,0.544-0.736,0.896-1.104,1.056c-0.368,0.16-0.728,0.24-1.08,0.24
				c-0.432,0-0.772-0.152-1.02-0.456c-0.248-0.304-0.372-0.736-0.372-1.296v-7.272h-4.56v8.304c0,1.488,0.336,2.62,1.008,3.396
				c0.672,0.776,1.648,1.164,2.928,1.164c1.056,0,1.992-0.172,2.808-0.516s1.52-0.908,2.112-1.692l0.096,0.456
				c0.24,1.168,1.136,1.752,2.688,1.752c0.272,0,0.584-0.02,0.936-0.06c0.352-0.04,0.76-0.1,1.224-0.18v-3.84
				c-0.416-0.032-0.704-0.132-0.864-0.3C207.806,131.839,207.726,131.539,207.726,131.107z M222.69,124.915
				c-0.264-0.464-0.648-0.852-1.152-1.164c-0.504-0.312-1.188-0.468-2.052-0.468c-1.104,0-2.06,0.18-2.868,0.54
				c-0.808,0.36-1.436,0.884-1.884,1.572v-1.872h-4.104v12.624h4.56v-7.08c0.208-0.528,0.528-0.96,0.96-1.296
				s0.84-0.504,1.224-0.504c0.368,0,0.692,0.14,0.972,0.42c0.28,0.28,0.42,0.732,0.42,1.356v7.104h4.56v-8.304
				c0-0.432-0.04-0.912-0.12-1.44C223.126,125.875,222.954,125.379,222.69,124.915z M239.225,131.239
				c0.44-0.248,0.86-0.508,1.26-0.78c0.336-0.224,0.656-0.464,0.96-0.72c0.304-0.256,0.564-0.54,0.78-0.852s0.388-0.66,0.516-1.044
				c0.128-0.384,0.192-0.824,0.192-1.32c0-1.36-0.476-2.42-1.428-3.18c-0.952-0.76-2.348-1.14-4.188-1.14
				c-0.688,0-1.36,0.056-2.016,0.168c-0.656,0.112-1.276,0.268-1.86,0.468c-0.584,0.2-1.116,0.44-1.596,0.72
				c-0.48,0.28-0.872,0.588-1.176,0.924l2.88,3.384c0.512-0.608,1.004-1.048,1.476-1.32c0.472-0.272,0.972-0.408,1.5-0.408
				c0.448,0,0.8,0.096,1.056,0.288c0.256,0.192,0.384,0.488,0.384,0.888c0,0.144-0.036,0.276-0.108,0.396
				c-0.072,0.12-0.236,0.268-0.492,0.444c-0.256,0.176-0.636,0.404-1.14,0.684c-0.504,0.28-1.188,0.652-2.052,1.116
				c-0.672,0.368-1.236,0.744-1.692,1.128c-0.456,0.384-0.828,0.82-1.116,1.308c-0.288,0.488-0.496,1.036-0.624,1.644
				c-0.128,0.608-0.192,1.312-0.192,2.112h12.648v-4.08h-5.28C238.349,131.763,238.785,131.487,239.225,131.239z M256.097,123.895
				c-0.568-0.648-1.24-1.156-2.016-1.524c-0.776-0.368-1.62-0.552-2.532-0.552s-1.756,0.184-2.532,0.552
				c-0.776,0.368-1.448,0.876-2.016,1.524c-0.568,0.648-1.012,1.416-1.332,2.304c-0.32,0.888-0.48,1.86-0.48,2.916
				c0,1.056,0.16,2.028,0.48,2.916c0.32,0.888,0.764,1.656,1.332,2.304c0.568,0.648,1.24,1.152,2.016,1.512
				c0.776,0.36,1.62,0.54,2.532,0.54s1.756-0.18,2.532-0.54c0.776-0.36,1.448-0.864,2.016-1.512
				c0.568-0.648,1.012-1.416,1.332-2.304c0.32-0.888,0.48-1.86,0.48-2.916c0-1.056-0.16-2.028-0.48-2.916
				C257.109,125.311,256.665,124.543,256.097,123.895z M252.809,131.359c-0.328,0.568-0.748,0.852-1.26,0.852
				c-0.544,0-0.98-0.284-1.308-0.852c-0.328-0.568-0.492-1.316-0.492-2.244c0-0.928,0.164-1.68,0.492-2.256
				c0.328-0.576,0.764-0.864,1.308-0.864c0.512,0,0.932,0.288,1.26,0.864c0.328,0.576,0.492,1.328,0.492,2.256
				C253.301,130.043,253.137,130.791,252.809,131.359z M268.421,122.443h-4.656c-0.096,0.192-0.308,0.42-0.636,0.684
				c-0.328,0.264-0.692,0.512-1.092,0.744c-0.4,0.232-0.8,0.432-1.2,0.6c-0.4,0.168-0.712,0.252-0.936,0.252v4.176
				c0.304,0,0.648-0.048,1.032-0.144c0.384-0.096,0.764-0.224,1.14-0.384c0.376-0.16,0.716-0.332,1.02-0.516
				c0.304-0.184,0.528-0.372,0.672-0.564v4.776h-3.408v4.08h11.112v-4.08h-3.048V122.443z M283.253,132.139v-9.696h-3.12
				l-7.608,9.696v4.08h6.168v2.976h4.56v-2.976h2.112v-4.08H283.253z M279.221,132.139h-2.208l2.208-2.88V132.139z"/>
		</g>
	</g>
</g>
</svg>
