<?xml version="1.0" encoding="utf-8"?>
<!-- Generator: Adobe Illustrator 18.0.0, SVG Export Plug-In . SVG Version: 6.00 Build 0)  -->
<!DOCTYPE svg PUBLIC "-//W3C//DTD SVG 1.1//EN" "http://www.w3.org/Graphics/SVG/1.1/DTD/svg11.dtd">
<svg version="1.1" xmlns="http://www.w3.org/2000/svg" xmlns:xlink="http://www.w3.org/1999/xlink" x="0px" y="0px"
	 viewBox="0 0 375 375" style="enable-background:new 0 0 375 375;" xml:space="preserve">
<style type="text/css">
	.st0{enable-background:new    ;}
	.st1{fill-rule:evenodd;clip-rule:evenodd;fill:#ECECEC;}
	.st2{fill-rule:evenodd;clip-rule:evenodd;fill:#F36557;}
	.st3{fill-rule:evenodd;clip-rule:evenodd;fill:#C03224;}
	.st4{fill-rule:evenodd;clip-rule:evenodd;fill:#DA4C3E;}
	.st5{fill-rule:evenodd;clip-rule:evenodd;fill:#FFFFFF;}
</style>
<g id="frame_1_" class="st0">
	<g id="frame">
		<g>
			<circle class="st1" cx="187.5" cy="187.5" r="187.5"/>
		</g>
	</g>
</g>
<g id="icon_1_">
	<g id="backFront">
		<g>
			<rect x="88.313" y="92.578" class="st2" width="198.375" height="215.625"/>
		</g>
	</g>
	<g id="backFoldingShadow">
		<g>
			<path class="st2" d="M101.25,88.256l23.287-7.762L101.25,67.556V88.256z M250.462,80.494l23.287,7.762v-20.7L250.462,80.494z"/>
		</g>
	</g>
	<g id="backLiningShadow">
		<g>
			<polygon class="st3" points="286.688,92.569 252.188,80.494 273.75,67.556 101.25,67.556 122.813,80.494 88.313,92.569 			"/>
		</g>
	</g>
	<g id="backLiningFoldingShadow">
		<g>
			<path class="st4" d="M122.813,92.569V80.494l-34.5,12.075H122.813z M252.188,80.494v12.075h34.5L252.188,80.494z"/>
		</g>
	</g>
	<g id="handleHoles">
		<g>
			<path class="st3" d="M143.944,106.369c-3.573,0-6.469,2.896-6.469,6.469c0,3.573,2.896,6.469,6.469,6.469
				s6.469-2.896,6.469-6.469C150.412,109.265,147.516,106.369,143.944,106.369z M231.056,106.369c-3.573,0-6.469,2.896-6.469,6.469
				c0,3.573,2.896,6.469,6.469,6.469c3.573,0,6.469-2.896,6.469-6.469C237.525,109.265,234.629,106.369,231.056,106.369z"/>
		</g>
	</g>
	<g id="handleShadow">
		<g>
			<path class="st3" d="M234.938,152.944c-0.215-15.418,0-38.813,0-38.813s-0.472-3.45-4.313-3.45c-4.749,0-4.313,3.45-4.313,3.45
				s-0.066,17.872,0,31.05c0.06,12.11,0.753,25.875-38.813,25.875c-38.612,0-38.833-13.223-38.813-25.875
				c0.023-14.023,0-31.05,0-31.05s0.277-3.45-4.313-3.45c-4.039,0-4.313,3.45-4.313,3.45s0,17.911,0,37.95
				c0,7.979,0,27.6,47.438,27.6S235.05,161.027,234.938,152.944z"/>
		</g>
	</g>
	<g id="handle">
		<g>
			<path class="st5" d="M234.938,148.631c-0.215-15.418,0-38.813,0-38.813s-0.472-3.45-4.313-3.45c-4.749,0-4.313,3.45-4.313,3.45
				s-0.066,17.872,0,31.05c0.06,12.11,0.753,25.875-38.813,25.875c-38.612,0-38.833-13.223-38.813-25.875
				c0.023-14.023,0-31.05,0-31.05s0.277-3.45-4.313-3.45c-4.039,0-4.313,3.45-4.313,3.45s0,17.911,0,37.95
				c0,7.979,0,27.6,47.438,27.6S235.05,156.715,234.938,148.631z"/>
		</g>
	</g>
</g>
</svg>
