<?xml version="1.0" encoding="utf-8"?>
<!-- Generator: Adobe Illustrator 18.0.0, SVG Export Plug-In . SVG Version: 6.00 Build 0)  -->
<!DOCTYPE svg PUBLIC "-//W3C//DTD SVG 1.1//EN" "http://www.w3.org/Graphics/SVG/1.1/DTD/svg11.dtd">
<svg version="1.1" xmlns="http://www.w3.org/2000/svg" xmlns:xlink="http://www.w3.org/1999/xlink" x="0px" y="0px"
	 viewBox="0 0 375 375" style="enable-background:new 0 0 375 375;" xml:space="preserve">
<style type="text/css">
	.st0{enable-background:new    ;}
	.st1{fill-rule:evenodd;clip-rule:evenodd;fill:#ECECEC;}
	.st2{fill-rule:evenodd;clip-rule:evenodd;fill:#FF3B3B;}
	.st3{fill-rule:evenodd;clip-rule:evenodd;fill:#FF7070;}
	.st4{fill-rule:evenodd;clip-rule:evenodd;fill:#FF5757;}
	.st5{fill-rule:evenodd;clip-rule:evenodd;fill:#FFFFFF;}
</style>
<g id="frame_1_" class="st0">
	<g id="frame">
		<g>
			<circle class="st1" cx="187.5" cy="187.5" r="187.5"/>
		</g>
	</g>
</g>
<g id="icon_1_">
	<g id="tag">
		<g>
			<path class="st2" d="M148.317,114.75v-0.002l-0.002,0.002h-0.002v0.002L79.5,180l68.813,65.99V246H333.75V114.75H148.317z
				 M117,195c-8.284,0-15-6.716-15-15c0-8.284,6.716-15,15-15c8.284,0,15,6.716,15,15C132,188.284,125.284,195,117,195z"/>
		</g>
	</g>
	<g id="ribbonFront">
		<g>
			<path class="st3" d="M133.5,179.25c-9.862-19.565-20.321-13.886-18.75-15c0,0-2.831,0.762-5.25,2.25
				c-2.456,1.511-4.5,3.75-4.5,3.75s14.528,7.297,8.25,19.5c-6.047,11.754-26.246,26.381-47.25,33c-9.584,3.02-22.5,5.25-22.5,5.25
				l30.75,2.25L64.5,280.5c0.093-0.041,10.158-17.095,20.25-27.75C107.702,228.519,141.373,194.869,133.5,179.25z"/>
		</g>
	</g>
	<g id="ribbonBack">
		<g>
			<path class="st4" d="M62.25,141c-37.019-22.773,21.866-36.349,35.25-36.75l-26.25-0.75L72,95.25
				c-4.931,9.628-7.023,10.944-21.75,17.25c-21.274,9.109-4.185,35.342,45.875,52.547l6.625-6.797
				C102.75,158.25,89.857,157.983,62.25,141z"/>
		</g>
	</g>
	<g id="discount">
		<g>
			<path class="st5" d="M215.07,174.27c2.959,0,5.739-0.499,8.34-1.5c2.599-0.999,4.86-2.34,6.78-4.02c1.92-1.68,3.439-3.679,4.56-6
				c1.119-2.319,1.68-4.8,1.68-7.44c0-2.64-0.561-5.119-1.68-7.44c-1.121-2.319-2.64-4.32-4.56-6c-1.92-1.68-4.181-3.019-6.78-4.02
				c-2.601-0.999-5.381-1.5-8.34-1.5c-3.041,0-5.861,0.501-8.46,1.5c-2.601,1.001-4.86,2.34-6.78,4.02c-1.92,1.68-3.42,3.681-4.5,6
				c-1.08,2.321-1.62,4.8-1.62,7.44c0,2.64,0.54,5.121,1.62,7.44c1.08,2.321,2.58,4.32,4.5,6c1.92,1.68,4.179,3.021,6.78,4.02
				C209.209,173.771,212.029,174.27,215.07,174.27z M210.99,149.55c1.119-1.599,2.479-2.4,4.08-2.4c1.599,0,2.959,0.801,4.08,2.4
				c1.119,1.601,1.68,3.521,1.68,5.76c0,2.241-0.561,4.161-1.68,5.76c-1.121,1.601-2.481,2.4-4.08,2.4
				c-1.601,0-2.961-0.799-4.08-2.4c-1.121-1.599-1.68-3.519-1.68-5.76C209.31,153.071,209.869,151.151,210.99,149.55z
				 M277.83,145.23l-9.96-9l-30.12,40.44l-33.96,38.28l9.96,9l31.56-41.64L277.83,145.23z M286.23,197.55
				c-1.121-2.319-2.64-4.32-4.56-6c-1.92-1.68-4.181-3.019-6.78-4.02c-2.601-0.999-5.381-1.5-8.34-1.5
				c-3.041,0-5.861,0.501-8.46,1.5c-2.601,1.001-4.86,2.34-6.78,4.02c-1.92,1.68-3.42,3.681-4.5,6c-1.08,2.321-1.62,4.8-1.62,7.44
				c0,2.64,0.54,5.121,1.62,7.44c1.08,2.321,2.58,4.32,4.5,6c1.92,1.68,4.179,3.021,6.78,4.02c2.599,0.999,5.419,1.5,8.46,1.5
				c2.959,0,5.739-0.501,8.34-1.5c2.599-0.999,4.86-2.34,6.78-4.02c1.92-1.68,3.439-3.679,4.56-6c1.119-2.319,1.68-4.8,1.68-7.44
				C287.91,202.35,287.349,199.871,286.23,197.55z M270.63,210.75c-1.121,1.601-2.481,2.4-4.08,2.4c-1.601,0-2.961-0.799-4.08-2.4
				c-1.121-1.599-1.68-3.519-1.68-5.76c0-2.239,0.559-4.159,1.68-5.76c1.119-1.599,2.479-2.4,4.08-2.4c1.599,0,2.959,0.801,4.08,2.4
				c1.119,1.601,1.68,3.521,1.68,5.76C272.31,207.231,271.749,209.151,270.63,210.75z"/>
		</g>
	</g>
</g>
</svg>
