<?xml version="1.0" encoding="utf-8"?>
<!-- Generator: Adobe Illustrator 18.0.0, SVG Export Plug-In . SVG Version: 6.00 Build 0)  -->
<svg version="1.2" baseProfile="tiny" xmlns="http://www.w3.org/2000/svg" xmlns:xlink="http://www.w3.org/1999/xlink" x="0px"
	 y="0px" viewBox="0 0 375 375" xml:space="preserve">
<g id="frame_2_">
	<g id="frame">
		<circle fill-rule="evenodd" fill="#ECECEC" cx="187.5" cy="187.5" r="187.5"/>
	</g>
</g>
<g id="icon_1_">
	<g id="ring">
		<path fill="#00000D" d="M184.934,31.25c24.053,0,43.621,19.626,43.621,43.75c0,24.124-19.568,43.75-43.621,43.75
			S141.313,99.124,141.313,75C141.313,50.876,160.881,31.25,184.934,31.25 M184.934,26.25c-26.853,0-48.621,21.826-48.621,48.75
			c0,26.924,21.768,48.75,48.621,48.75s48.621-21.826,48.621-48.75C233.555,48.076,211.786,26.25,184.934,26.25L184.934,26.25z"/>
	</g>
	<g id="buttonShadow">
		<rect x="171.75" y="109.5" fill-rule="evenodd" fill="#2C365A" width="26.25" height="33.75"/>
	</g>
	<g id="buttonShadowShadow">
		<rect x="171.75" y="109.5" fill-rule="evenodd" fill="#121C40" width="26.25" height="7.5"/>
	</g>
	<g id="button">
		<rect x="156.75" y="87" fill-rule="evenodd" fill="#454F73" width="56.25" height="22.5"/>
	</g>
	<g id="dialShadow">
		<polygon fill-rule="evenodd" fill="#2C365A" points="269.506,133.662 245.704,157.527 264.216,176.088 288.018,152.223 		"/>
	</g>
	<g id="dialShadowShadow">
		<polygon fill-rule="evenodd" fill="#121C40" points="262.006,141.162 258.454,144.777 276.966,163.338 280.518,159.723 		"/>
	</g>
	<g id="dial">
		<polygon fill-rule="evenodd" fill="#454F73" points="271.269,118.442 255.401,134.352 287.137,166.172 303.005,150.262 		"/>
	</g>
	<g id="frame_1_">
		<g>
			<path fill-rule="evenodd" fill="#FFFFFF" d="M184.207,338.75C127.85,338.75,82,292.769,82,236.25s45.85-102.5,102.207-102.5
				s102.207,45.981,102.207,102.5S240.564,338.75,184.207,338.75z"/>
		</g>
		<g>
			<path fill="#121C40" d="M184.207,143.75c50.843,0,92.207,41.495,92.207,92.5s-41.364,92.5-92.207,92.5S92,287.255,92,236.25
				S133.364,143.75,184.207,143.75 M184.207,123.75C122.237,123.75,72,174.118,72,236.25s50.237,112.5,112.207,112.5
				s112.207-50.368,112.207-112.5S246.177,123.75,184.207,123.75L184.207,123.75z"/>
		</g>
	</g>
	<g id="watchFaceShadow">
		<path fill="#000327" d="M184.207,147.5c48.801,0,88.504,39.813,88.504,88.75S233.008,325,184.207,325s-88.504-39.813-88.504-88.75
			S135.406,147.5,184.207,147.5 M184.207,142.5c-51.641,0-93.504,41.973-93.504,93.75S132.566,330,184.207,330
			s93.504-41.973,93.504-93.75S235.848,142.5,184.207,142.5L184.207,142.5z"/>
	</g>
	<g id="watchFace_1_">
		<g id="hand">
			<path fill-rule="evenodd" fill="#A7190B" d="M246.853,176.853l-2.652-2.652l-55.824,55.824c-1.192-0.805-2.628-1.276-4.174-1.276
				c-4.131,0-7.48,3.358-7.48,7.5c0,4.142,3.349,7.5,7.48,7.5s7.48-3.358,7.48-7.5c0-1.228-0.3-2.383-0.822-3.406L246.853,176.853z"
				/>
		</g>
		<g id="markings">
			<path fill-rule="evenodd" fill="#3A3A3A" d="M108.751,280.75l1.726,2.457l11.091-7.743l-1.726-2.457L108.751,280.75z
				 M137.487,310.816l2.305,1.928l8.703-10.342l-2.305-1.928L137.487,310.816z M121.026,199.441l-10.342-8.703l-1.928,2.305
				l10.342,8.703L121.026,199.441z M148.493,173.092l-7.743-11.091l-2.457,1.726l7.743,11.091L148.493,173.092z M219.007,301.657
				l7.743,11.091l2.457-1.726l-7.743-11.091L219.007,301.657z M246.474,275.309l10.342,8.703l1.928-2.305l-10.342-8.703
				L246.474,275.309z M258.796,193.39l-1.721-2.457l-11.059,7.743l1.721,2.457L258.796,193.39z M219.168,171.738l2.298,1.928
				l8.678-10.342l-2.298-1.928L219.168,171.738z"/>
		</g>
		<g id="markingQuarters">
			<path fill-rule="evenodd" fill="#F53D3D" d="M173.25,321.743h22.499l-11.25-18.749L173.25,321.743z M99.007,247.499l18.749-11.25
				L99.007,225V247.499z M184.805,169.623l11.25-18.749h-22.499L184.805,169.623z M251.244,236.25l18.749,11.25v-22.499
				L251.244,236.25z"/>
		</g>
	</g>
</g>
</svg>
