<?xml version="1.0" encoding="utf-8"?>
<!-- Generator: Adobe Illustrator 18.0.0, SVG Export Plug-In . SVG Version: 6.00 Build 0)  -->
<!DOCTYPE svg PUBLIC "-//W3C//DTD SVG 1.1//EN" "http://www.w3.org/Graphics/SVG/1.1/DTD/svg11.dtd">
<svg version="1.1" xmlns="http://www.w3.org/2000/svg" xmlns:xlink="http://www.w3.org/1999/xlink" x="0px" y="0px"
	 viewBox="0 0 375 382.5" style="enable-background:new 0 0 375 382.5;" xml:space="preserve">
<style type="text/css">
	.st0{enable-background:new    ;}
	.st1{fill-rule:evenodd;clip-rule:evenodd;fill:#ECECEC;}
	.st2{fill-rule:evenodd;clip-rule:evenodd;fill:#FF4747;}
	.st3{fill-rule:evenodd;clip-rule:evenodd;fill:#FFFFFF;}
	.st4{fill:#3A3A3A;}
	.st5{fill-rule:evenodd;clip-rule:evenodd;fill:#FFD496;}
	.st6{fill:#F5A430;}
</style>
<g id="frame_1_" class="st0">
	<g id="frame">
		<g>
			<circle class="st1" cx="187.5" cy="187.5" r="187.5"/>
		</g>
	</g>
</g>
<g id="icon_1_">
	<g id="trolley">
		<g>
			<polygon class="st2" points="276.57,97.977 276.323,97.911 276.305,97.977 276.075,97.977 276.075,98.837 241.037,229.602 
				74.587,229.602 74.587,249.852 256.837,249.852 256.837,248.872 291.844,118.227 326.7,118.227 326.7,97.977 			"/>
		</g>
	</g>
	<g id="wheels">
		<g>
			<path class="st3" d="M238.106,280.289c-7.013,0-12.719-5.706-12.719-12.719s5.706-12.719,12.719-12.719
				s12.719,5.706,12.719,12.719S245.119,280.289,238.106,280.289z M92.306,280.289c-7.013,0-12.719-5.706-12.719-12.719
				s5.706-12.719,12.719-12.719s12.719,5.706,12.719,12.719S99.319,280.289,92.306,280.289z"/>
		</g>
		<g>
			<path class="st4" d="M238.106,259.852c4.256,0,7.719,3.463,7.719,7.719s-3.463,7.719-7.719,7.719
				c-4.256,0-7.719-3.463-7.719-7.719S233.85,259.852,238.106,259.852 M92.306,259.852c4.256,0,7.719,3.463,7.719,7.719
				s-3.463,7.719-7.719,7.719c-4.256,0-7.719-3.463-7.719-7.719S88.05,259.852,92.306,259.852 M238.106,249.852
				c-9.786,0-17.719,7.933-17.719,17.719s7.933,17.719,17.719,17.719s17.719-7.933,17.719-17.719S247.892,249.852,238.106,249.852
				L238.106,249.852z M92.306,249.852c-9.786,0-17.719,7.933-17.719,17.719s7.933,17.719,17.719,17.719
				c9.786,0,17.719-7.933,17.719-17.719S102.092,249.852,92.306,249.852L92.306,249.852z"/>
		</g>
	</g>
	<g id="cart">
		<g>
			<polygon class="st5" points="78.491,214.477 54.766,123.227 254.159,123.227 230.434,214.477 			"/>
		</g>
		<g>
			<path class="st6" d="M247.692,128.227l-21.125,81.25H82.358l-21.125-81.25H247.692 M260.625,118.227H48.3l26.325,101.25H234.3
				L260.625,118.227L260.625,118.227z"/>
		</g>
	</g>
</g>
</svg>
